<svg xmlns="http://www.w3.org/2000/svg" width="15" height="20" viewBox="0 0 15 20" fill="none"><path d="M7.5 0.0408325C3.36448 0.0408325 0 3.40531 0 7.54083C0 8.86458 0.349745 10.166 1.01139 11.3044C1.16564 11.5698 1.33806 11.8285 1.52395 12.0732L7.17413 19.6327H7.82583L13.476 12.0732C13.6619 11.8285 13.8343 11.5699 13.9886 11.3045C14.6503 10.166 15 8.86458 15 7.54083C15 3.40531 11.6355 0.0408325 7.5 0.0408325ZM7.5 10.0281C6.12853 10.0281 5.01275 8.9123 5.01275 7.54083C5.01275 6.16937 6.12853 5.05359 7.5 5.05359C8.87147 5.05359 9.98724 6.16937 9.98724 7.54083C9.98724 8.9123 8.87147 10.0281 7.5 10.0281Z" fill="#8D9986"></path></svg>