<?xml version="1.0" encoding="UTF-8"?> <svg xmlns="http://www.w3.org/2000/svg" width="35" height="35" viewBox="0 0 35 35" fill="none"><path d="M5.5481 27.9498C5.92563 27.9498 6.23169 27.6438 6.23169 27.2662C6.23169 26.8887 5.92563 26.5826 5.5481 26.5826C5.17056 26.5826 4.8645 26.8887 4.8645 27.2662C4.8645 27.6438 5.17056 27.9498 5.5481 27.9498Z" fill="#8D9986"></path><path d="M31.5273 6.35398H27.5052C26.5972 6.35398 25.7635 6.67759 25.113 7.21545V7.03757V5.16029C25.113 2.47575 22.9292 0.29187 20.2447 0.29187H15.6841C15.3065 0.29187 15.0005 0.597983 15.0005 0.975464V2.85282C15.0005 5.53729 17.1844 7.72117 19.8688 7.72117H23.7458V10.1133V11.9577V14.6508C23.5655 14.6393 23.3842 14.6329 23.2019 14.6329C21.4054 14.6329 19.6878 15.1868 18.2351 16.2345C17.9289 16.4553 17.8597 16.8826 18.0806 17.1888C18.3014 17.495 18.7287 17.5644 19.0349 17.3434C20.2532 16.4647 21.6942 16.0002 23.2019 16.0002C23.5663 16.0002 23.9266 16.029 24.2805 16.0832C24.3098 16.0897 24.3398 16.0944 24.3704 16.097C26.4977 16.4507 28.3788 17.7568 29.445 19.6812C29.5699 19.9064 29.8031 20.0336 30.0436 20.0336C30.1556 20.0336 30.2693 20.006 30.3742 19.9478C30.7045 19.7648 30.8238 19.3488 30.6408 19.0185C29.4579 16.8835 27.4328 15.3877 25.113 14.8517V12.6413H28.4516C30.5244 12.6413 32.2109 10.9548 32.2109 8.88191V7.03757C32.2109 6.66009 31.9049 6.35398 31.5273 6.35398ZM23.7458 6.35398H19.8688C17.9383 6.35398 16.3677 4.78336 16.3677 2.85282V1.65906H20.2447C22.1752 1.65906 23.7458 3.22968 23.7458 5.16029V6.35398ZM30.8437 8.88198C30.8437 10.201 29.7706 11.2741 28.4516 11.2741H25.113V10.1134C25.113 8.79441 26.1861 7.72124 27.5052 7.72124H30.8437V8.88198Z" fill="#8D9986"></path><path d="M34.7718 22.4773C34.1752 21.126 32.5904 20.5124 31.2391 21.1087C31.2357 21.1102 31.2324 21.1118 31.229 21.1133L26.7626 23.173C26.4197 23.3311 26.27 23.7372 26.428 24.0801C26.5861 24.423 26.9922 24.5726 27.3351 24.4146L31.796 22.3574C32.4566 22.0688 33.2296 22.3694 33.521 23.0296C33.8131 23.6912 33.5125 24.4671 32.8509 24.7593L23.7109 28.7949C22.2626 29.4344 20.6187 29.3973 19.2007 28.6927L15.8549 27.0305C14.0721 26.1448 12.0051 26.098 10.1842 26.902L10.1185 26.9311L7.61797 21.2678L11.0895 19.7351C12.7433 19.0049 14.5887 18.946 16.2857 19.5691L23.0138 22.0399C23.6276 22.2654 23.9548 22.9521 23.7431 23.5707C23.5275 24.2013 22.8385 24.5403 22.2073 24.327L17.0045 22.5672C16.6468 22.4462 16.2589 22.6381 16.1379 22.9957C16.0169 23.3534 16.2088 23.7413 16.5664 23.8623L21.7692 25.6221C22.0417 25.7143 22.3191 25.758 22.5922 25.758C23.6653 25.758 24.671 25.0825 25.0368 24.0134C25.487 22.6972 24.791 21.2362 23.4852 20.7566L16.7571 18.2858C14.7259 17.5399 12.5171 17.6104 10.5375 18.4843L7.04361 20.027C6.84708 19.725 6.56332 19.4914 6.22077 19.3585C5.78942 19.1915 5.31877 19.2023 4.89733 19.3884L0.409199 21.3549C0.160645 21.4639 0 21.7096 0 21.9811V34.0245C0 34.2619 0.123184 34.4823 0.325391 34.6068C0.434902 34.6741 0.559043 34.7081 0.683594 34.7081C0.789004 34.7081 0.894619 34.6838 0.991758 34.6347L9.70484 30.2331C10.1192 30.0446 10.4374 29.7077 10.6021 29.2826C10.7393 28.9284 10.7565 28.5479 10.6549 28.1888L10.7364 28.1528C12.1848 27.5133 13.8286 27.5507 15.2466 28.2551L18.5924 29.9173C20.3751 30.803 22.442 30.8498 24.2631 30.0457L33.4032 26.0101C34.7545 25.4134 35.3684 23.8286 34.7718 22.4773ZM9.32723 28.7886C9.29202 28.8794 9.22359 28.9511 9.13445 28.9905C9.12358 28.9952 9.11292 29.0004 9.10232 29.0057L1.36719 32.9133V29.9209L3.38912 28.928C3.72805 28.7615 3.86784 28.3519 3.70139 28.013C3.53493 27.6741 3.12519 27.5343 2.78646 27.7007L1.36719 28.3976V22.4278L5.44742 20.6399C5.53656 20.6006 5.63568 20.5982 5.72646 20.6334C5.81731 20.6686 5.88902 20.7371 5.9284 20.8262L9.14389 28.1086C9.14416 28.1093 9.14443 28.1099 9.14471 28.1105L9.32087 28.5095C9.36018 28.5986 9.36243 28.6977 9.32723 28.7886Z" fill="#8D9986"></path></svg> 