<?xml version="1.0" encoding="UTF-8"?> <svg xmlns="http://www.w3.org/2000/svg" width="35" height="35" viewBox="0 0 41 41" fill="none"><g clip-path="url(#clip0_204_304)"><path d="M39.9189 29.7891H37.5967V28.9482C37.5967 22.2069 33.6178 16.0756 27.4599 13.328C27.1568 13.1927 26.8019 13.3288 26.6667 13.6317C26.5316 13.9346 26.6675 14.2897 26.9705 14.4248C32.696 16.9796 36.3955 22.6804 36.3955 28.9482V29.7891H30.4447C31.0095 29.1951 31.3506 28.426 31.3506 27.5869C31.3506 25.9131 29.9931 24.5177 28.2114 24.2356C28.2788 24.003 28.4114 23.7151 28.6707 23.4359C28.8964 23.1929 28.8823 22.8129 28.6393 22.5871C28.3963 22.3614 28.0162 22.3755 27.7905 22.6185C27.2677 23.1814 27.0642 23.7841 26.9875 24.2204C25.1544 24.4631 23.7432 25.8803 23.7432 27.5869C23.7432 28.426 24.0843 29.1951 24.649 29.7891H18.4661L18.4325 29.7554C19.6609 28.3151 20.2443 26.5197 20.0829 24.6387C19.8934 22.4308 18.7027 20.1732 16.6395 18.1101C15.5378 17.0084 14.068 16.0396 12.3809 15.2796C14.8317 13.8199 17.6189 13.0527 20.5 13.0527C21.8807 13.0527 23.251 13.2299 24.5727 13.5791C24.8934 13.6637 25.222 13.4726 25.3068 13.1519C25.3916 12.8312 25.2003 12.5026 24.8796 12.4178C24.0731 12.2047 23.25 12.0512 22.4179 11.9582C22.4773 11.7036 22.6068 11.4771 22.7929 11.3111C23.2894 10.8662 23.5461 10.231 23.4969 9.56717C23.4133 8.46826 22.4661 7.60742 21.3405 7.60742H19.6164C19.0531 7.60742 18.5222 7.82684 18.121 8.22547C17.711 8.62009 17.4839 9.18576 17.4977 9.77866C17.5116 10.3713 17.7645 10.9257 18.1919 11.3009C18.3881 11.481 18.5232 11.7112 18.582 11.9581C15.8744 12.2602 13.2892 13.2015 11.0099 14.7255C10.193 14.4312 9.33911 14.1845 8.4625 13.9925C6.1918 13.4952 3.17366 13.2809 2.14121 14.3135C1.70294 14.7518 1.4583 15.5768 1.41418 16.7658C1.40185 17.0973 1.66058 17.3759 1.99202 17.3882C2.32451 17.4007 2.60222 17.1418 2.61447 16.8103C2.65067 15.8356 2.83965 15.3137 2.99052 15.1629C3.36737 14.7861 5.28532 14.5264 8.20561 15.1659C11.2904 15.8414 14.0549 17.2241 15.7904 18.9595C17.6507 20.8198 18.7213 22.8192 18.8863 24.7415C19.019 26.288 18.5689 27.7154 17.5808 28.9036L15.9472 27.2701L16.9517 24.0415C17.0503 23.7248 16.8734 23.3882 16.5567 23.2896C16.2402 23.1909 15.9034 23.368 15.8049 23.6846L14.9877 26.3107L12.7677 24.0907L13.7722 20.862C13.8707 20.5453 13.6938 20.2087 13.3771 20.1101C13.0607 20.0114 12.7239 20.1885 12.6252 20.5051L11.8082 23.1312L9.67616 20.9992L10.4393 18.5464C10.5378 18.2297 10.3609 17.8931 10.0442 17.7945C9.72773 17.6958 9.39092 17.8728 9.29227 18.1895L8.71658 20.0397L7.33187 18.655C7.09732 18.4205 6.71703 18.4205 6.48256 18.655C6.24802 18.8896 6.24802 19.2698 6.48256 19.5044L7.86728 20.8891L6.01707 21.4648C5.70036 21.5633 5.52347 21.8999 5.62196 22.2167C5.70204 22.474 5.93923 22.639 6.19524 22.639C6.25434 22.639 6.31448 22.6302 6.37382 22.6117L8.82669 21.8485L10.9587 23.9805L8.33269 24.7976C8.01598 24.8961 7.83909 25.2329 7.93758 25.5496C8.01766 25.8069 8.25485 25.9718 8.51086 25.9718C8.56996 25.9718 8.6301 25.9631 8.68944 25.9445L11.9181 24.94L14.1381 27.1601L11.5121 27.9772C11.1954 28.0757 11.0185 28.4124 11.117 28.7291C11.1971 28.9864 11.4343 29.1514 11.6903 29.1514C11.7494 29.1514 11.8095 29.1427 11.8689 29.1241L15.0975 28.1196L16.7307 29.7529C16.716 29.7651 16.7012 29.7772 16.6864 29.7893H9.03954C8.27543 29.308 7.51797 28.6939 6.78678 27.9627C4.81798 25.994 3.32148 22.7401 2.78376 19.2588C2.73315 18.9309 2.42637 18.7066 2.09853 18.7569C1.77077 18.8075 1.54607 19.1142 1.59668 19.4421C1.94782 21.7154 2.68918 23.9061 3.70081 25.7554C3.5035 26.8013 3.40332 27.875 3.40332 28.9482V29.7891H1.08105C0.484953 29.7891 0 30.274 0 30.8701C0 32.261 1.13158 33.3926 2.52246 33.3926H33.3187C33.6503 33.3926 33.9193 33.1238 33.9193 32.792C33.9193 32.4602 33.6503 32.1914 33.3187 32.1914H2.52246C1.83435 32.1914 1.26748 31.6627 1.20654 30.9902H39.7934C39.7325 31.6627 39.1656 32.1914 38.4775 32.1914H35.8688C35.5371 32.1914 35.2682 32.4602 35.2682 32.792C35.2682 33.1238 35.5371 33.3926 35.8688 33.3926H38.4775C39.8684 33.3926 41 32.261 41 30.8701C41 30.274 40.515 29.7891 39.9189 29.7891ZM18.9965 10.4089C18.9932 10.4059 18.9899 10.4029 18.9865 10.4C18.8096 10.2459 18.7046 10.0093 18.6986 9.75063C18.6926 9.49222 18.7863 9.25111 18.9559 9.08903C18.9591 9.0859 18.9622 9.08286 18.9654 9.07974C19.1404 8.90485 19.3715 8.80859 19.6164 8.80859H21.3405C21.8419 8.80859 22.263 9.18184 22.2991 9.6571C22.3205 9.94538 22.2083 10.2221 21.9923 10.4157C21.5761 10.7869 21.303 11.3009 21.2127 11.8663C20.9755 11.8565 20.7378 11.8516 20.4999 11.8516C20.2616 11.8516 20.0239 11.8564 19.787 11.8662C19.7003 11.3141 19.4229 10.7972 18.9965 10.4089ZM24.9443 27.5869C24.9443 26.3741 26.1092 25.3871 27.5419 25.3848H27.5462C27.5477 25.3848 27.5492 25.3848 27.5507 25.3847C28.984 25.3864 30.1494 26.3737 30.1494 27.5868C30.1494 28.8011 28.9819 29.789 27.5469 29.789C26.1119 29.789 24.9443 28.8011 24.9443 27.5869ZM4.60449 28.9482C4.60449 28.4065 4.63196 27.8649 4.68633 27.3273C5.07839 27.873 5.49704 28.3713 5.93771 28.8119C6.28805 29.1623 6.64488 29.4884 7.00644 29.7891H4.60449V28.9482Z" fill="#8D9986"></path></g><defs><clipPath id="clip0_204_304"><rect width="41" height="41" fill="white"></rect></clipPath></defs></svg> 