<?xml version="1.0" encoding="UTF-8"?> <svg xmlns="http://www.w3.org/2000/svg" width="35" height="35" viewBox="0 0 27 27" fill="none"><path d="M26.4727 21.7621H25.4265V11.0243C26.0429 10.5492 26.4407 9.8037 26.4407 8.96707V6.14051C26.4407 6.13555 26.4379 6.01727 26.3988 5.93263L24.725 1.74599C24.6449 1.54571 24.451 1.4144 24.2353 1.4144H2.7646C2.54892 1.4144 2.35501 1.54571 2.27491 1.74599L0.601172 5.93263C0.562096 6.0083 0.559301 6.13555 0.559301 6.14051V8.96707C0.559301 9.8037 0.957129 10.5492 1.57349 11.0243V21.762H0.527344C0.236092 21.762 0 21.9981 0 22.2894V25.0582C0 25.3494 0.236092 25.5855 0.527344 25.5855H11.1161C11.4073 25.5855 11.6434 25.3494 11.6434 25.0582C11.6434 24.7669 11.4073 24.5308 11.1161 24.5308H1.05469V22.8167H25.9453V24.5308H15.884C15.5927 24.5308 15.3566 24.7669 15.3566 25.0582C15.3566 25.3494 15.5927 25.5855 15.884 25.5855H26.4727C26.7639 25.5855 27 25.3494 27 25.0582V22.2894C27 21.9982 26.7639 21.7621 26.4727 21.7621ZM21.2482 8.96707C21.2482 9.8171 20.5567 10.5086 19.7067 10.5086C18.8567 10.5086 18.1651 9.81704 18.1651 8.96707V6.66627H21.2482V8.96707ZM17.1105 8.96707C17.1105 9.8171 16.4189 10.5086 15.5689 10.5086C14.719 10.5086 14.0273 9.8171 14.0273 8.96707V6.66627H17.1105V8.96707ZM12.9727 8.96707C12.9727 9.8171 12.2811 10.5086 11.4311 10.5086C10.5812 10.5086 9.88959 9.81704 9.88959 8.96707V6.66627H12.9727V8.96707ZM8.83491 8.96707C8.83491 9.8171 8.14335 10.5086 7.29338 10.5086C6.4434 10.5086 5.75184 9.81704 5.75184 8.96707V6.66627H8.83496V8.96707H8.83491ZM1.61399 8.96707V6.66627H4.69705V8.96707C4.69705 9.8171 4.00549 10.5086 3.15552 10.5086C2.30555 10.5086 1.61399 9.8171 1.61399 8.96707ZM9.31927 2.46909L8.90051 5.61158H5.91073L6.74826 2.46909H9.31927ZM14.0273 2.46909H16.6167L17.0355 5.61158H14.0273V2.46909ZM20.2517 2.46909L21.0893 5.61158H18.0995L17.6808 2.46909H20.2517ZM22.3029 6.66627H25.386V8.96707C25.386 9.8171 24.6944 10.5086 23.8444 10.5086C22.9945 10.5086 22.3029 9.81704 22.3029 8.96707V6.66627ZM25.1346 5.61158H22.1807L21.3432 2.46909H23.8782L25.1346 5.61158ZM12.9727 5.61158H9.96453L10.3833 2.46909H12.9727V5.61158ZM3.12172 2.46909H5.65676L4.81924 5.61158H1.86543L3.12172 2.46909ZM5.15747 21.7621V14.0875H10.6134V21.762H5.15747V21.7621ZM11.6681 21.7621V13.5601C11.6681 13.2689 11.432 13.0328 11.1408 13.0328H4.63013C4.33888 13.0328 4.10279 13.2689 4.10279 13.5601V21.762H2.62818V11.5094C2.79851 11.5447 2.9749 11.5633 3.15552 11.5633C3.99906 11.5633 4.74984 11.1589 5.22439 10.5338C5.6989 11.1589 6.44973 11.5633 7.29327 11.5633C8.13681 11.5633 8.88764 11.1589 9.36214 10.5338C9.83665 11.1589 10.5875 11.5633 11.431 11.5633C12.2746 11.5633 13.0254 11.1589 13.4999 10.5338C13.9744 11.1589 14.7252 11.5633 15.5688 11.5633C16.4123 11.5633 17.1631 11.1589 17.6376 10.5338C18.1121 11.1589 18.863 11.5633 19.7065 11.5633C20.5501 11.5633 21.3009 11.1589 21.7754 10.5338C22.2499 11.1589 23.0007 11.5633 23.8443 11.5633C24.0249 11.5633 24.2013 11.5447 24.3716 11.5094V21.762H11.6681V21.7621Z" fill="#8D9986"></path><path d="M22.3698 13.0328H14.1702C13.8789 13.0328 13.6428 13.2689 13.6428 13.5601V19.2958C13.6428 19.5871 13.8789 19.8232 14.1702 19.8232H22.3698C22.6611 19.8232 22.8972 19.5871 22.8972 19.2958V13.5601C22.8972 13.2689 22.6611 13.0328 22.3698 13.0328ZM21.8425 18.7685H18.2225L19.1114 17.8795C19.3174 17.6736 19.3174 17.3397 19.1114 17.1337C18.9055 16.9278 18.5716 16.9278 18.3656 17.1337L16.7308 18.7685H14.6975V14.0875H21.8424V18.7685H21.8425Z" fill="#8D9986"></path><path d="M15.9585 17.7674C15.8235 17.7674 15.6885 17.716 15.5856 17.613C15.3797 17.407 15.3797 17.0731 15.5856 16.8671L17.6857 14.767C17.8917 14.5611 18.2256 14.5611 18.4316 14.767C18.6375 14.9729 18.6375 15.3068 18.4316 15.5128L16.3314 17.613C16.2284 17.716 16.0934 17.7674 15.9585 17.7674Z" fill="#8D9986"></path><path d="M13.5095 25.5856C13.286 25.5856 13.0825 25.4386 13.0106 25.2276C12.9407 25.0221 13.0074 24.7886 13.175 24.6507C13.347 24.5091 13.5986 24.4923 13.7878 24.6102C13.9719 24.7251 14.0696 24.9478 14.0268 25.1611C13.9779 25.4044 13.7581 25.5856 13.5095 25.5856Z" fill="#8D9986"></path></svg> 