<?xml version="1.0" encoding="UTF-8"?> <svg xmlns="http://www.w3.org/2000/svg" width="35" height="35" viewBox="0 0 51 51" fill="none"><path d="M17.6094 11.5377C18.049 11.5377 18.4067 11.8373 18.4067 12.2054C18.4067 12.5397 18.6778 12.8109 19.0122 12.8109C19.3465 12.8109 19.6176 12.5397 19.6176 12.2054C19.6176 11.3669 19.0272 10.655 18.2148 10.4142V10.3301C18.2148 9.99574 17.9437 9.72461 17.6094 9.72461C17.275 9.72461 17.0039 9.99574 17.0039 10.3301V10.4142C16.1915 10.6551 15.6011 11.3669 15.6011 12.2054C15.6011 13.2412 16.502 14.0839 17.6094 14.0839C18.049 14.0839 18.4067 14.3834 18.4067 14.7515C18.4067 15.1196 18.049 15.4192 17.6094 15.4192C17.1697 15.4192 16.812 15.1196 16.812 14.7515C16.812 14.4172 16.5409 14.146 16.2065 14.146C15.8722 14.146 15.6011 14.4172 15.6011 14.7515C15.6011 15.59 16.1915 16.3019 17.0039 16.5427V16.627C17.0039 16.9613 17.275 17.2324 17.6094 17.2324C17.9437 17.2324 18.2148 16.9613 18.2148 16.627V16.5428C19.0272 16.3019 19.6176 15.5901 19.6176 14.7516C19.6176 13.7157 18.7167 12.873 17.6094 12.873C17.1697 12.873 16.812 12.5736 16.812 12.2055C16.812 11.8373 17.1697 11.5377 17.6094 11.5377Z" fill="#8D9986"></path><path d="M29.2344 23.6038H26.4672C22.8826 23.6038 19.9664 26.52 19.9664 30.1046V32.621L18.2148 34.3725V19.9285C21.5042 19.6221 24.0879 16.8466 24.0879 13.4785C24.0879 12.7811 23.9776 12.0947 23.7599 11.4382C23.6547 11.1207 23.3117 10.9489 22.9947 11.054C22.6772 11.1592 22.5053 11.5018 22.6104 11.8192C22.7873 12.3525 22.877 12.9108 22.877 13.4785C22.877 16.3831 20.5139 18.7461 17.6094 18.7461C14.7048 18.7461 12.3418 16.3831 12.3418 13.4785C12.3418 10.574 14.7048 8.21094 17.6094 8.21094C18.144 8.21094 18.6711 8.29056 19.176 8.44768C19.4951 8.54697 19.8346 8.36866 19.934 8.0494C20.0334 7.73013 19.855 7.39071 19.5357 7.29135C18.9142 7.09803 18.2661 7 17.6094 7C14.0371 7 11.1309 9.90625 11.1309 13.4785C11.1309 16.8466 13.7145 19.6221 17.0039 19.9285V29.1517L15.2523 27.4002V24.8839C15.2523 21.2993 12.3361 18.3831 8.75155 18.3831H5.98438C5.65004 18.3831 5.37891 18.6542 5.37891 18.9885V21.7557C5.37891 25.3403 8.29515 28.2565 11.8797 28.2565H14.3961L17.0039 30.8642V36.7891H10.9395C10.6051 36.7891 10.334 37.0602 10.334 37.3945C10.334 37.7289 10.6051 38 10.9395 38H24.2793C24.6136 38 24.8847 37.7289 24.8847 37.3945C24.8847 37.0602 24.6136 36.7891 24.2793 36.7891H18.2148V36.0851L20.8227 33.4773H23.339C26.9236 33.4773 29.8398 30.561 29.8398 26.9765V24.2092C29.8398 23.8749 29.5687 23.6038 29.2344 23.6038ZM11.8797 27.0455C8.96286 27.0455 6.58984 24.6725 6.58984 21.7556V19.5939H8.75155C11.6684 19.5939 14.0414 21.9669 14.0414 24.8838V26.1892L11.3676 23.5154C11.1311 23.279 10.7478 23.279 10.5113 23.5154C10.2748 23.7518 10.2748 24.1352 10.5113 24.3717L13.1852 27.0455H11.8797ZM28.6289 26.9765C28.6289 29.8933 26.2559 32.2663 23.339 32.2663H22.0337L24.7075 29.5926C24.9439 29.3561 24.9439 28.9728 24.7075 28.7363C24.471 28.5 24.0878 28.4999 23.8512 28.7363L21.1773 31.4101V30.1046C21.1773 27.1878 23.5504 24.8148 26.4672 24.8148H28.6289V26.9765Z" fill="#8D9986"></path><path d="M21.7495 9.91833C21.9088 9.91833 22.065 9.85355 22.1776 9.74087C22.2901 9.62832 22.355 9.4721 22.355 9.31287C22.355 9.15357 22.2902 8.99742 22.1776 8.8848C22.065 8.77218 21.9088 8.7074 21.7495 8.7074C21.5903 8.7074 21.4341 8.77212 21.3214 8.8848C21.2089 8.99742 21.144 9.15357 21.144 9.31287C21.144 9.4721 21.2088 9.62832 21.3214 9.74087C21.4341 9.85355 21.5903 9.91833 21.7495 9.91833Z" fill="#8D9986"></path></svg> 