<?xml version="1.0" encoding="UTF-8"?> <svg xmlns="http://www.w3.org/2000/svg" width="35" height="35" viewBox="0 0 38 38" fill="none"><path d="M0.59375 32.6562H37.4062V33.8438H0.59375V32.6562Z" fill="#8D9986"></path><path d="M6.53125 35.0312H37.4062V36.2188H6.53125V35.0312Z" fill="#8D9986"></path><path d="M14.25 26.6109C14.4075 26.6109 14.5585 26.5483 14.6698 26.437C14.7812 26.3256 14.8438 26.1746 14.8438 26.0172V23.8578C14.8438 23.7004 14.7812 23.5494 14.6698 23.438C14.5585 23.3267 14.4075 23.2641 14.25 23.2641H13.498C13.408 22.9856 13.2955 22.7149 13.1617 22.4547L13.6942 21.9221C13.7494 21.8669 13.7931 21.8015 13.823 21.7295C13.8528 21.6574 13.8682 21.5802 13.8682 21.5023C13.8682 21.4243 13.8528 21.3471 13.823 21.275C13.7931 21.203 13.7494 21.1376 13.6942 21.0825L12.1681 19.5563C12.113 19.501 12.0475 19.4572 11.9755 19.4272C11.9034 19.3973 11.8261 19.3818 11.748 19.3818H11.7477C11.5903 19.3819 11.4393 19.4444 11.3279 19.5558L10.7953 20.0884C10.5351 19.9546 10.2644 19.8421 9.9859 19.7521V19C9.9859 18.8425 9.92335 18.6915 9.812 18.5802C9.70065 18.4688 9.54962 18.4062 9.39215 18.4062H7.23285C7.07538 18.4062 6.92435 18.4688 6.813 18.5802C6.70165 18.6915 6.6391 18.8425 6.6391 19V19.752C6.36062 19.842 6.08992 19.9545 5.82965 20.0884L5.29706 19.5558C5.24194 19.5006 5.17649 19.4569 5.10446 19.427C5.03243 19.3972 4.95523 19.3818 4.87726 19.3818C4.79929 19.3818 4.72208 19.3972 4.65005 19.427C4.57802 19.4569 4.51257 19.5006 4.45745 19.5558L2.93075 21.0825C2.8756 21.1376 2.83186 21.203 2.80201 21.2751C2.77216 21.3471 2.7568 21.4243 2.7568 21.5023C2.7568 21.5802 2.77216 21.6574 2.80201 21.7295C2.83186 21.8015 2.8756 21.867 2.93075 21.9221L3.46334 22.4547C3.32955 22.715 3.21708 22.9857 3.12704 23.2641H2.375C2.21753 23.2641 2.06651 23.3267 1.95516 23.438C1.84381 23.5494 1.78125 23.7004 1.78125 23.8579V26.0172C1.78125 26.1746 1.84381 26.3257 1.95516 26.437C2.06651 26.5484 2.21753 26.6109 2.375 26.6109H3.12704C3.21704 26.8894 3.32951 27.1601 3.46334 27.4203L2.93075 27.9529C2.8756 28.0081 2.83186 28.0735 2.80201 28.1455C2.77216 28.2176 2.7568 28.2948 2.7568 28.3727C2.7568 28.4507 2.77216 28.5279 2.80201 28.6C2.83186 28.672 2.8756 28.7374 2.93075 28.7925L4.45747 30.3192C4.51259 30.3744 4.57803 30.4181 4.65007 30.448C4.7221 30.4778 4.7993 30.4932 4.87727 30.4932C4.95524 30.4932 5.03245 30.4778 5.10448 30.448C5.17651 30.4181 5.24196 30.3744 5.29708 30.3192L5.82967 29.7867C6.08995 29.9204 6.36066 30.0329 6.63912 30.123V30.875C6.63912 31.0325 6.70167 31.1835 6.81302 31.2948C6.92437 31.4062 7.07539 31.4688 7.23287 31.4688H9.39217C9.47014 31.4688 9.54735 31.4534 9.61939 31.4236C9.69142 31.3937 9.75688 31.35 9.81201 31.2948C9.86715 31.2397 9.91088 31.1743 9.94072 31.1022C9.97056 31.0302 9.98592 30.953 9.98592 30.875V30.123C10.2644 30.033 10.5351 29.9205 10.7954 29.7866L11.328 30.3192C11.3831 30.3744 11.4485 30.4181 11.5206 30.448C11.5926 30.4778 11.6698 30.4932 11.7478 30.4932C11.8257 30.4932 11.9029 30.4778 11.975 30.448C12.047 30.4181 12.1124 30.3744 12.1676 30.3192L13.6942 28.7925C13.7494 28.7374 13.7931 28.672 13.823 28.5999C13.8528 28.5279 13.8682 28.4507 13.8682 28.3727C13.8682 28.2948 13.8528 28.2176 13.823 28.1455C13.7931 28.0735 13.7494 28.008 13.6942 27.9529L13.1617 27.4203C13.2954 27.16 13.4079 26.8893 13.498 26.6109L14.25 26.6109ZM12.3739 26.2271C12.3006 26.4572 12.2078 26.6807 12.0965 26.895C11.9822 27.1083 11.9391 27.3525 11.9736 27.592C12.0081 27.8315 12.1183 28.0537 12.2881 28.226L12.4348 28.3727L11.7477 29.0598L11.601 28.9131C11.4289 28.7431 11.2067 28.6327 10.9672 28.5982C10.7277 28.5638 10.4835 28.607 10.2703 28.7215C10.0558 28.8328 9.83227 28.9256 9.60205 28.9989C9.37093 29.0692 9.16831 29.2115 9.02374 29.405C8.87917 29.5986 8.80022 29.8333 8.7984 30.0748V30.2812H7.8266V30.0748C7.82478 29.8333 7.74583 29.5986 7.60126 29.4051C7.45669 29.2115 7.25407 29.0692 7.02295 28.999C6.7928 28.9256 6.56933 28.8328 6.35498 28.7215C6.14174 28.6071 5.89748 28.564 5.65797 28.5985C5.41846 28.633 5.19628 28.7432 5.02397 28.9131L4.87728 29.0598L4.19017 28.3727L4.33687 28.226C4.50668 28.0537 4.61689 27.8316 4.65138 27.5922C4.68587 27.3527 4.64282 27.1085 4.52853 26.8953C4.41726 26.6808 4.32444 26.4573 4.25108 26.2271C4.1808 25.9959 4.03852 25.7933 3.84498 25.6487C3.65144 25.5042 3.41677 25.4252 3.17521 25.4234H2.96875V24.4516H3.17517C3.41674 24.4498 3.65141 24.3708 3.84494 24.2263C4.03848 24.0817 4.18077 23.8791 4.25105 23.6479C4.32435 23.4178 4.41717 23.1943 4.5285 22.98C4.6428 22.7667 4.68586 22.5225 4.65138 22.283C4.6169 22.0435 4.50669 21.8213 4.33686 21.649L4.19016 21.5023L4.87727 20.8152L5.02397 20.9619C5.19628 21.1317 5.4184 21.2419 5.65784 21.2763C5.89728 21.3108 6.14147 21.2678 6.35469 21.1535C6.56916 21.0422 6.79272 20.9494 7.02294 20.8761C7.25406 20.8058 7.45669 20.6635 7.60126 20.47C7.74583 20.2764 7.82478 20.0417 7.82659 19.8002V19.5938H8.7984V19.8002C8.80021 20.0417 8.87916 20.2764 9.02373 20.4699C9.1683 20.6635 9.37092 20.8058 9.60205 20.876C9.83219 20.9494 10.0557 21.0422 10.27 21.1535C10.4833 21.2678 10.7275 21.3108 10.967 21.2763C11.2065 21.2419 11.4287 21.1317 11.601 20.9619L11.7477 20.8155L12.4348 21.5023L12.2881 21.649C12.1183 21.8213 12.0081 22.0434 11.9736 22.2828C11.9391 22.5223 11.9822 22.7665 12.0965 22.9797C12.2078 23.1942 12.3006 23.4177 12.3739 23.6479C12.4442 23.8791 12.5865 24.0817 12.78 24.2263C12.9736 24.3708 13.2082 24.4498 13.4498 24.4516H13.6562V25.4234H13.4498C13.2083 25.4252 12.9736 25.5042 12.7801 25.6487C12.5865 25.7933 12.4442 25.9959 12.3739 26.2271Z" fill="#8D9986"></path><path d="M8.3125 21.6719C7.66662 21.6719 7.03525 21.8634 6.49822 22.2222C5.96119 22.5811 5.54262 23.0911 5.29546 23.6878C5.04829 24.2845 4.98362 24.9411 5.10962 25.5746C5.23563 26.2081 5.54665 26.7899 6.00336 27.2466C6.46006 27.7034 7.04194 28.0144 7.67541 28.1404C8.30888 28.2664 8.96549 28.2017 9.5622 27.9545C10.1589 27.7074 10.6689 27.2888 11.0278 26.7518C11.3866 26.2148 11.5781 25.5834 11.5781 24.9375C11.5771 24.0717 11.2328 23.2416 10.6206 22.6294C10.0084 22.0172 9.1783 21.6729 8.3125 21.6719ZM8.3125 27.0156C7.90149 27.0156 7.4997 26.8937 7.15796 26.6654C6.81621 26.4371 6.54985 26.1125 6.39256 25.7328C6.23528 25.353 6.19412 24.9352 6.27431 24.5321C6.35449 24.129 6.55241 23.7587 6.84304 23.468C7.13368 23.1774 7.50396 22.9795 7.90708 22.8993C8.3102 22.8191 8.72804 22.8603 9.10777 23.0176C9.48749 23.1749 9.81205 23.4412 10.0404 23.783C10.2687 24.1247 10.3906 24.5265 10.3906 24.9375C10.39 25.4884 10.1708 26.0166 9.78122 26.4062C9.39164 26.7958 8.86345 27.015 8.3125 27.0156Z" fill="#8D9986"></path><path d="M17.2188 15.4375C17.0613 15.4375 16.9103 15.5001 16.7989 15.6114C16.6876 15.7228 16.625 15.8738 16.625 16.0312V30.875C16.625 31.0325 16.6876 31.1835 16.7989 31.2948C16.9103 31.4062 17.0613 31.4688 17.2188 31.4688H21.375C21.5325 31.4688 21.6835 31.4062 21.7948 31.2948C21.9062 31.1835 21.9688 31.0325 21.9688 30.875V16.0312C21.9688 15.8738 21.9062 15.7228 21.7948 15.6114C21.6835 15.5001 21.5325 15.4375 21.375 15.4375H17.2188ZM20.7812 30.2812H17.8125V16.625H20.7812V30.2812Z" fill="#8D9986"></path><path d="M24.3438 16.625C24.1863 16.625 24.0353 16.6876 23.9239 16.7989C23.8126 16.9103 23.75 17.0613 23.75 17.2188V30.875C23.75 31.0325 23.8126 31.1835 23.9239 31.2948C24.0353 31.4062 24.1863 31.4688 24.3438 31.4688H28.5C28.6575 31.4688 28.8085 31.4062 28.9198 31.2948C29.0312 31.1835 29.0938 31.0325 29.0938 30.875V17.2188C29.0938 17.0613 29.0312 16.9103 28.9198 16.7989C28.8085 16.6876 28.6575 16.625 28.5 16.625H24.3438ZM27.9062 30.2812H24.9375V17.8125H27.9062V30.2812Z" fill="#8D9986"></path><path d="M31.4688 10.0938C31.3113 10.0938 31.1603 10.1563 31.0489 10.2677C30.9376 10.379 30.875 10.53 30.875 10.6875V30.875C30.875 31.0325 30.9376 31.1835 31.0489 31.2948C31.1603 31.4062 31.3113 31.4688 31.4688 31.4688H35.625C35.7825 31.4688 35.9335 31.4062 36.0448 31.2948C36.1562 31.1835 36.2188 31.0325 36.2188 30.875V10.6875C36.2188 10.53 36.1562 10.379 36.0448 10.2677C35.9335 10.1563 35.7825 10.0938 35.625 10.0938H31.4688ZM35.0312 30.2812H32.0625V11.2812H35.0312V30.2812Z" fill="#8D9986"></path><path d="M36.2564 1.89114C36.1755 1.82225 36.0776 1.77635 35.9729 1.75825C35.8682 1.74014 35.7605 1.75049 35.6612 1.78821L32.4457 3.00731C32.3479 3.04435 32.2617 3.10656 32.1956 3.18766C32.1296 3.26875 32.0862 3.36585 32.0697 3.46913C32.0533 3.57241 32.0644 3.6782 32.1019 3.77579C32.1395 3.87339 32.2022 3.95933 32.2836 4.02492L33.0487 4.64114L26.9491 11.37C26.6265 11.262 26.2791 11.2523 25.9509 11.3418C25.6227 11.4314 25.3284 11.6164 25.1054 11.8732L21.0636 10.544C21.0431 10.2878 20.9672 10.0392 20.8412 9.81519C20.7153 9.5912 20.5423 9.39719 20.3341 9.24654C20.1259 9.0959 19.8875 8.9922 19.6353 8.94261C19.3832 8.89302 19.1233 8.89871 18.8735 8.95929C18.6238 9.01987 18.3902 9.1339 18.1888 9.29352C17.9874 9.45313 17.823 9.65453 17.707 9.88383C17.591 10.1131 17.5261 10.3649 17.5168 10.6217C17.5074 10.8785 17.5539 11.1342 17.6531 11.3713L13.2451 15.603L14.0673 16.4595L18.4548 12.2474C18.7125 12.3906 19.002 12.4667 19.2968 12.4688C19.5857 12.4685 19.8702 12.398 20.1257 12.2632C20.3812 12.1284 20.6 11.9334 20.7633 11.6951L24.6496 12.9732C24.6481 13.0034 24.6406 13.0319 24.6406 13.0625C24.64 13.3406 24.7046 13.6149 24.829 13.8635C24.9535 14.1121 25.1344 14.3281 25.3574 14.4943C25.5803 14.6604 25.839 14.7721 26.1128 14.8203C26.3866 14.8686 26.6679 14.852 26.9342 14.7721C27.2005 14.6921 27.4444 14.5509 27.6463 14.3598C27.8482 14.1686 28.0026 13.9329 28.0971 13.6714C28.1916 13.4099 28.2235 13.1299 28.1904 12.8539C28.1573 12.5778 28.06 12.3134 27.9063 12.0817L33.9749 5.3871L34.8303 6.07609C34.9096 6.14 35.0041 6.18244 35.1045 6.1993C35.205 6.21617 35.3081 6.2069 35.4039 6.17239C35.4998 6.13789 35.5851 6.0793 35.6517 6.00226C35.7184 5.92523 35.7641 5.83234 35.7845 5.73254L36.4532 2.46229C36.4746 2.35818 36.4676 2.25025 36.433 2.14978C36.3983 2.04931 36.3374 1.95998 36.2564 1.89114ZM19.2968 11.2813C19.1794 11.2813 19.0646 11.2464 18.967 11.1812C18.8693 11.1159 18.7932 11.0232 18.7483 10.9147C18.7034 10.8062 18.6916 10.6868 18.7145 10.5717C18.7374 10.4565 18.794 10.3507 18.877 10.2677C18.96 10.1846 19.0658 10.1281 19.181 10.1052C19.2962 10.0823 19.4156 10.094 19.5241 10.1389C19.6326 10.1839 19.7253 10.26 19.7905 10.3576C19.8558 10.4553 19.8906 10.5701 19.8906 10.6875C19.8904 10.8449 19.8278 10.9958 19.7165 11.1071C19.6052 11.2184 19.4543 11.281 19.2968 11.2813ZM26.4218 13.6563C26.3044 13.6563 26.1896 13.6214 26.092 13.5562C25.9943 13.4909 25.9182 13.3982 25.8733 13.2897C25.8284 13.1812 25.8166 13.0618 25.8395 12.9467C25.8624 12.8315 25.919 12.7257 26.002 12.6427C26.085 12.5596 26.1908 12.5031 26.306 12.4802C26.4212 12.4573 26.5406 12.469 26.6491 12.5139C26.7576 12.5589 26.8503 12.635 26.9155 12.7326C26.9808 12.8303 27.0156 12.9451 27.0156 13.0625C27.0154 13.2199 26.9528 13.3708 26.8415 13.4821C26.7302 13.5934 26.5793 13.656 26.4218 13.6563ZM34.8164 4.5401L33.8359 3.75037L35.0739 3.281L34.8164 4.5401Z" fill="#8D9986"></path><path d="M4.15625 35.0312H5.34375V36.2188H4.15625V35.0312Z" fill="#8D9986"></path><path d="M0.59375 35.0312H2.96875V36.2188H0.59375V35.0312Z" fill="#8D9986"></path></svg> 