<?xml version="1.0" encoding="UTF-8"?> <svg xmlns="http://www.w3.org/2000/svg" width="35" height="35" viewBox="0 0 39 39" fill="none"><g clip-path="url(#clip0_204_358)"><path d="M30.0118 14.8187C30.0118 13.3554 29.1585 11.8378 27.9803 11.0749C28.1678 10.0029 27.855 8.96022 27.0916 8.19348C26.3614 7.46025 25.3483 7.09775 24.341 7.16943C24.2335 6.75452 24.0281 6.37656 23.7298 6.05046C22.9239 5.16954 21.5008 4.72287 19.5 4.72287C17.9645 4.72287 16.4833 5.04736 15.0977 5.68728C14.7158 5.86362 14.5492 6.31623 14.7255 6.69815C14.9019 7.08008 15.3543 7.24666 15.7364 7.07033C16.6898 6.63005 17.6965 6.36482 18.7383 6.27814V29.0978H16.5606C16.2481 26.3158 14.31 23.5226 12.5825 21.0347C12.4159 20.7948 12.2512 20.5576 12.09 20.3233C11.0575 18.8227 10.5117 17.0631 10.5117 15.2347C10.5117 13.921 10.789 12.6546 11.3358 11.4708C11.5122 11.0888 11.3456 10.6362 10.9637 10.4599C10.5818 10.2835 10.1292 10.4501 9.95284 10.832C9.31277 12.2175 8.98828 13.6988 8.98828 15.2346C8.98828 17.3728 9.62683 19.431 10.835 21.1868C10.9975 21.4229 11.1634 21.6619 11.3312 21.9035C12.9492 24.2338 14.7653 26.8509 15.044 29.2442C14.5273 29.4882 14.1679 30.0128 14.1679 30.6212V32.9064C14.1679 33.4688 14.4751 33.9598 14.9297 34.2237V36.7149C14.9297 37.9749 15.9548 39 17.2148 39H21.7851C23.0451 39 24.0703 37.9749 24.0703 36.7149V34.2237C24.5248 33.9597 24.832 33.4687 24.832 32.9064V30.6212C24.832 30.0118 24.4714 29.4863 23.9533 29.2429C24.052 28.3495 24.364 27.3916 24.9144 26.2877C24.9736 26.2624 25.0325 26.2354 25.091 26.206C26.1107 25.6936 26.9543 24.5032 26.7803 22.9007C26.7996 22.8935 26.819 22.8861 26.8376 22.8788C27.8864 22.4638 28.6575 21.5703 28.9003 20.4889C29.0946 19.6236 28.9426 18.733 28.483 17.9479C29.4536 17.1998 30.0118 16.0805 30.0118 14.8187ZM23.3086 30.6212V32.9064H15.6915V30.6212H23.3086ZM21.7852 37.4766H17.2149C16.7949 37.4766 16.4532 37.1349 16.4532 36.7149V34.4298H22.5469V36.7149C22.5469 37.1349 22.2052 37.4766 21.7852 37.4766ZM27.0498 17.049C26.8306 17.1536 26.6746 17.3565 26.6295 17.595C26.5844 17.8337 26.656 18.0794 26.8218 18.2567C27.3438 18.8145 27.5596 19.5064 27.4139 20.1552C27.2796 20.753 26.8652 21.2295 26.277 21.4623C25.8121 21.6462 25.0938 21.764 24.6147 21.6321C23.851 21.4275 23.748 21.1486 23.5426 20.593C23.369 20.1232 23.1312 19.4797 22.4171 18.9872C22.0708 18.7483 21.5965 18.8355 21.3576 19.1818C21.1187 19.5281 21.2059 20.0025 21.5522 20.2413C21.8553 20.4504 21.9532 20.6868 22.1137 21.1211C22.3592 21.7853 22.6954 22.695 24.2154 23.1022C24.4952 23.1793 24.7927 23.2115 25.0894 23.2115C25.1526 23.2115 25.2156 23.2096 25.2784 23.2069C25.3237 24.0564 24.8912 24.6015 24.4072 24.8447C23.9534 25.0727 23.248 25.1148 22.7527 24.4832C22.4931 24.1522 22.0142 24.0944 21.6833 24.354C21.3522 24.6136 21.2943 25.0924 21.5539 25.4234C21.9809 25.9678 22.5455 26.3193 23.159 26.459C22.7625 27.398 22.5258 28.263 22.4365 29.0977H20.2618V16.6376C22.6665 16.5971 23.3224 15.3963 23.8026 14.515C24.0434 14.0731 24.2053 13.7941 24.4891 13.6337C24.8554 13.4267 24.9845 12.962 24.7775 12.5957C24.5705 12.2295 24.1057 12.1004 23.7396 12.3074C23.0617 12.6905 22.7446 13.2726 22.4649 13.7862C22.0554 14.5378 21.756 15.0862 20.2618 15.1147V6.27418C21.3819 6.35888 22.2015 6.63683 22.6057 7.07878C22.7554 7.2424 22.8474 7.42955 22.885 7.64397C22.1328 8.12919 21.8104 8.75501 21.5827 9.37025C21.4367 9.76482 21.6382 10.203 22.0327 10.3491C22.1199 10.3813 22.2091 10.3967 22.297 10.3967C22.6065 10.3967 22.8977 10.2065 23.0114 9.89911C23.1784 9.44795 23.3553 9.0789 23.9461 8.79234C24.6572 8.54882 25.4834 8.73757 26.012 9.26841C26.3044 9.56198 26.7399 10.2043 26.3727 11.2072C26.2294 11.5985 26.4272 12.0322 26.8165 12.1808C27.7071 12.5206 28.4883 13.7532 28.4883 14.8187C28.4884 15.785 27.9506 16.6187 27.0498 17.049Z" fill="#8D9986"></path><path d="M19.5 3.1993C19.9207 3.1993 20.2617 2.85827 20.2617 2.43758V0.761719C20.2617 0.341022 19.9206 0 19.5 0C19.0794 0 18.7383 0.341022 18.7383 0.761719V2.43758C18.7383 2.85827 19.0793 3.1993 19.5 3.1993Z" fill="#8D9986"></path><path d="M12.4419 4.53298C12.583 4.77734 12.839 4.91399 13.1022 4.91399C13.2314 4.91399 13.3624 4.88101 13.4824 4.81177C13.8467 4.60146 13.9716 4.13559 13.7612 3.77126L12.9232 2.31988C12.7129 1.95548 12.247 1.83071 11.8827 2.04109C11.5184 2.2514 11.3935 2.71727 11.6039 3.0816L12.4419 4.53298Z" fill="#8D9986"></path><path d="M6.58509 8.65783L8.03647 9.49579C8.15644 9.56503 8.28738 9.59801 8.41665 9.59801C8.6799 9.59801 8.93591 9.46136 9.07698 9.217C9.28737 8.85267 9.16252 8.38681 8.79819 8.1765L7.34681 7.33853C6.98264 7.12822 6.51669 7.25299 6.30631 7.61732C6.09592 7.98165 6.22076 8.44751 6.58509 8.65783Z" fill="#8D9986"></path><path d="M7.46468 15.2346C7.46468 14.8139 7.12365 14.4729 6.70296 14.4729H5.0271C4.6064 14.4729 4.26538 14.8139 4.26538 15.2346C4.26538 15.6553 4.6064 15.9963 5.0271 15.9963H6.70296C7.12365 15.9963 7.46468 15.6553 7.46468 15.2346Z" fill="#8D9986"></path><path d="M8.03647 20.9735L6.58509 21.8114C6.22076 22.0217 6.09592 22.4876 6.30631 22.8519C6.44738 23.0963 6.70339 23.233 6.96664 23.233C7.09583 23.233 7.22684 23.2 7.34681 23.1307L8.79819 22.2928C9.16252 22.0825 9.28737 21.6167 9.07698 21.2523C8.86667 20.888 8.40073 20.7631 8.03647 20.9735Z" fill="#8D9986"></path><path d="M25.5177 4.81178C25.6377 4.8811 25.7686 4.914 25.8978 4.914C26.1611 4.914 26.4171 4.77735 26.5582 4.53299L27.3962 3.08161C27.6066 2.71728 27.4817 2.25141 27.1174 2.0411C26.753 1.83079 26.2872 1.95556 26.0769 2.31989L25.2389 3.77127C25.0285 4.13553 25.1534 4.60147 25.5177 4.81178Z" fill="#8D9986"></path><path d="M30.5832 9.598C30.7124 9.598 30.8433 9.56502 30.9633 9.49578L32.4147 8.65781C32.7791 8.4475 32.9039 7.98163 32.6935 7.6173C32.4831 7.25305 32.0176 7.12813 31.653 7.33852L30.2015 8.17648C29.8372 8.38679 29.7124 8.85266 29.9228 9.21699C30.0639 9.46135 30.3198 9.598 30.5832 9.598Z" fill="#8D9986"></path><path d="M33.973 14.4729H32.2971C31.8765 14.4729 31.5354 14.8139 31.5354 15.2346C31.5354 15.6553 31.8765 15.9963 32.2971 15.9963H33.973C34.3936 15.9963 34.7347 15.6553 34.7347 15.2346C34.7347 14.8139 34.3937 14.4729 33.973 14.4729Z" fill="#8D9986"></path><path d="M32.4147 21.8114L30.9633 20.9735C30.5988 20.7632 30.1331 20.8881 29.9228 21.2524C29.7124 21.6167 29.8372 22.0826 30.2015 22.293L31.653 23.1309C31.773 23.2001 31.9039 23.233 32.0331 23.233C32.2964 23.233 32.5524 23.0964 32.6935 22.852C32.9039 22.4876 32.7791 22.0218 32.4147 21.8114Z" fill="#8D9986"></path><path d="M12.6057 7.57855C12.185 7.57855 11.8442 7.91957 11.8442 8.34027C11.8442 8.76097 12.1855 9.10199 12.6062 9.10199C13.0269 9.10199 13.3679 8.76097 13.3679 8.34027C13.3679 7.91957 13.0269 7.57855 12.6062 7.57855H12.6057Z" fill="#8D9986"></path></g><defs><clipPath id="clip0_204_358"><rect width="39" height="39" fill="white"></rect></clipPath></defs></svg> 