<?xml version="1.0" encoding="UTF-8"?> <svg xmlns="http://www.w3.org/2000/svg" width="35" height="35" viewBox="0 0 33 33" fill="none"><g clip-path="url(#clip0_204_377)"><path d="M5.80405 25.5202C5.34206 25.5202 4.89793 25.6355 4.50391 25.852C2.42832 23.1913 1.28906 19.8861 1.28906 16.5C1.28906 8.11253 8.11253 1.28906 16.5 1.28906C17.5197 1.28906 18.5388 1.39053 19.5293 1.59068C19.8777 1.66118 20.2181 1.43559 20.2886 1.08664C20.3591 0.737686 20.1335 0.397797 19.7846 0.327049C18.7103 0.110023 17.6053 0 16.5 0C12.0928 0 7.94913 1.71632 4.83273 4.83273C1.71632 7.94913 0 12.0928 0 16.5C0 20.2073 1.25885 23.8252 3.55071 26.7256C3.25564 27.1665 3.09702 27.6846 3.09702 28.2272C3.09702 28.9503 3.37875 29.6301 3.8901 30.1412C4.40119 30.6525 5.08097 30.9342 5.80405 30.9342C6.52714 30.9342 7.20692 30.6525 7.71826 30.1412C8.22961 29.6301 8.51109 28.95 8.51109 28.2269C8.51109 27.5041 8.22961 26.8241 7.71826 26.313C7.20692 25.8016 6.52714 25.5202 5.80405 25.5202ZM6.8066 29.2297C6.53897 29.4976 6.18272 29.6452 5.80405 29.6452C5.42539 29.6452 5.06939 29.4976 4.80151 29.2297C4.53362 28.9619 4.38609 28.6059 4.38609 28.2272C4.38609 27.8483 4.53362 27.4923 4.80151 27.2244C5.06914 26.9565 5.42539 26.8092 5.80405 26.8092C6.18272 26.8092 6.53872 26.9568 6.8066 27.2244C7.07449 27.4923 7.22202 27.8483 7.22202 28.2272C7.22202 28.6059 7.07449 28.9619 6.8066 29.2297Z" fill="#8D9986"></path><path d="M29.4489 6.2736C30.1495 5.22246 30.037 3.78535 29.1102 2.85859C28.5989 2.3475 27.9191 2.06577 27.196 2.06577C26.4729 2.06577 25.7931 2.3475 25.2818 2.85859C24.7705 3.36993 24.489 4.04971 24.489 4.7728C24.489 5.49588 24.7705 6.17566 25.2818 6.687C25.7931 7.19835 26.4729 7.47983 27.196 7.47983C27.658 7.47983 28.1021 7.36452 28.4962 7.14799C30.5717 9.80895 31.711 13.1139 31.711 16.5C31.711 24.8875 24.8875 31.7109 16.5001 31.7109C15.4905 31.7109 14.4809 31.6115 13.4997 31.4151C13.1508 31.3454 12.8111 31.5717 12.7411 31.9207C12.6714 32.2699 12.8977 32.6092 13.2467 32.6792C14.3109 32.892 15.4056 33 16.5001 33C20.9073 33 25.0509 31.2837 28.1673 28.1673C31.2838 25.0509 33.0001 20.9072 33.0001 16.5C33.0001 12.7924 31.741 9.17424 29.4489 6.2736ZM26.1935 5.7756C25.9256 5.50771 25.778 5.15171 25.778 4.7728C25.778 4.39413 25.9256 4.03813 26.1935 3.77025C26.4611 3.50237 26.8174 3.35483 27.196 3.35483C27.5747 3.35483 27.9309 3.50237 28.1988 3.77025C28.7514 4.32314 28.7514 5.22271 28.1988 5.7756C27.9309 6.04323 27.5747 6.19077 27.196 6.19077C26.8171 6.19077 26.4611 6.04323 26.1935 5.7756Z" fill="#8D9986"></path><path d="M13.8403 27.5859C13.8403 27.9419 14.1291 28.2305 14.4849 28.2305H18.5149C18.8709 28.2305 19.1595 27.9419 19.1595 27.5859V26.3364C20.0069 26.1083 20.8171 25.7724 21.5785 25.3339L22.4607 26.2161C22.5815 26.3369 22.7454 26.4049 22.9166 26.4049C23.0873 26.4049 23.2515 26.3369 23.3723 26.2158L26.2209 23.3653C26.4724 23.1135 26.4724 22.7054 26.2209 22.4539L25.3397 21.5727C25.7783 20.8113 26.1141 20.0011 26.3422 19.1537H27.587C27.943 19.1537 28.2315 18.8651 28.2315 18.5091V14.479C28.2315 14.123 27.943 13.8345 27.587 13.8345H26.342C26.1139 12.9873 25.7783 12.1771 25.3397 11.4158L26.2161 10.5393C26.3369 10.4185 26.4049 10.2543 26.4049 10.0834C26.4047 9.91244 26.3367 9.74828 26.2158 9.62743L23.365 6.77891C23.1135 6.52739 22.7054 6.52739 22.4536 6.77916L21.5785 7.65456C20.8171 7.21598 20.0069 6.88012 19.1595 6.65202V5.41406C19.1595 5.05806 18.8709 4.76953 18.5149 4.76953H14.4849C14.1291 4.76953 13.8403 5.05806 13.8403 5.41406V6.65227C12.9931 6.88012 12.1829 7.21598 11.4216 7.65456L10.5462 6.77916C10.2947 6.52764 9.88654 6.52739 9.63477 6.77891L6.78423 9.62769C6.66312 9.74854 6.59515 9.91244 6.59515 10.0834C6.59515 10.2543 6.66312 10.4185 6.78397 10.5393L7.66039 11.4158C7.2218 12.1771 6.88594 12.9871 6.65784 13.8345H5.41535C5.05935 13.8345 4.77082 14.123 4.77082 14.4788L4.76856 18.5089C4.7683 18.6798 4.83628 18.844 4.95713 18.9648C5.07798 19.0857 5.24188 19.1537 5.41309 19.1537H6.65784C6.88594 20.0011 7.2218 20.8113 7.66039 21.5727L6.77919 22.4539C6.52767 22.7054 6.52742 23.1135 6.77919 23.3653L9.62772 26.2158C9.74857 26.3367 9.91247 26.4049 10.0834 26.4049H10.0837C10.2546 26.4049 10.4185 26.3369 10.5394 26.2161L11.4213 25.3339C12.1829 25.7724 12.9931 26.1083 13.8403 26.3364V27.5859ZM11.6741 23.9783C11.4191 23.8134 11.0834 23.8492 10.8684 24.0639L10.0837 24.8487L8.1463 22.9098L8.93031 22.1255C9.14507 21.9108 9.18082 21.5752 9.01591 21.3201C8.43156 20.4158 8.02067 19.4246 7.79508 18.3737C7.73113 18.0768 7.46879 17.8646 7.1649 17.8646H6.05787L6.05938 15.1236H7.1649C7.46879 15.1236 7.73113 14.9116 7.79508 14.6145C8.02067 13.5639 8.43156 12.5726 9.01591 11.6683C9.18082 11.4132 9.14507 11.0776 8.93031 10.8629L8.15134 10.0836L10.0902 8.14627L10.8684 8.92474C11.0834 9.1395 11.4188 9.175 11.6741 9.01035C12.5782 8.42599 13.5694 8.0151 14.6203 7.78951C14.9172 7.72556 15.1294 7.46297 15.1294 7.15933V6.05859H17.8704V7.15908C17.8704 7.46297 18.0824 7.72556 18.3795 7.78926C19.4301 8.0151 20.4216 8.42574 21.3257 9.01009C21.5807 9.175 21.9164 9.1395 22.1311 8.92449L22.9096 8.14627L24.8485 10.0836L24.0695 10.8626C23.8545 11.0776 23.819 11.4132 23.9839 11.6683C24.5682 12.5726 24.9789 13.5639 25.2047 14.6145C25.2684 14.9116 25.531 15.1236 25.8349 15.1236H26.9424V17.8646H25.8349C25.531 17.8646 25.2687 18.0768 25.2047 18.3737C24.9791 19.4243 24.5682 20.4158 23.9839 21.3199C23.819 21.5752 23.8547 21.9108 24.0695 22.1255L24.8535 22.9096L22.9161 24.8484L22.1314 24.0639C21.9164 23.8489 21.5807 23.8134 21.3257 23.9783C20.4213 24.5627 19.4301 24.9733 18.3795 25.1992C18.0824 25.2631 17.8704 25.5255 17.8704 25.8293V26.9414H15.1294V25.8293C15.1294 25.5257 14.9172 25.2631 14.6203 25.1992C13.5697 24.9736 12.5785 24.5627 11.6741 23.9783Z" fill="#8D9986"></path><path d="M21.8257 16.5C21.8257 13.5634 19.4367 11.1743 16.5 11.1743C13.5634 11.1743 11.1743 13.5634 11.1743 16.5C11.1743 19.4367 13.5634 21.8257 16.5 21.8257C19.4367 21.8257 21.8257 19.4367 21.8257 16.5ZM12.4634 16.5C12.4634 14.2741 14.2741 12.4634 16.5 12.4634C18.7259 12.4634 20.5366 14.2744 20.5366 16.5C20.5366 18.7257 18.7259 20.5366 16.5 20.5366C14.2741 20.5366 12.4634 18.7259 12.4634 16.5Z" fill="#8D9986"></path><path d="M22.4348 2.43764C22.6045 2.43764 22.7707 2.36866 22.8905 2.24882C23.0104 2.12822 23.0793 1.96205 23.0793 1.79236C23.0793 1.62367 23.0106 1.45725 22.8905 1.33665C22.7707 1.21681 22.6045 1.14783 22.4348 1.14783C22.2646 1.14783 22.0992 1.21681 21.9794 1.33665C21.8593 1.45725 21.7903 1.62292 21.7903 1.79236C21.7903 1.96255 21.8593 2.12822 21.9794 2.24882C22.0992 2.36866 22.2646 2.43764 22.4348 2.43764Z" fill="#8D9986"></path><path d="M10.5935 30.5739C10.4241 30.5739 10.2576 30.6429 10.1378 30.7628C10.018 30.8826 9.94897 31.049 9.94897 31.2185C9.94897 31.3887 10.018 31.5543 10.1378 31.6742C10.2576 31.794 10.4241 31.863 10.5935 31.863C10.7629 31.863 10.9294 31.794 11.0492 31.6742C11.1691 31.5543 11.238 31.3879 11.238 31.2185C11.238 31.049 11.1691 30.8826 11.0492 30.7628C10.9294 30.6429 10.7629 30.5739 10.5935 30.5739Z" fill="#8D9986"></path></g><defs><clipPath id="clip0_204_377"><rect width="33" height="33" fill="white"></rect></clipPath></defs></svg> 