<?xml version="1.0" encoding="UTF-8"?> <svg xmlns="http://www.w3.org/2000/svg" width="35" height="35" viewBox="0 0 34 35" fill="none"><g clip-path="url(#clip0_204_384)"><path d="M17 7.79297C11.8005 7.79297 7.57031 12.1475 7.57031 17.5C7.57031 22.8525 11.8005 27.207 17 27.207C22.1995 27.207 26.4297 22.8525 26.4297 17.5C26.4297 12.1475 22.1995 7.79297 17 7.79297ZM17 25.8398C12.5328 25.8398 8.89844 22.0986 8.89844 17.5C8.89844 12.9014 12.5328 9.16016 17 9.16016C21.4672 9.16016 25.1016 12.9014 25.1016 17.5C25.1016 22.0986 21.4672 25.8398 17 25.8398Z" fill="#8D9986"></path><path d="M33.6474 0.0798438C33.4305 -0.0386913 33.1677 -0.0244042 32.9641 0.1171C29.7041 2.38465 27.7578 6.15645 27.7578 10.2067V19.0764C27.7578 20.0278 28.1177 20.9222 28.7712 21.5949L30.0156 22.876V32.9492C30.0156 34.08 30.9093 35 32.0078 35C33.1063 35 34 34.08 34 32.9492V0.683594C34 0.430732 33.8644 0.198516 33.6474 0.0798438ZM32.6719 32.9492C32.6719 33.3262 32.374 33.6328 32.0078 33.6328C31.6416 33.6328 31.3438 33.3262 31.3438 32.9492V22.5928C31.3438 22.4115 31.2738 22.2376 31.1492 22.1094L29.7103 20.6281C29.3077 20.2137 29.0859 19.6626 29.0859 19.0764V10.2067C29.0859 7.06351 30.4062 4.10942 32.6719 2.07108V32.9492Z" fill="#8D9986"></path><path d="M15.4764 12.0786C15.3324 11.7314 14.9421 11.5702 14.6049 11.7183C12.3515 12.7085 10.8955 14.978 10.8955 17.5C10.8955 17.8775 11.1928 18.1836 11.5596 18.1836C11.9263 18.1836 12.2236 17.8775 12.2236 17.5C12.2236 15.5265 13.363 13.7506 15.1264 12.9758C15.4637 12.8276 15.6204 12.4259 15.4764 12.0786Z" fill="#8D9986"></path><path d="M17 11.2161L16.9665 11.2161C16.5998 11.2187 16.3044 11.5268 16.3069 11.9043C16.3094 12.2803 16.6062 12.5833 16.9709 12.5833C16.9724 12.5833 16.974 12.5833 16.9754 12.5833L17 12.5833C17.3668 12.5833 17.6641 12.2772 17.6641 11.8997C17.6641 11.5221 17.3668 11.2161 17 11.2161Z" fill="#8D9986"></path><path d="M26.2054 8.5093C25.0322 7.23672 23.6492 6.23539 22.095 5.5332C20.4855 4.80613 18.7713 4.43747 17 4.43747C14.976 4.43747 13.0411 4.91366 11.2494 5.85292C10.9226 6.02423 10.7925 6.43582 10.9589 6.77228C11.1254 7.10861 11.5252 7.24246 11.8521 7.07122C13.4554 6.23081 15.1874 5.80466 17 5.80466C20.1474 5.80466 23.0745 7.09938 25.2421 9.45047C25.3726 9.59211 25.5481 9.66348 25.7239 9.66348C25.888 9.66348 26.0524 9.6012 26.1809 9.47569C26.4469 9.21579 26.4579 8.78314 26.2054 8.5093Z" fill="#8D9986"></path><path d="M26.8501 24.6353C26.5623 24.4012 26.1448 24.4515 25.9173 24.7476C23.7463 27.5743 20.4961 29.1953 17 29.1953C14.8119 29.1953 12.6877 28.5539 10.8572 27.3402C10.5489 27.1357 10.1379 27.2274 9.93932 27.5447C9.74077 27.8622 9.82975 28.2852 10.1381 28.4896C12.1835 29.8457 14.5564 30.5625 17 30.5625C20.9047 30.5625 24.5346 28.7521 26.9591 25.5955C27.1866 25.2994 27.1378 24.8695 26.8501 24.6353Z" fill="#8D9986"></path><path d="M9.02846 25.8347L9.0187 25.8231C9.01518 25.8187 9.01166 25.8141 9.008 25.8098C8.7718 25.5209 8.35291 25.484 8.07234 25.7271C7.79178 25.9703 7.75578 26.4014 7.99206 26.6903L7.9985 26.6982L7.99883 26.6979C8.00587 26.7071 8.01317 26.7162 8.02074 26.7252C8.1521 26.8827 8.3379 26.9635 8.5249 26.9635C8.67803 26.9635 8.8319 26.9093 8.95714 26.7987C9.23538 26.5527 9.26732 26.1211 9.02846 25.8347Z" fill="#8D9986"></path><path d="M8.23438 0C7.86761 0 7.57031 0.306045 7.57031 0.683594V8.06641H6.37447C6.37454 8.06258 6.375 8.05889 6.375 8.05499V0.683594C6.375 0.306045 6.0777 0 5.71094 0C5.34418 0 5.04688 0.306045 5.04688 0.683594V8.05499C5.04688 8.05882 5.04741 8.06258 5.04741 8.06641H3.85103C3.8511 8.06258 3.85156 8.05889 3.85156 8.05499V0.683594C3.85156 0.306045 3.55426 0 3.1875 0C2.82074 0 2.52344 0.306045 2.52344 0.683594V8.05499C2.52344 8.05882 2.52397 8.06258 2.52397 8.06641H1.32812V0.683594C1.32812 0.306045 1.03082 0 0.664062 0C0.297301 0 0 0.306045 0 0.683594V9.02344C0 10.7003 0.988391 12.2137 2.45703 12.8679V32.9492C2.45703 34.08 3.35073 35 4.44922 35C5.54771 35 6.44141 34.08 6.44141 32.9492V12.8679C7.91005 12.2137 8.89844 10.7003 8.89844 9.02344V0.683594C8.89844 0.306045 8.60114 0 8.23438 0ZM5.593 11.7318C5.30891 11.8163 5.11328 12.0841 5.11328 12.3886V32.9492C5.11328 33.3262 4.81538 33.6328 4.44922 33.6328C4.08305 33.6328 3.78516 33.3262 3.78516 32.9492V12.3886C3.78516 12.0841 3.58959 11.8163 3.30544 11.7318C2.27063 11.424 1.51373 10.5096 1.35814 9.43359H7.54023C7.38471 10.5096 6.62781 11.424 5.593 11.7318Z" fill="#8D9986"></path></g><defs><clipPath id="clip0_204_384"><rect width="34" height="35" fill="white"></rect></clipPath></defs></svg> 