<?xml version="1.0" encoding="UTF-8"?> <svg xmlns="http://www.w3.org/2000/svg" width="40" height="40" viewBox="0 0 40 40" fill="none"><path d="M35.6527 26.1247C35.614 26.06 35.5733 25.998 35.5327 25.9434C35.1287 25.3787 34.528 25.0054 33.8427 24.8927C33.1606 24.78 32.4693 24.9406 31.9067 25.3447L24.4533 30.6667H16.6667C16.2993 30.6667 16 30.368 16 30.0001C16 29.6321 16.2993 29.3334 16.6667 29.3334H21C22.2867 29.3334 23.3334 28.2868 23.3334 27.0001C23.3334 26.9927 23.3327 26.9314 23.3321 26.9248C23.2907 25.6387 22.206 24.6361 20.9467 24.6668H12.2741C11.5054 24.6734 10.7567 24.9488 10.1667 25.4408L6.90675 28.1541C6.75472 28.2815 6.66675 28.4688 6.66675 28.6668V36.6668C6.66675 37.0355 6.96542 37.3334 7.33339 37.3334H23.8741C24.9567 37.3321 26.0114 36.9508 26.8448 36.2608L34.9268 29.5828C36.0247 28.8006 36.3434 27.282 35.6527 26.1247ZM34.116 28.526L25.9953 35.2334C25.3993 35.7267 24.6453 35.9987 23.8733 36H8.00003V28.9793L11.0207 26.4646C11.3753 26.1693 11.824 26.0039 12.28 25.9999L20.968 25.9993C21.5207 25.9986 21.982 26.4166 22 27C22 27.5513 21.5514 28 21 28H16.6667C15.564 28 14.6667 28.8973 14.6667 30C14.6667 31.1027 15.564 32 16.6667 32H24.6667C24.8053 32 24.9406 31.9566 25.0553 31.876L32.6833 26.4287C32.958 26.2313 33.292 26.1547 33.6267 26.208C33.9606 26.2633 34.2527 26.4446 34.4533 26.7246C34.4733 26.752 34.4913 26.7799 34.5086 26.8086C34.846 27.3734 34.6893 28.1153 34.116 28.526Z" fill="#8D9986"></path><path d="M7.31336 27.3334H0V28.6667H6.64664V38.6667H0V40H7.31336C7.68133 40 7.98 39.702 7.98 39.3334V28C7.98 27.6313 7.68133 27.3334 7.31336 27.3334Z" fill="#8D9986"></path><path d="M3.33325 33.3334C2.2306 33.3334 1.33325 34.2307 1.33325 35.3334C1.33325 36.436 2.2306 37.3334 3.33325 37.3334C4.43591 37.3334 5.33325 36.436 5.33325 35.3334C5.33325 34.2307 4.43591 33.3334 3.33325 33.3334ZM3.33325 36C2.96591 36 2.66661 35.7013 2.66661 35.3334C2.66661 34.9654 2.96591 34.6667 3.33325 34.6667C3.7006 34.6667 3.99989 34.9654 3.99989 35.3334C3.99989 35.7013 3.7006 36 3.33325 36Z" fill="#8D9986"></path><path d="M39.3334 20.6666H0.666641C0.298672 20.6666 0 20.9646 0 21.3333C0 23.9059 2.09336 25.9999 4.66664 25.9999H35.3333C37.9059 25.9999 39.9999 23.9059 39.9999 21.3333C40 20.9647 39.702 20.6666 39.3334 20.6666ZM35.3334 24.6666H4.66664C3.05664 24.6666 1.71 23.5193 1.40063 22H38.5993C38.29 23.5193 36.9434 24.6666 35.3334 24.6666Z" fill="#8D9986"></path><path d="M20.0001 3.33337C10.4428 3.33337 2.66675 11.1094 2.66675 20.6667V21.3334C2.66675 21.702 2.96542 22 3.33339 22H36.6667C37.0354 22 37.3334 21.702 37.3334 21.3334V20.6667C37.3335 11.1093 29.5581 3.33337 20.0001 3.33337ZM4.00011 20.6667C4.00011 11.8446 11.1781 4.66666 20.0001 4.66666C28.8221 4.66666 36.0001 11.8446 36.0001 20.6667H4.00011Z" fill="#8D9986"></path><path d="M9.03472 10.938C8.5687 11.462 8.13675 12.0227 7.75073 12.6053L8.86206 13.342C9.21409 12.8113 9.60737 12.2999 10.0314 11.8233L9.03472 10.938Z" fill="#8D9986"></path><path d="M20 6C16.256 6.00203 12.6913 7.41664 9.96338 9.98133L10.8767 10.9527C13.3567 8.62062 16.5974 7.33531 20.0007 7.33336L20 6Z" fill="#8D9986"></path><path d="M22 0H18V1.33336H22V0Z" fill="#8D9986"></path><path d="M20.6666 0.666626H19.3333V3.99998H20.6666V0.666626Z" fill="#8D9986"></path></svg> 