<?xml version="1.0" encoding="UTF-8"?> <svg xmlns="http://www.w3.org/2000/svg" width="30" height="30" viewBox="0 0 30 30" fill="none"><path d="M14.9478 3.81211C15.2737 3.81211 15.5379 3.54791 15.5379 3.22201V0.590098C15.5379 0.264199 15.2737 0 14.9478 0C14.6219 0 14.3577 0.264199 14.3577 0.590098V3.22201C14.3577 3.54791 14.6219 3.81211 14.9478 3.81211Z" fill="white"></path><path d="M29.372 20.2725L28.3295 19.233C27.9587 18.8627 27.4645 18.6586 26.9378 18.6586C26.6011 18.6586 26.2778 18.7424 25.9914 18.8994L24.0269 16.9373L24.1226 16.8418C24.9196 16.0432 24.9193 14.7457 24.1226 13.9499C23.8379 13.6646 23.4826 13.4744 23.0954 13.3944C23.1487 13.2104 23.1767 13.0176 23.1767 12.8203C23.1767 12.2722 22.9638 11.7582 22.5784 11.3743C22.2936 11.0891 21.9384 10.8989 21.5512 10.8189C21.6045 10.6348 21.6326 10.4421 21.6326 10.2448C21.6326 9.69655 21.4196 9.18262 21.0336 8.79819C20.742 8.50698 20.3836 8.32264 20.0072 8.24418C20.2086 7.55002 20.0365 6.76903 19.4904 6.222C19.0359 5.76936 18.419 5.57483 17.8246 5.63788L13.9319 4.90106C13.3383 4.78844 12.5969 4.71397 12.1289 5.14082C12.0994 5.16778 12.0692 5.19877 12.0396 5.23329C11.314 4.96879 10.4676 5.12629 9.88657 5.70672C9.50108 6.09174 9.28874 6.60549 9.28874 7.15334C9.28874 7.35069 9.31669 7.5434 9.36995 7.7275C8.98311 7.80748 8.62833 7.99745 8.34456 8.28174C7.95831 8.66641 7.74532 9.17957 7.74491 9.72678C7.74473 9.92459 7.7728 10.118 7.82636 10.3025C7.43934 10.3823 7.08432 10.5719 6.79968 10.8562C6.41343 11.2421 6.20073 11.7561 6.20073 12.3037C6.20073 12.7231 6.32595 13.1226 6.55798 13.4601C6.26501 13.5595 5.99665 13.7248 5.77194 13.9492C4.97448 14.7457 4.97419 16.0433 5.77247 16.843L5.8678 16.9379L3.90315 18.899C3.17302 18.5552 2.27343 18.684 1.67091 19.2858L0.627822 20.3259C0.256807 20.6965 0.0525488 21.1908 0.0524902 21.7177C0.0524902 22.2447 0.256807 22.739 0.627822 23.1097L1.9296 24.4098C2.16017 24.6402 2.53382 24.6399 2.76409 24.4094C2.99442 24.1788 2.99419 23.8052 2.76362 23.5749L1.46185 22.2747C1.31407 22.1271 1.23269 21.9293 1.23269 21.7178C1.23269 21.5063 1.31407 21.3085 1.46149 21.1613L2.50464 20.1211C2.76526 19.8607 3.16417 19.822 3.4671 20.0031C3.48843 20.0351 3.51309 20.0656 3.54134 20.0939C3.5919 20.1446 3.64962 20.1834 3.71091 20.2118L9.69292 26.1851C9.72134 26.247 9.76036 26.3053 9.81128 26.3563C9.86085 26.4059 9.91739 26.4443 9.97739 26.4725C10.1039 26.6156 10.1738 26.7982 10.1738 26.9931C10.1738 27.2047 10.0924 27.4024 9.94464 27.55L8.90255 28.5909C8.59464 28.8974 8.09378 28.8974 7.78681 28.5918L6.48503 27.2899C6.25458 27.0595 5.88099 27.0595 5.65054 27.2899C5.42009 27.5204 5.42009 27.8939 5.65054 28.1244L6.95325 29.4272C7.33669 29.8091 7.84024 29.9999 8.34403 29.9999C8.84794 29.9999 9.35208 29.8088 9.73598 29.4266L10.7787 28.3851C11.1497 28.0145 11.3541 27.5202 11.3541 26.9931C11.3541 26.617 11.2495 26.2578 11.055 25.9481L13.2661 23.7397C13.2684 23.7373 13.2708 23.7349 13.2732 23.7325C13.5264 23.4708 14.2314 23.5198 14.9133 23.5671C15.3977 23.6008 15.9378 23.6382 16.4655 23.5774L18.8869 25.9959C18.73 26.2819 18.6463 26.6047 18.6463 26.9409C18.6463 27.4674 18.8506 27.9614 19.2216 28.332L20.2644 29.3735C20.6352 29.7439 21.1294 29.9479 21.6561 29.9479C22.1826 29.9479 22.6769 29.7439 23.0477 29.3735L29.3724 23.0565C29.7434 22.686 29.9477 22.1917 29.9477 21.6647C29.9477 21.1377 29.7433 20.6434 29.372 20.2725ZM13.7122 6.06063L16.272 6.54514L14.7398 8.07672C14.5028 7.96282 14.178 7.75036 13.8216 7.40946C13.3338 6.94282 12.9849 6.40405 12.9531 6.06801C12.9531 6.06784 12.9531 6.06766 12.9531 6.06749C12.9531 6.06743 12.953 6.06737 12.953 6.06731C12.9507 6.04317 12.9501 6.02389 12.9504 6.00918C13.0276 5.99043 13.2326 5.96963 13.7122 6.06063ZM10.7205 6.54174C11.0195 6.24309 11.4839 6.20864 11.8217 6.43739C12.0131 7.24 12.6978 7.96745 13.0058 8.26217C13.2341 8.48061 13.9666 9.13551 14.7059 9.31551C14.8059 9.45889 14.8604 9.62981 14.8604 9.81016C14.8604 10.0425 14.771 10.2597 14.6082 10.4223C14.4458 10.585 14.2282 10.6745 13.9955 10.6745C13.7627 10.6745 13.5452 10.585 13.382 10.4216L13.382 10.4215L13.3817 10.4212L10.7205 7.76483C10.5582 7.60282 10.4689 7.38561 10.4689 7.15334C10.4689 6.92102 10.5583 6.70381 10.7205 6.54174ZM9.17858 9.11676C9.34095 8.95416 9.55827 8.86457 9.79065 8.86457C10.0233 8.86457 10.2414 8.95434 10.4048 9.11758L12.5477 11.2562C12.8851 11.5942 12.8851 12.1441 12.5488 12.4809C12.3856 12.6435 12.1673 12.7331 11.9341 12.7331C11.701 12.7331 11.4827 12.6435 11.3201 12.4816L11.3201 12.4816L9.69438 10.8562C9.69186 10.8537 9.68911 10.8514 9.68653 10.8488L9.17794 10.3404C9.01475 10.1774 8.92493 9.95981 8.92511 9.72766C8.92534 9.49627 9.01487 9.27977 9.17858 9.11676ZM7.6337 11.6913C7.79618 11.529 8.01397 11.4397 8.24706 11.4397C8.47821 11.4397 8.69413 11.5277 8.85591 11.6872L10.4866 13.3171C10.6492 13.479 10.7388 13.696 10.7388 13.928C10.7388 14.16 10.6492 14.377 10.4859 14.5396C10.3235 14.7017 10.1059 14.7911 9.87327 14.7911C9.64024 14.7911 9.42198 14.7015 9.25933 14.5396L8.66817 13.9491C8.66805 13.9489 8.66788 13.9488 8.66776 13.9487L7.63376 12.9159C7.47075 12.7531 7.38099 12.5356 7.38099 12.3036C7.38099 12.0716 7.47075 11.854 7.6337 11.6913ZM6.60597 14.7842C6.76915 14.6212 6.98724 14.5314 7.22003 14.5314C7.45276 14.5314 7.67079 14.6211 7.83392 14.784L8.42589 15.3753C8.58854 15.5372 8.67807 15.7542 8.67807 15.9862C8.67807 16.2183 8.58849 16.4352 8.42466 16.5984C8.26229 16.761 8.04473 16.8506 7.812 16.8506C7.57921 16.8506 7.36165 16.7611 7.19811 16.5973L7.12399 16.5234C7.123 16.5224 7.12224 16.5214 7.1213 16.5204C7.12018 16.5194 7.11901 16.5184 7.1179 16.5174L6.60655 16.008C6.26911 15.6699 6.26882 15.1209 6.60597 14.7842ZM18.6314 21.4907C18.4011 21.2601 18.0274 21.2599 17.7969 21.4902L17.2719 22.0145C16.773 22.5134 15.8691 22.4506 14.9949 22.3899C14.0457 22.324 13.0641 22.2559 12.4288 22.908L10.2553 25.0789L4.81997 19.6516L6.74348 17.7315C7.06141 17.9264 7.42827 18.0309 7.81212 18.0309C8.3605 18.0309 8.87471 17.8183 9.2588 17.4335C9.64546 17.0484 9.85845 16.5345 9.85845 15.9863C9.85845 15.9812 9.85809 15.9762 9.85809 15.9711C9.86319 15.9711 9.86829 15.9714 9.87339 15.9714C10.421 15.9714 10.9348 15.7595 11.3194 15.3753C11.7061 14.9903 11.9191 14.4763 11.9191 13.9281C11.9191 13.923 11.9187 13.918 11.9187 13.9129C11.9239 13.9129 11.929 13.9132 11.9342 13.9132C12.4817 13.9132 12.9958 13.7015 13.383 13.3159C13.7849 12.9133 13.9837 12.3833 13.9799 11.8544C13.9852 11.8544 13.9905 11.8547 13.9957 11.8547C14.5441 11.8547 15.0583 11.6422 15.443 11.2568C15.8284 10.8718 16.0408 10.358 16.0408 9.81016C16.0408 9.42702 15.9366 9.06075 15.7424 8.74346L17.4283 7.05825C17.5539 6.93315 17.7088 6.85463 17.8712 6.82223C17.8888 6.82036 17.9061 6.81754 17.9233 6.81415C18.1838 6.77823 18.4574 6.85862 18.6566 7.05702C18.994 7.39504 18.994 7.945 18.6578 8.2818L18.1444 8.79315C18.1427 8.79485 18.1408 8.79637 18.1391 8.79807L17.5478 9.38846C17.3171 9.61873 17.3169 9.99239 17.5472 10.223C17.7776 10.4536 18.1512 10.4538 18.3817 10.2235L18.8972 9.70868C18.8973 9.70856 18.8975 9.70844 18.8976 9.70832L18.9755 9.63069C19.3139 9.29541 19.8621 9.29612 20.2001 9.63368C20.3628 9.79563 20.4524 10.0126 20.4524 10.2446C20.4524 10.4766 20.3628 10.6936 20.1988 10.8568L19.6824 11.3743C19.6824 11.3743 19.6823 11.3744 19.6823 11.3745L19.0909 11.9634C18.86 12.1934 18.8593 12.5671 19.0892 12.7979C19.3192 13.0288 19.6928 13.0295 19.9237 12.7996L20.5178 12.208C20.6801 12.0453 20.8977 11.9558 21.1304 11.9558C21.3632 11.9558 21.5808 12.0453 21.7444 12.2092C21.907 12.3712 21.9965 12.5881 21.9965 12.8202C21.9965 13.0522 21.907 13.2691 21.7434 13.432L20.7139 14.4619C20.4835 14.6924 20.4836 15.066 20.714 15.2964C20.8293 15.4116 20.9802 15.4691 21.1312 15.4691C21.2823 15.4691 21.4333 15.4115 21.5485 15.2962L22.0531 14.7915C22.056 14.7888 22.0591 14.7864 22.0619 14.7835C22.2243 14.6208 22.4419 14.5313 22.6746 14.5313C22.9074 14.5313 23.1249 14.6208 23.2879 14.7841C23.625 15.1208 23.6247 15.6698 23.2879 16.0072L22.7749 16.5196C22.7747 16.5198 22.7745 16.52 22.7743 16.5201C22.7741 16.5203 22.774 16.5206 22.7738 16.5207L21.9596 17.334C21.729 17.5643 21.7288 17.9379 21.959 18.1685C22.0743 18.2839 22.2255 18.3416 22.3766 18.3416C22.5275 18.3416 22.6784 18.284 22.7936 18.169L23.1919 17.7712L25.1007 19.6778L19.6658 25.1061L17.7185 23.1611C17.8543 23.0738 17.9842 22.9711 18.1061 22.8492L18.6308 22.3251C18.8615 22.0949 18.8617 21.7213 18.6314 21.4907ZM28.5383 22.2215L22.2136 28.5385C22.0657 28.6863 21.8676 28.7676 21.656 28.7676C21.4444 28.7676 21.2463 28.6863 21.0983 28.5384L20.0555 27.4969C19.9077 27.3494 19.8264 27.1519 19.8264 26.9409C19.8264 26.73 19.9077 26.5325 20.0555 26.3849L26.3802 20.0679C26.5282 19.9201 26.7262 19.8387 26.9379 19.8387C27.1495 19.8387 27.3476 19.9201 27.4959 20.0683L28.5384 21.1078C28.6861 21.2554 28.7675 21.4531 28.7675 21.6646C28.7675 21.8762 28.6861 22.0739 28.5383 22.2215Z" fill="white"></path><path d="M7.1121 3.31464C7.22729 3.42961 7.37811 3.48703 7.52893 3.48703C7.68011 3.48703 7.83134 3.42925 7.94659 3.31377C8.1768 3.08308 8.17645 2.70949 7.94577 2.47927L5.79549 0.333277C5.56487 0.103062 5.19122 0.103355 4.961 0.334097C4.73079 0.564781 4.73114 0.938374 4.96182 1.16859L7.1121 3.31464Z" fill="white"></path><path d="M22.3665 3.48704C22.5173 3.48704 22.6683 3.4295 22.7835 3.31448L24.9321 1.16842C25.1627 0.938148 25.1629 0.564496 24.9326 0.33393C24.7023 0.103363 24.3287 0.103129 24.0981 0.333461L21.9494 2.47952C21.7189 2.70979 21.7186 3.08344 21.949 3.31401C22.0642 3.42938 22.2153 3.48704 22.3665 3.48704Z" fill="white"></path><path d="M3.68076 25.383C3.4523 25.6154 3.45547 25.9891 3.68791 26.2175L3.68961 26.2192C3.80427 26.3319 3.95316 26.388 4.10199 26.388C4.25474 26.388 4.4075 26.3289 4.52322 26.2112C4.75168 25.9788 4.74763 25.6044 4.51525 25.3759C4.28293 25.1474 3.90933 25.1507 3.68076 25.383Z" fill="white"></path><path d="M20.0745 20.6406C20.1643 20.6406 20.2553 20.6202 20.3408 20.5771C20.6318 20.4303 20.7487 20.0755 20.602 19.7845C20.4552 19.4935 20.1003 19.3766 19.8094 19.5234L19.8061 19.525C19.5151 19.6718 19.3999 20.0258 19.5466 20.3168C19.6502 20.5223 19.8585 20.6406 20.0745 20.6406Z" fill="white"></path></svg> 