<?xml version="1.0" encoding="UTF-8"?> <svg xmlns="http://www.w3.org/2000/svg" width="37" height="37" viewBox="0 0 37 37" fill="none"><g clip-path="url(#clip0_202_171)"><path d="M35.819 1.50718C34.7957 0.484177 33.2602 0.0830999 31.8673 0.477673L27.0807 1.83238C25.527 2.27204 24.1021 3.10802 22.9609 4.24925L22.9484 4.26175C22.6658 4.54351 22.6651 5.0011 22.947 5.28381C23.2288 5.56651 23.6863 5.56702 23.969 5.28525L23.9822 5.27203C24.95 4.30424 26.1575 3.59574 27.4743 3.22307L32.261 1.86836C33.1547 1.61522 34.1405 1.8727 34.797 2.52924C35.4593 3.19156 35.7123 4.16318 35.4573 5.06477L34.1025 9.85147C33.7295 11.1692 33.0206 12.3775 32.0522 13.3458L19.1177 26.2802L16.9302 24.0927L20.5802 20.4427C21.587 19.4358 21.5876 17.7525 20.5805 16.7453C19.5613 15.7261 17.9029 15.7261 16.8838 16.7453L13.2332 20.3958L11.0458 18.2084L19.5071 9.74711C19.7893 9.46491 19.7893 9.00732 19.5071 8.72505C19.2249 8.44292 18.7673 8.44292 18.485 8.72505L15.2661 11.9439L10.0937 11.2231C8.11353 10.9471 6.0879 11.6265 4.67438 13.04L2.37371 15.3407C2.09584 15.6187 2.09577 16.0846 2.37371 16.3627L4.73038 18.7194C5.50551 19.4945 6.5361 19.9214 7.63231 19.9214C8.48367 19.9214 9.29479 19.6629 9.97807 19.1848L12.2111 21.4179L10.331 23.298C10.0488 23.5802 10.0488 24.0378 10.331 24.32L13.0057 26.9947C13.2838 27.2727 13.7496 27.2728 14.0278 26.9947L15.9079 25.1146L18.141 27.3476C17.6629 28.0309 17.4044 28.842 17.4044 29.6934C17.4044 30.7896 17.8312 31.8202 18.6064 32.5952L20.9631 34.952C21.241 35.2298 21.7072 35.2299 21.9852 34.952L24.2858 32.6513C25.6993 31.2378 26.3785 29.2119 26.1026 27.2321L25.382 22.0603L33.0744 14.3679C34.2169 13.2254 35.0533 11.7998 35.4933 10.2451L36.8481 5.45826C37.2453 4.05333 36.8511 2.53943 35.819 1.50718ZM5.75244 17.6973L3.90669 15.8517L5.69636 14.062C6.79127 12.9671 8.36032 12.4406 9.89417 12.6546L13.985 13.2247L9.51231 17.6974C9.01021 18.1996 8.34254 18.4761 7.63238 18.4761C6.92222 18.4761 6.25462 18.1996 5.75244 17.6973ZM13.5168 25.4616L11.8641 23.809L13.7389 21.9342C13.7407 21.9324 13.7427 21.931 13.7445 21.9292L17.9061 17.7675C18.3617 17.3121 19.1028 17.312 19.5582 17.7675C20.0065 18.2157 20.0078 18.9708 19.5585 19.42L13.5168 25.4616ZM24.6711 27.4315C24.8848 28.9651 24.3587 30.5344 23.2637 31.6293L21.4741 33.419L19.6284 31.5732C19.1262 31.0711 18.8497 30.4035 18.8497 29.6934C18.8497 28.9842 19.1256 28.3174 19.6265 27.8155C19.6272 27.8147 19.6281 27.8141 19.6288 27.8134L24.1011 23.3411L24.6711 27.4315Z" fill="white"></path><path d="M26.7217 13.8477C27.5882 13.8477 28.4027 13.5103 29.0154 12.8977C30.2801 11.6329 30.2801 9.57503 29.0154 8.31031C27.7651 7.06011 25.6783 7.06004 24.428 8.31031C23.1776 9.56072 23.1776 11.6473 24.428 12.8977C25.0406 13.5103 25.8552 13.8477 26.7217 13.8477ZM25.45 9.33229C26.1432 8.63905 27.3001 8.63905 27.9934 9.33229C28.6946 10.0335 28.6945 11.1745 27.9934 11.8757C27.3 12.569 26.1434 12.5691 25.45 11.8757C24.7566 11.1824 24.7565 10.0256 25.45 9.33229Z" fill="white"></path><path d="M7.45078 23.5461C7.73298 23.2639 7.73298 22.8063 7.45078 22.5241C7.16859 22.242 6.711 22.2419 6.4288 22.5241L0.211648 28.7412C-0.0705493 29.0234 -0.0705493 29.481 0.211648 29.7633C0.490087 30.0416 0.955189 30.0417 1.23363 29.7633L7.45078 23.5461Z" fill="white"></path><path d="M9.18209 28.3478C8.89989 28.0656 8.4423 28.0656 8.16003 28.3478L1.06687 35.4409C0.784675 35.7231 0.784675 36.1807 1.06687 36.463C1.34531 36.7414 1.81049 36.7414 2.08893 36.463L9.18209 29.3698C9.46428 29.0876 9.46428 28.63 9.18209 28.3478Z" fill="white"></path><path d="M14.6161 28.5865L11.102 32.1005C10.8198 32.3827 10.8198 32.8403 11.102 33.1226C11.2432 33.2637 11.4281 33.3343 11.613 33.3343C11.7979 33.3343 11.9829 33.2637 12.124 33.1226L15.6381 29.6085C15.9203 29.3263 15.9203 28.8687 15.6381 28.5865C15.3559 28.3044 14.8983 28.3044 14.6161 28.5865Z" fill="white"></path><path d="M9.87088 34.8783C9.71941 34.515 9.29131 34.3363 8.92709 34.4873C8.56381 34.638 8.38525 35.0677 8.53614 35.4312C8.68695 35.7946 9.11621 35.9731 9.47992 35.8221C9.8432 35.6713 10.0223 35.242 9.87088 34.8783Z" fill="white"></path><path d="M20.5293 7.31224C20.7738 7.89955 21.6407 7.89254 21.8704 7.29562C21.9807 7.00909 21.8942 6.67132 21.6548 6.47707C21.42 6.2865 21.0851 6.26099 20.825 6.41615C20.5204 6.59782 20.3952 6.9856 20.5293 7.31224Z" fill="white"></path></g><defs><clipPath id="clip0_202_171"><rect width="37" height="37" fill="white"></rect></clipPath></defs></svg> 