<?xml version="1.0" encoding="UTF-8"?> <svg xmlns="http://www.w3.org/2000/svg" width="37" height="37" viewBox="0 0 37 37" fill="none"><g clip-path="url(#clip0_202_212)"><path d="M36.4569 34.142H33.9611V23.9795C33.9611 23.6796 33.7179 23.4364 33.418 23.4364C33.1181 23.4364 32.875 23.6796 32.875 23.9795V34.142H28.6455V16.2669C28.6455 16.1671 28.7267 16.0859 28.8265 16.0859H32.694C32.7937 16.0859 32.875 16.1671 32.875 16.2669V21.8073C32.875 22.1072 33.1181 22.3503 33.418 22.3503C33.7179 22.3503 33.9611 22.1072 33.9611 21.8073V16.2669C33.9611 15.5683 33.3927 14.9998 32.694 14.9998H28.8265C28.1279 14.9998 27.5594 15.5683 27.5594 16.2669V34.1421H25.7876V20.219C25.7876 19.5204 25.2191 18.9519 24.5204 18.9519H20.653C19.9543 18.9519 19.3859 19.5204 19.3859 20.219V34.1421H17.614V24.1711C17.614 23.4725 17.0456 22.904 16.3469 22.904H12.4795C11.7808 22.904 11.2124 23.4725 11.2124 24.1711V28.9197C11.2124 29.2196 11.4555 29.4628 11.7554 29.4628C12.0553 29.4628 12.2985 29.2196 12.2985 28.9197V24.1711C12.2985 24.0713 12.3797 23.9901 12.4795 23.9901H16.3469C16.4468 23.9901 16.5279 24.0713 16.5279 24.1711V34.142H12.2985V31.0919C12.2985 30.792 12.0553 30.5489 11.7554 30.5489C11.4555 30.5489 11.2124 30.792 11.2124 31.0919V34.142H9.4405V28.1233C9.4405 27.4246 8.87211 26.8561 8.17338 26.8561H4.30605C3.60739 26.8561 3.03892 27.4246 3.03892 28.1233V34.142H0.543053C0.243143 34.142 0 34.3852 0 34.6851C0 34.985 0.243143 35.2281 0.543053 35.2281H36.4569C36.7569 35.2281 37 34.985 37 34.6851C37 34.3852 36.7569 34.142 36.4569 34.142ZM20.472 20.219C20.472 20.1192 20.5532 20.038 20.653 20.038H24.5204C24.6202 20.038 24.7014 20.1192 24.7014 20.219V34.1421H20.472V20.219ZM4.12503 28.1233C4.12503 28.0235 4.20627 27.9422 4.30605 27.9422H8.17345C8.2733 27.9422 8.35447 28.0235 8.35447 28.1233V34.142H4.12503V28.1233Z" fill="white"></path><path d="M5.79911 20.373C5.82887 20.373 5.85892 20.3719 5.88904 20.3699C9.89402 20.0917 13.6601 19.2177 17.0829 17.7721C21.6917 15.8255 25.5072 12.8913 28.4312 9.04639L30.2615 10.319C30.622 10.5879 31.1715 10.2647 31.1118 9.8189L30.3532 2.26192C30.3285 1.9392 29.9873 1.70178 29.676 1.79062L22.321 3.70622C21.8819 3.80528 21.7701 4.43305 22.1478 4.67764L23.9948 5.96185C23.6274 6.53922 22.8177 7.68405 21.406 9.0844C21.1931 9.29569 21.1917 9.63947 21.4029 9.85235C21.6141 10.0653 21.958 10.0667 22.1708 9.85546C24.3472 7.69665 25.1689 6.11818 25.2027 6.05207C25.3268 5.81008 25.2528 5.51365 25.0295 5.35841L23.7371 4.45976L29.336 3.00156L29.9135 8.75408L28.6199 7.85471C28.3776 7.6863 28.0455 7.74205 27.8714 7.98012C25.026 11.8734 21.254 14.8314 16.6603 16.7715C12.5348 18.5139 8.48483 19.1008 5.81388 19.2863C5.65785 19.3263 5.61056 19.0398 5.76595 19.0231C11.716 17.187 16.6851 14.6057 20.5352 11.351C20.7643 11.1573 20.7929 10.8147 20.5993 10.5857C20.4058 10.3567 20.063 10.3278 19.8341 10.5215C16.0963 13.6813 11.2553 16.1925 5.44577 17.9853C4.84247 18.1715 4.48847 18.7566 4.60403 19.3766C4.71388 19.9661 5.20892 20.373 5.79911 20.373Z" fill="white"></path></g><defs><clipPath id="clip0_202_212"><rect width="37" height="37" fill="white"></rect></clipPath></defs></svg> 