<?xml version="1.0" encoding="UTF-8"?> <svg xmlns="http://www.w3.org/2000/svg" width="34" height="34" viewBox="0 0 34 34" fill="none"><g clip-path="url(#clip0_202_181)"><path d="M20.7777 9.52153C20.9074 9.65122 21.0774 9.71603 21.2473 9.71603C21.4172 9.71603 21.5872 9.65122 21.7169 9.52153C21.9762 9.26221 21.9762 8.84173 21.7169 8.58234L21.7079 8.57338C21.4486 8.31406 21.0281 8.31406 20.7687 8.57338C20.5094 8.83269 20.5094 9.25318 20.7687 9.51256L20.7777 9.52153Z" fill="white"></path><path d="M31.4909 15.8047L33.8055 13.4901C33.9954 13.3002 34.0522 13.0145 33.9494 12.7664C33.8466 12.5182 33.6045 12.3565 33.3359 12.3565H28.538C27.9108 9.78921 26.5946 7.44992 24.713 5.56823C21.9788 2.83395 18.3434 1.32812 14.4766 1.32812C10.6097 1.32812 6.97432 2.83395 4.24011 5.56823C1.50583 8.30251 0 11.9379 0 15.8047C0 19.6715 1.50583 23.3069 4.24011 26.0411C5.05318 26.8542 5.94641 27.5577 6.90127 28.1462L4.90065 31.6807C4.7843 31.8863 4.7859 32.1382 4.9049 32.3422C5.02383 32.5464 5.24224 32.6719 5.47852 32.6719H8.89844C9.1377 32.6719 9.3585 32.5432 9.47637 32.3349L10.891 29.8357C12.0487 30.1294 13.251 30.2812 14.4766 30.2812C15.7022 30.2812 16.9044 30.1294 18.0622 29.8357L19.4768 32.3349C19.5946 32.5432 19.8154 32.6719 20.0547 32.6719H23.4746C23.7109 32.6719 23.9293 32.5464 24.0483 32.3423C24.1673 32.1382 24.1689 31.8863 24.0525 31.6808L22.0519 28.1463C23.0068 27.5577 23.9 26.8543 24.7131 26.0412C26.594 24.1603 27.9109 21.82 28.538 19.253H33.3359C33.6045 19.253 33.8467 19.0911 33.9495 18.843C34.0523 18.5949 33.9954 18.3093 33.8056 18.1193L31.4909 15.8047ZM30.2767 15.1406H25.6422L27.0983 13.6846H31.7328L30.2767 15.1406ZM8.51122 31.3438H6.61745L8.06285 28.7902C8.5589 29.0358 9.06817 29.253 9.5892 29.4394L8.51122 31.3438ZM22.3357 31.3438H20.4419L19.3639 29.4394C19.885 29.253 20.3942 29.0358 20.8903 28.7902L22.3357 31.3438ZM23.7739 25.102C22.8967 25.9793 21.9169 26.7165 20.8623 27.3042C20.8492 27.3105 20.8361 27.3165 20.8233 27.3237C20.8152 27.3283 20.8079 27.3335 20.8002 27.3384C19.9911 27.7834 19.1386 28.1408 18.254 28.4047C18.2192 28.4116 18.1848 28.4218 18.1509 28.4346C16.9719 28.7758 15.7379 28.9531 14.4766 28.9531C13.2152 28.9531 11.9812 28.7758 10.8022 28.4346C10.7682 28.4219 10.7338 28.4116 10.699 28.4047C9.81445 28.1408 8.96192 27.7835 8.15296 27.3385C8.14519 27.3336 8.13789 27.3284 8.12985 27.3238C8.11703 27.3165 8.10395 27.3106 8.09094 27.3043C7.03627 26.7166 6.05652 25.9793 5.17929 25.102C2.69583 22.6186 1.32812 19.3168 1.32812 15.8047C1.32812 12.2926 2.69583 8.99074 5.17922 6.50735C7.66262 4.02395 10.9645 2.65625 14.4766 2.65625C17.9887 2.65625 21.2905 4.02395 23.7739 6.50735C25.4057 8.13915 26.5695 10.1493 27.1671 12.3565H26.8233C26.6472 12.3565 26.4782 12.4265 26.3537 12.551L24.5912 14.3135C24.4134 13.1061 24.0231 11.9322 23.4336 10.8646C23.2564 10.5435 22.8524 10.427 22.5313 10.6042C22.2102 10.7815 22.0937 11.1855 22.2709 11.5065C22.9013 12.6483 23.2535 13.8897 23.3436 15.1407H20.4156C20.2678 13.7956 19.6734 12.5495 18.7027 11.5787C17.5738 10.4498 16.073 9.82812 14.4766 9.82812C12.8802 9.82812 11.3793 10.4498 10.2505 11.5786C9.12169 12.7075 8.5 14.2083 8.5 15.8047C8.5 17.4011 9.1217 18.9019 10.2505 20.0307C11.3793 21.1596 12.8802 21.7812 14.4766 21.7812C16.073 21.7812 17.5738 21.1596 18.7026 20.0308C19.6733 19.0601 20.2677 17.8139 20.4155 16.4688H23.3407C23.1823 18.5446 22.3063 20.5591 20.7687 22.0968C19.088 23.7776 16.8534 24.7031 14.4766 24.7031C12.0997 24.7031 9.86511 23.7776 8.18444 22.0968C6.5037 20.4161 5.57812 18.1816 5.57812 15.8047C5.57812 13.4278 6.5037 11.1932 8.18444 9.51256C10.9723 6.7247 15.3272 6.10698 18.7748 8.01039C19.0958 8.18756 19.4998 8.07108 19.6771 7.75001C19.8543 7.42893 19.7378 7.02498 19.4167 6.84768C17.5145 5.79746 15.2747 5.37891 13.1101 5.66937C10.8732 5.96939 8.84511 6.97359 7.24532 8.57345C5.31376 10.505 4.25 13.0731 4.25 15.8047C4.25 18.5363 5.31376 21.1044 7.24525 23.0359C9.17681 24.9675 11.7449 26.0312 14.4766 26.0312C17.2082 26.0312 19.7763 24.9675 21.7078 23.036C23.2773 21.4666 24.273 19.4849 24.5936 17.2984L26.3537 19.0585C26.4782 19.183 26.6471 19.253 26.8232 19.253H27.1669C26.5693 21.46 25.405 23.4709 23.7739 25.102ZM16.6454 14.5525C16.462 14.2348 16.0559 14.1261 15.7383 14.3095L14.1445 15.2296C13.9391 15.3482 13.8125 15.5674 13.8125 15.8047C13.8125 16.042 13.9391 16.2612 14.1445 16.3798L15.7383 17.2999C15.8429 17.3603 15.957 17.3889 16.0697 17.3889C16.2992 17.3889 16.5224 17.2699 16.6454 17.0568C16.7532 16.8702 16.7593 16.6533 16.6822 16.4688H19.0777C18.9369 17.4584 18.4829 18.3722 17.7635 19.0916C16.8855 19.9696 15.7182 20.4531 14.4766 20.4531C13.2349 20.4531 12.0676 19.9696 11.1896 19.0916C10.3116 18.2136 9.82812 17.0464 9.82812 15.8047C9.82812 14.563 10.3116 13.3957 11.1897 12.5177C12.0676 11.6398 13.2349 11.1562 14.4766 11.1562C15.7182 11.1562 16.8855 11.6398 17.7635 12.5178C18.4829 13.2372 18.937 14.151 19.0777 15.1406H16.6823C16.7593 14.956 16.7532 14.7391 16.6454 14.5525ZM27.0983 17.9248L25.6422 16.4688H30.2767L31.7328 17.9248H27.0983Z" fill="white"></path></g><defs><clipPath id="clip0_202_181"><rect width="34" height="34" fill="white"></rect></clipPath></defs></svg> 