<?xml version="1.0" encoding="UTF-8"?> <svg xmlns="http://www.w3.org/2000/svg" width="38" height="38" viewBox="0 0 38 38" fill="none"><path d="M35.0312 16.625H35.0016C34.8621 13.7657 33.7433 11.0414 31.8329 8.90943C29.9225 6.77742 27.3369 5.36748 24.51 4.91625C24.7585 4.56022 24.9047 4.14287 24.9326 3.70959C24.9605 3.2763 24.8691 2.84365 24.6683 2.45867C24.4676 2.0737 24.1651 1.75112 23.7938 1.52601C23.4226 1.30091 22.9967 1.18188 22.5625 1.18188C22.1283 1.18188 21.7024 1.30091 21.3312 1.52601C20.9599 1.75112 20.6574 2.0737 20.4567 2.45867C20.2559 2.84365 20.1645 3.2763 20.1924 3.70959C20.2203 4.14287 20.3665 4.56022 20.615 4.91625C17.7881 5.36748 15.2025 6.77742 13.2921 8.90943C11.3817 11.0414 10.2629 13.7657 10.1234 16.625H10.0938C9.62133 16.625 9.16826 16.8127 8.83422 17.1467C8.50017 17.4808 8.3125 17.9338 8.3125 18.4062C8.3125 18.8787 8.50017 19.3317 8.83422 19.6658C9.16826 19.9998 9.62133 20.1875 10.0938 20.1875H10.26L11.3109 23.3462C11.3518 23.4635 11.428 23.5652 11.529 23.6375C11.63 23.7098 11.7508 23.7491 11.875 23.75H33.25C33.3742 23.7491 33.495 23.7098 33.596 23.6375C33.697 23.5652 33.7732 23.4635 33.8141 23.3462L34.865 20.1875H35.0312C35.5037 20.1875 35.9567 19.9998 36.2908 19.6658C36.6248 19.3317 36.8125 18.8787 36.8125 18.4062C36.8125 17.9338 36.6248 17.4808 36.2908 17.1467C35.9567 16.8127 35.5037 16.625 35.0312 16.625ZM22.5625 2.375C22.7974 2.375 23.027 2.44464 23.2222 2.57513C23.4175 2.70561 23.5697 2.89107 23.6596 3.10806C23.7495 3.32505 23.773 3.56382 23.7272 3.79417C23.6814 4.02452 23.5683 4.23611 23.4022 4.40219C23.2361 4.56826 23.0245 4.68136 22.7942 4.72718C22.5638 4.773 22.3251 4.74948 22.1081 4.65961C21.8911 4.56973 21.7056 4.41752 21.5751 4.22224C21.4446 4.02695 21.375 3.79736 21.375 3.5625C21.3759 3.24784 21.5014 2.94634 21.7238 2.72385C21.9463 2.50135 22.2478 2.37594 22.5625 2.375ZM22.5625 5.9375C25.4503 5.94136 28.227 7.05121 30.3219 9.03896C32.4167 11.0267 33.6706 13.7413 33.8259 16.625H11.2991C11.4544 13.7413 12.7083 11.0267 14.8031 9.03896C16.898 7.05121 19.6747 5.94136 22.5625 5.9375ZM32.8225 22.5625H12.3025L11.5128 20.1875H33.6122L32.8225 22.5625ZM35.0312 19H10.0938C9.93628 19 9.78525 18.9374 9.6739 18.8261C9.56256 18.7147 9.5 18.5637 9.5 18.4062C9.5 18.2488 9.56256 18.0978 9.6739 17.9864C9.78525 17.8751 9.93628 17.8125 10.0938 17.8125H35.0312C35.1887 17.8125 35.3397 17.8751 35.4511 17.9864C35.5624 18.0978 35.625 18.2488 35.625 18.4062C35.625 18.5637 35.5624 18.7147 35.4511 18.8261C35.3397 18.9374 35.1887 19 35.0312 19Z" fill="white"></path><path d="M36.9016 26.6594C36.5864 26.1148 36.0684 25.7172 35.4608 25.5536C34.8533 25.39 34.2056 25.4738 33.6597 25.7866L27.8706 29.1294C27.5545 28.6557 27.078 28.312 26.5287 28.1616L17.67 25.7925C16.9882 25.6086 16.2707 25.6024 15.5859 25.7747L12.4687 26.5525V25.5312C12.4687 25.3738 12.4062 25.2228 12.2948 25.1114C12.1835 25.0001 12.0325 24.9375 11.875 24.9375H7.125C6.96753 24.9375 6.8165 25.0001 6.70515 25.1114C6.59381 25.2228 6.53125 25.3738 6.53125 25.5312V26.125H2.375C2.21753 26.125 2.06651 26.1876 1.95516 26.2989C1.84381 26.4103 1.78125 26.5613 1.78125 26.7188V35.0312C1.78125 35.1887 1.84381 35.3397 1.95516 35.4511C2.06651 35.5624 2.21753 35.625 2.375 35.625H6.53125V36.2188C6.53125 36.3762 6.59381 36.5272 6.70515 36.6386C6.8165 36.7499 6.96753 36.8125 7.125 36.8125H11.875C12.0325 36.8125 12.1835 36.7499 12.2948 36.6386C12.4062 36.5272 12.4687 36.3762 12.4687 36.2188V35.3994L13.2347 35.7794C13.8121 36.0668 14.4481 36.2172 15.0931 36.2188H23.9816C24.7115 36.2203 25.4287 36.0277 26.0597 35.6606L36.0347 29.9013C36.578 29.5849 36.9742 29.0664 37.1366 28.4591C37.299 27.8517 37.2145 27.2047 36.9016 26.6594ZM6.53125 34.4375H2.96875V27.3125H6.53125V34.4375ZM11.2812 35.625H7.71875V26.125H11.2812V35.625ZM35.4409 28.8741L25.4659 34.6334C25.0148 34.8945 24.5028 35.0317 23.9816 35.0312H15.0931C14.6312 35.0322 14.1756 34.9244 13.7631 34.7166L12.4687 34.0694V27.7756L15.8709 26.9266C16.3605 26.8028 16.8737 26.8069 17.3612 26.9384L26.22 29.3134C26.4479 29.3726 26.653 29.4985 26.8089 29.675C26.9648 29.8515 27.0644 30.0705 27.095 30.3039C27.1256 30.5374 27.0858 30.7747 26.9807 30.9854C26.8756 31.1961 26.7099 31.3706 26.505 31.4866C26.3712 31.5655 26.2228 31.6167 26.0688 31.6371C25.9148 31.6575 25.7582 31.6467 25.6084 31.6053L18.525 29.7053C18.3723 29.6644 18.2095 29.6858 18.0725 29.7648C17.9356 29.8439 17.8356 29.9741 17.7947 30.1269C17.7537 30.2796 17.7752 30.4424 17.8542 30.5793C17.9333 30.7163 18.0635 30.8162 18.2162 30.8572L25.2997 32.7512C25.5011 32.8055 25.7086 32.8334 25.9172 32.8344C26.3326 32.835 26.7406 32.7243 27.0987 32.5137C27.3701 32.3587 27.608 32.1514 27.7986 31.9037C27.9892 31.656 28.1287 31.373 28.2091 31.0709C28.2749 30.8092 28.297 30.5383 28.2744 30.2694L34.2534 26.8197C34.5262 26.6683 34.8473 26.6288 35.1486 26.7097C35.45 26.7906 35.7081 26.9854 35.8684 27.2531C36.0261 27.5249 36.0697 27.8481 35.9895 28.1519C35.9094 28.4557 35.7121 28.7154 35.4409 28.8741Z" fill="white"></path><path d="M9.5 35.0312C9.65747 35.0312 9.8085 34.9687 9.91985 34.8573C10.0312 34.746 10.0938 34.595 10.0938 34.4375V33.8438C10.0938 33.6863 10.0312 33.5353 9.91985 33.4239C9.8085 33.3126 9.65747 33.25 9.5 33.25C9.34253 33.25 9.19151 33.3126 9.08016 33.4239C8.96881 33.5353 8.90625 33.6863 8.90625 33.8438V34.4375C8.90625 34.595 8.96881 34.746 9.08016 34.8573C9.19151 34.9687 9.34253 35.0312 9.5 35.0312Z" fill="white"></path><path d="M32.3367 14.6953C31.9381 13.1693 31.1894 11.7572 30.1499 10.571C29.1103 9.38479 27.8087 8.45721 26.3481 7.86185C26.2757 7.83116 26.1978 7.8152 26.1191 7.81489C26.0404 7.81457 25.9624 7.82991 25.8896 7.86002C25.8169 7.89012 25.7509 7.93439 25.6954 7.99024C25.6399 8.04609 25.5961 8.11242 25.5665 8.18536C25.5369 8.25829 25.5221 8.33639 25.523 8.4151C25.5238 8.49381 25.5403 8.57157 25.5715 8.64385C25.6027 8.71612 25.648 8.78148 25.7046 8.83611C25.7613 8.89074 25.8283 8.93355 25.9016 8.96206C27.1905 9.48744 28.3391 10.306 29.2564 11.3527C30.1737 12.3994 30.8343 13.6456 31.186 14.9922C31.2189 15.1196 31.2932 15.2325 31.3973 15.3131C31.5013 15.3937 31.6292 15.4375 31.7608 15.4375C31.8111 15.4376 31.8611 15.4312 31.9098 15.4185C31.9853 15.3991 32.0563 15.3649 32.1186 15.3181C32.1809 15.2712 32.2334 15.2125 32.2731 15.1453C32.3127 15.0782 32.3387 15.0039 32.3496 14.9267C32.3606 14.8494 32.3562 14.7708 32.3367 14.6953Z" fill="white"></path><path d="M23.8236 7.20338C23.4053 7.15112 22.9841 7.12495 22.5625 7.125C22.405 7.125 22.254 7.18756 22.1427 7.29891C22.0313 7.41026 21.9688 7.56128 21.9688 7.71875C21.9688 7.87622 22.0313 8.02725 22.1427 8.1386C22.254 8.24995 22.405 8.3125 22.5625 8.3125C22.9349 8.31244 23.3069 8.33564 23.6764 8.38197C23.701 8.38501 23.7258 8.3866 23.7506 8.38672C23.9022 8.38748 24.0484 8.33018 24.1592 8.22657C24.2699 8.12297 24.3368 7.98092 24.3462 7.82955C24.3555 7.67819 24.3066 7.52898 24.2094 7.41255C24.1123 7.29611 23.9742 7.22127 23.8236 7.20338Z" fill="white"></path></svg> 