<svg width="35" height="34" viewBox="0 0 35 34" fill="none" xmlns="http://www.w3.org/2000/svg">
<path d="M27.1603 24.0904L34.2008 16.998C34.5473 16.6507 34.7949 16.2159 34.9177 15.7392C35.0405 15.2625 35.0341 14.7612 34.899 14.2879C34.764 13.8145 34.5054 13.3864 34.1501 13.0482C33.7948 12.7101 33.3559 12.4742 32.8793 12.3654C33.1167 11.8531 33.1918 11.2794 33.0941 10.7225C32.9964 10.1657 32.7309 9.65271 32.3335 9.25346C31.9464 9.18644 31.5782 9.03599 31.2541 8.81237C30.9299 8.58876 30.6575 8.29726 30.4554 7.95779C30.2533 7.61831 30.1263 7.23883 30.0831 6.84534C30.0399 6.45185 30.0814 6.05364 30.2049 5.67783C29.9884 5.76446 29.7503 5.77952 29.5247 5.72085C29.2991 5.66219 29.0978 5.53279 28.9499 5.35138C28.802 5.16997 28.7152 4.94589 28.7018 4.71148C28.6884 4.47707 28.7493 4.24446 28.8756 4.04717C28.8773 3.56851 28.755 3.09766 28.5208 2.68123C28.2866 2.2648 27.9487 1.91718 27.5404 1.67272C27.1321 1.42826 26.6676 1.29544 26.1928 1.28737C25.7179 1.2793 25.2492 1.39628 24.833 1.62672L24.7628 1.54816C24.3104 1.06029 23.7636 0.67116 23.1561 0.404871C22.5486 0.138581 21.8933 0.000778346 21.2309 0H15.5352C15.44 0 15.3458 0.0189107 15.2578 0.0556391C15.1698 0.0923675 15.0898 0.146202 15.0225 0.214067C14.9552 0.281932 14.9017 0.362486 14.8653 0.451157C14.8288 0.539827 14.8101 0.634863 14.8101 0.730839V1.68961C14.8084 2.06708 14.8718 2.44197 14.9973 2.79764C13.7 4.63039 11.9336 6.07396 9.88642 6.97446C9.62875 7.23096 9.42487 7.53706 9.28691 7.87457C9.14895 8.21207 9.0797 8.57409 9.08333 8.9391C9.08315 9.23142 9.12925 9.52193 9.21981 9.79963C8.80558 9.87096 8.41328 10.0377 8.07351 10.287C7.73373 10.5362 7.45568 10.8612 7.26099 11.2365C7.06629 11.6119 6.96024 12.0275 6.95109 12.4509C6.94194 12.8744 7.02987 13.2943 7.20816 13.6778C6.73188 13.7872 6.29352 14.0234 5.9387 14.3618C5.58389 14.7002 5.32562 15.1284 5.191 15.6016C5.05638 16.0749 5.05035 16.576 5.17339 17.0524C5.29643 17.5289 5.54408 17.9633 5.89054 18.3104L7.33684 19.7682L0.210521 26.9509C0.0786289 27.0887 0.00568311 27.2733 0.00741542 27.4648C0.00914772 27.6563 0.0854841 27.8395 0.219849 27.975C0.354213 28.1104 0.535888 28.1872 0.725901 28.189C0.915913 28.1907 1.09906 28.1172 1.23585 27.9843L8.43232 20.7348C8.85595 20.9782 9.33652 21.1027 9.82408 21.0954C10.3116 21.0881 10.7883 20.9493 11.2046 20.6934C11.6209 20.4375 11.9615 20.0738 12.1911 19.6402C12.4207 19.2066 12.5308 18.7189 12.51 18.2279H12.6231C13.3469 18.2279 14.041 17.9381 14.5527 17.4223C15.0645 16.9065 15.352 16.2069 15.352 15.4774C15.354 15.4408 15.354 15.404 15.352 15.3674H15.4612C16.1849 15.3674 16.879 15.0776 17.3908 14.5618C17.9025 14.046 18.1901 13.3464 18.1901 12.6169C18.1901 12.5776 18.1901 12.5423 18.1901 12.503H18.2992C18.8171 12.5042 19.3246 12.3569 19.7625 12.0782C20.2004 11.7995 20.5506 11.401 20.7722 10.9293C20.9938 10.4575 21.0775 9.9319 21.0138 9.4139C20.95 8.8959 20.7414 8.40685 20.4122 8.00393L25.2306 3.14735C25.4715 2.90506 25.798 2.76917 26.1383 2.76953C26.4787 2.7699 26.8049 2.90651 27.0453 3.14932C27.2857 3.39213 27.4205 3.72123 27.4202 4.06425C27.4198 4.40726 27.2843 4.73612 27.0434 4.97841L26.3338 5.69351L23.757 8.29076C23.6251 8.42863 23.5522 8.61318 23.5539 8.8047C23.5557 8.99622 23.6319 9.17943 23.7663 9.31485C23.9006 9.45028 24.0824 9.52713 24.2724 9.52887C24.4624 9.53062 24.6455 9.4571 24.7823 9.32416L27.3592 6.72691C27.4766 6.60007 27.6182 6.49838 27.7755 6.42785C27.9328 6.35733 28.1025 6.31942 28.2747 6.31643C28.4468 6.31344 28.6178 6.34543 28.7774 6.41044C28.937 6.47546 29.0819 6.57218 29.2037 6.69487C29.3254 6.81757 29.4214 6.96372 29.4859 7.12459C29.5504 7.28546 29.5821 7.45775 29.5791 7.63124C29.5762 7.80473 29.5386 7.97586 29.4686 8.13439C29.3987 8.29293 29.2977 8.43564 29.1719 8.55404L28.4623 9.27308L26.5989 11.1513C26.5311 11.2189 26.4773 11.2993 26.4406 11.388C26.4039 11.4767 26.385 11.5719 26.385 11.668C26.385 11.7641 26.4039 11.8592 26.4406 11.9479C26.4773 12.0366 26.5311 12.1171 26.5989 12.1847C26.6652 12.2536 26.7446 12.3082 26.8324 12.3454C26.9201 12.3825 27.0144 12.4014 27.1096 12.4008C27.2053 12.401 27.3001 12.382 27.3885 12.3449C27.4768 12.3078 27.557 12.2533 27.6242 12.1847L29.4877 10.3065C29.6066 10.1855 29.7481 10.0895 29.904 10.024C30.0599 9.9585 30.2271 9.92477 30.396 9.92477C30.565 9.92477 30.7321 9.9585 30.888 10.024C31.0439 10.0895 31.1854 10.1855 31.3043 10.3065C31.5436 10.5494 31.6779 10.8778 31.6779 11.2201C31.6779 11.5623 31.5436 11.8907 31.3043 12.1336L30.3297 13.1159L29.437 14.0157C29.3692 14.0833 29.3154 14.1638 29.2787 14.2525C29.242 14.3412 29.2231 14.4363 29.2231 14.5324C29.2231 14.6285 29.242 14.7237 29.2787 14.8124C29.3154 14.9011 29.3692 14.9815 29.437 15.0491C29.504 15.1174 29.5839 15.1717 29.6718 15.2087C29.7598 15.2457 29.8543 15.2647 29.9497 15.2647C30.045 15.2647 30.1394 15.2457 30.2274 15.2087C30.3154 15.1717 30.3952 15.1174 30.4623 15.0491L31.355 14.1493C31.4743 14.0293 31.6159 13.9342 31.7716 13.8694C31.9274 13.8046 32.0942 13.7713 32.2627 13.7715C32.4312 13.7717 32.5981 13.8053 32.7537 13.8705C32.9094 13.9356 33.0507 14.0311 33.1698 14.1513C33.2888 14.2715 33.3831 14.4142 33.4474 14.5712C33.5117 14.7282 33.5447 14.8964 33.5446 15.0662C33.5444 15.2361 33.511 15.4042 33.4463 15.5611C33.3817 15.7179 33.287 15.8604 33.1678 15.9804L26.1506 23.0531C24.3875 24.8342 22.0181 25.8723 19.5233 25.9568C19.3383 25.9634 19.1627 26.0406 19.0321 26.1729L12.5335 32.7505C12.4657 32.8181 12.4119 32.8985 12.3752 32.9872C12.3385 33.0759 12.3195 33.1711 12.3195 33.2672C12.3195 33.3633 12.3385 33.4584 12.3752 33.5471C12.4119 33.6358 12.4657 33.7163 12.5335 33.7839C12.6707 33.92 12.8556 33.9962 13.0481 33.9961C13.1432 33.9964 13.2374 33.9775 13.3251 33.9403C13.4129 33.9032 13.4923 33.8486 13.5587 33.78L18.3421 28.943C19.5594 29.7309 20.996 30.1029 22.4393 30.0039L26.1818 33.776C26.2482 33.8447 26.3277 33.8993 26.4154 33.9364C26.5031 33.9735 26.5974 33.9925 26.6925 33.9921C26.8357 33.991 26.9753 33.9475 27.094 33.8669C27.2127 33.7863 27.3053 33.6723 27.3602 33.5391C27.4151 33.4058 27.4298 33.2593 27.4026 33.1177C27.3753 32.976 27.3073 32.8456 27.2071 32.7426L23.2346 28.7387C23.1598 28.6642 23.0697 28.6069 22.9708 28.571C22.8718 28.535 22.7663 28.5212 22.6615 28.5304H22.4315C21.3799 28.6201 20.3258 28.3887 19.4063 27.8664L19.8703 27.3949C22.62 27.231 25.2142 26.0551 27.1603 24.0904ZM10.6895 19.2377C10.4485 19.4789 10.1227 19.6142 9.78316 19.6142C9.44357 19.6142 9.11769 19.4789 8.8767 19.2377L6.92749 17.2731C6.80797 17.153 6.71314 17.0103 6.64843 16.8532C6.58373 16.6961 6.5504 16.5277 6.5504 16.3576C6.5504 16.1875 6.58373 16.0191 6.64843 15.8619C6.71314 15.7048 6.80797 15.5622 6.92749 15.4421C7.16848 15.2009 7.49436 15.0656 7.83395 15.0656C8.17353 15.0656 8.49932 15.2009 8.74031 15.4421L10.6895 17.4067C10.929 17.6503 11.0634 17.9793 11.0634 18.3222C11.0634 18.6651 10.929 18.9941 10.6895 19.2377ZM13.5276 16.3733C13.2866 16.6144 12.9607 16.7498 12.6211 16.7498C12.2815 16.7498 11.9557 16.6144 11.7148 16.3733L9.76555 14.4087L8.79094 13.4263C8.55169 13.1834 8.41747 12.855 8.41747 12.5128C8.41747 12.1705 8.55169 11.8421 8.79094 11.5992C8.90983 11.4783 9.05134 11.3823 9.20724 11.3168C9.36315 11.2512 9.53039 11.2175 9.69931 11.2175C9.86822 11.2175 10.0355 11.2512 10.1914 11.3168C10.3473 11.3823 10.4888 11.4783 10.6077 11.5992L13.5392 14.558C13.6591 14.6775 13.7542 14.8197 13.8192 14.9765C13.8841 15.1333 13.9176 15.3016 13.9176 15.4715C13.9176 15.6414 13.8841 15.8097 13.8192 15.9665C13.7542 16.1233 13.6591 16.2656 13.5392 16.3851L13.5276 16.3733ZM16.3694 13.5088C16.2506 13.6292 16.1095 13.7247 15.9539 13.7899C15.7984 13.855 15.6315 13.8886 15.4631 13.8886C15.2946 13.8886 15.1279 13.855 14.9724 13.7899C14.8168 13.7247 14.6755 13.6292 14.5567 13.5088L10.9117 9.83498C10.7918 9.71549 10.6967 9.57321 10.6317 9.41639C10.5668 9.25958 10.5333 9.09133 10.5333 8.9214C10.5333 8.75147 10.5668 8.58326 10.6317 8.42645C10.6967 8.26964 10.7918 8.12735 10.9117 8.00786C11.1526 7.76672 11.4785 7.63139 11.8181 7.63139C12.1577 7.63139 12.4835 7.76672 12.7245 8.00786L14.3852 9.68174L16.3694 11.6817C16.6087 11.9246 16.743 12.253 16.743 12.5953C16.743 12.9376 16.6087 13.2659 16.3694 13.5088ZM19.2114 10.6483C18.9698 10.8897 18.6434 11.0251 18.3031 11.0251C17.9629 11.0251 17.6364 10.8897 17.3948 10.6483L13.7497 6.97446L13.0403 6.26329C12.8603 6.08248 12.7377 5.85189 12.6879 5.60075C12.6382 5.34961 12.6636 5.08921 12.7609 4.85264C12.8582 4.61608 13.0231 4.41399 13.2345 4.27198C13.446 4.12997 13.6945 4.05447 13.9485 4.05504C14.1176 4.0568 14.2847 4.09243 14.4399 4.15989C14.5952 4.22735 14.7356 4.32529 14.853 4.44796L19.2114 8.83693C19.4509 9.0805 19.5853 9.40957 19.5853 9.75248C19.5853 10.0954 19.4509 10.4244 19.2114 10.668V10.6483ZM19.4024 6.94304L17.4065 4.93519C17.636 4.98394 17.8698 5.00893 18.1043 5.00982H20.0925C20.2848 5.00982 20.4692 4.93282 20.6052 4.79576C20.7412 4.6587 20.8176 4.47282 20.8176 4.27898C20.8176 4.08515 20.7412 3.89927 20.6052 3.76221C20.4692 3.62515 20.2848 3.54815 20.0925 3.54815H18.1004C17.8583 3.54815 17.6185 3.50005 17.3948 3.40665C17.1711 3.31325 16.9677 3.17638 16.7965 3.00379C16.6253 2.83121 16.4894 2.62632 16.3968 2.40083C16.3041 2.17534 16.2565 1.93367 16.2565 1.68961V1.46168H21.227C21.6907 1.46164 22.1495 1.55794 22.5747 1.74453C23 1.93111 23.3825 2.20398 23.6985 2.54616L23.7297 2.57763L19.4024 6.94304Z" fill="#A0AD98"/>
</svg>
