<svg width="39" height="40" viewBox="0 0 39 40" fill="none" xmlns="http://www.w3.org/2000/svg">
<path d="M38.4471 29.0783C38.41 28.9829 38.355 28.8958 38.2851 28.8221C38.2152 28.7485 38.1318 28.6896 38.0398 28.649C37.9477 28.6084 37.8488 28.5868 37.7486 28.5854C37.6484 28.584 37.5489 28.6028 37.4558 28.6408C37.3627 28.6789 37.2779 28.7354 37.206 28.8071C37.1342 28.8787 37.0768 28.9642 37.0372 29.0587C36.9976 29.1531 36.9765 29.2546 36.9751 29.3573C36.9738 29.4601 36.9922 29.5622 37.0293 29.6577C37.3819 30.5597 37.5295 31.5323 37.4611 32.5017C37.3926 33.471 37.1099 34.4116 36.6344 35.2521C36.4398 34.6895 36.1143 34.184 35.6863 33.7795C35.2582 33.375 34.7404 33.0837 34.1778 32.9309L33.9725 32.8782C34.2697 32.3705 34.4267 31.7894 34.4266 31.1971V30.5448C34.4417 30.105 34.3703 29.6666 34.2166 29.2557C34.063 28.8448 33.8301 28.4699 33.5321 28.1533C33.2342 27.8367 32.877 27.5849 32.4821 27.4129C32.0872 27.2409 31.6626 27.1523 31.2336 27.1523C30.8046 27.1523 30.3799 27.2409 29.9849 27.4129C29.59 27.5849 29.2329 27.8367 28.9349 28.1533C28.6369 28.4699 28.4042 28.8448 28.2505 29.2557C28.0969 29.6666 28.0255 30.105 28.0405 30.5448V31.1971C28.0405 31.7894 28.1974 32.3705 28.4947 32.8782L28.2893 32.9309C27.7271 33.0843 27.2095 33.3753 26.781 33.7789C26.3525 34.1825 26.0258 34.6866 25.8289 35.2481C25.1785 34.0975 24.8932 32.7679 25.0126 31.4435C25.1319 30.1191 25.65 28.8657 26.495 27.8569C27.34 26.8481 28.4701 26.134 29.7286 25.8135C30.987 25.4931 32.3114 25.5822 33.5183 26.0684C33.6122 26.1108 33.7136 26.1332 33.8162 26.1344C33.9188 26.1356 34.0207 26.1155 34.1156 26.0754C34.2105 26.0352 34.2964 25.9758 34.3684 25.9007C34.4404 25.8256 34.4967 25.7364 34.5342 25.6384C34.5718 25.5404 34.5896 25.4357 34.5867 25.3304C34.5838 25.2252 34.5602 25.1216 34.5174 25.026C34.4745 24.9303 34.4132 24.8445 34.3373 24.7738C34.2613 24.703 34.172 24.6487 34.0751 24.6141C32.4237 23.954 30.6025 23.8904 28.9112 24.4338C27.2199 24.9773 25.7595 26.0952 24.7705 27.6038L17.8195 23.7918C18.3237 22.5952 18.5838 21.3055 18.5838 20.002C18.5838 18.6985 18.3237 17.4088 17.8195 16.2122L24.7744 12.4002C25.0569 12.8361 25.3796 13.243 25.738 13.6155C26.7298 14.6326 27.9714 15.3554 29.3312 15.7071C30.6911 16.0589 32.1184 16.0265 33.4618 15.6133C34.8051 15.2002 36.0143 14.4218 36.9611 13.3606C37.908 12.2995 38.5572 10.9952 38.8398 9.58621C39.1224 8.1772 39.0278 6.71598 38.5661 5.35763C38.1045 3.99929 37.2931 2.79446 36.2178 1.87098C35.1426 0.947491 33.8436 0.339814 32.4588 0.112392C31.074 -0.115029 29.6551 0.0462938 28.3525 0.579261C28.2531 0.61199 28.1614 0.665309 28.0829 0.735923C28.0044 0.806537 27.9409 0.89293 27.8963 0.989756C27.8517 1.08658 27.8269 1.1918 27.8236 1.29883C27.8203 1.40586 27.8384 1.51246 27.8769 1.612C27.9154 1.71154 27.9734 1.80191 28.0474 1.8775C28.1213 1.9531 28.2096 2.01227 28.3068 2.05142C28.4039 2.09057 28.508 2.10884 28.6123 2.10508C28.7166 2.10131 28.8191 2.07563 28.9133 2.02957C30.1204 1.5353 31.4476 1.43942 32.7103 1.75531C33.9729 2.0712 35.1081 2.7831 35.9577 3.79191C36.8073 4.80072 37.3291 6.0562 37.4504 7.3835C37.5716 8.71081 37.2865 10.0439 36.6344 11.197C36.4384 10.6356 36.1124 10.1315 35.6845 9.72784C35.2566 9.32421 34.7395 9.03321 34.1778 8.87985L33.9725 8.82718C34.2702 8.31815 34.4272 7.7356 34.4266 7.14198V6.49378C34.4417 6.05397 34.3703 5.61556 34.2166 5.20468C34.063 4.7938 33.8301 4.41887 33.5321 4.10226C33.2342 3.78566 32.877 3.53386 32.4821 3.36188C32.0872 3.1899 31.6626 3.10127 31.2336 3.10127C30.8046 3.10127 30.3799 3.1899 29.9849 3.36188C29.59 3.53386 29.2329 3.78566 28.9349 4.10226C28.6369 4.41887 28.4042 4.7938 28.2505 5.20468C28.0969 5.61556 28.0255 6.05397 28.0405 6.49378V7.14198C28.04 7.7356 28.1969 8.31815 28.4947 8.82718L28.2893 8.87985C27.7271 9.03327 27.2095 9.32426 26.781 9.72784C26.3525 10.1314 26.0258 10.6355 25.8289 11.197C25.3599 10.3607 25.0808 9.42659 25.0125 8.46431C24.9441 7.50202 25.0881 6.5363 25.4339 5.63901C25.4986 5.44822 25.4888 5.23916 25.4065 5.05563C25.3243 4.87211 25.1759 4.72838 24.9926 4.65454C24.8093 4.58069 24.6053 4.58249 24.4232 4.65953C24.2412 4.73658 24.0953 4.88291 24.0161 5.06785C23.2809 6.9879 23.3008 9.12561 24.0714 11.031L17.1205 14.847C16.7639 14.2785 16.3482 13.7515 15.8804 13.2752C14.456 11.8038 12.599 10.8543 10.5961 10.5732C8.6391 10.2963 6.64689 10.6621 4.90512 11.6184C4.72705 11.7167 4.59436 11.8835 4.53621 12.0822C4.47807 12.2808 4.49929 12.4951 4.59513 12.6777C4.69097 12.8603 4.85356 12.9965 5.04724 13.0561C5.24092 13.1157 5.44982 13.094 5.62788 12.9957C7.10452 12.1792 8.79911 11.8749 10.4583 12.1284C12.1176 12.3818 13.6522 13.1794 14.8328 14.4018C16.0134 15.6242 16.7766 17.2058 17.0082 18.91C17.2397 20.6143 16.9271 22.3496 16.1173 23.8565C15.8716 23.1684 15.4675 22.5512 14.9395 22.0576C14.4114 21.5639 13.775 21.2082 13.0842 21.0208L12.5076 20.8669C12.9824 20.1862 13.2378 19.3704 13.2383 18.5335V17.6868C13.206 16.6404 12.778 15.648 12.0449 14.9196C11.3119 14.1911 10.3313 13.7838 9.31065 13.7838C8.29002 13.7838 7.30941 14.1911 6.57637 14.9196C5.84332 15.648 5.41533 16.6404 5.38298 17.6868V18.5132C5.38345 19.3501 5.63894 20.166 6.11365 20.8466L5.54091 21.0006C4.8496 21.1877 4.21259 21.5432 3.68386 22.0369C3.15513 22.5306 2.75031 23.1479 2.50387 23.8363C1.8838 22.6698 1.556 21.3636 1.5498 20.035C1.54359 18.7063 1.85924 17.3969 2.46839 16.2244C2.56423 16.0417 2.58535 15.8275 2.52721 15.6288C2.46906 15.4302 2.33637 15.2634 2.1583 15.165C1.98024 15.0667 1.77144 15.045 1.57776 15.1047C1.38408 15.1643 1.22139 15.3004 1.12555 15.4831C0.193335 17.2697 -0.163296 19.3132 0.106676 21.3206C0.347431 23.0752 1.06 24.7263 2.16447 26.0887C3.26895 27.4511 4.72156 28.4709 6.35952 29.0338C7.99748 29.5966 9.75598 29.6803 11.4377 29.2753C13.1194 28.8703 14.6578 27.9927 15.8804 26.7409C16.3482 26.2647 16.7639 25.7377 17.1205 25.1691L24.0675 28.9811C23.5798 30.1883 23.3889 31.5 23.5116 32.8006C23.6343 34.1012 24.0668 35.351 24.771 36.4399C25.4752 37.5288 26.4296 38.4235 27.5501 39.0451C28.6705 39.6668 29.9228 39.9965 31.1967 40.0051C32.4705 40.0137 33.727 39.7009 34.8554 39.0944C35.9838 38.4879 36.9495 37.6063 37.6676 36.527C38.3857 35.4477 38.8342 34.2038 38.9735 32.905C39.1129 31.6061 38.9389 30.292 38.4668 29.0783H38.4471ZM29.557 6.48166C29.557 6.02719 29.7331 5.59132 30.0464 5.26996C30.3597 4.9486 30.7845 4.76803 31.2276 4.76803C31.6707 4.76803 32.0957 4.9486 32.409 5.26996C32.7222 5.59132 32.8982 6.02719 32.8982 6.48166V7.12982C32.8982 7.58429 32.7222 8.02016 32.409 8.34152C32.0957 8.66288 31.6707 8.8434 31.2276 8.8434C30.7845 8.8434 30.3597 8.66288 30.0464 8.34152C29.7331 8.02016 29.557 7.58429 29.557 7.12982V6.48166ZM27.1401 12.5825V12.4205C27.1446 11.9575 27.2969 11.5088 27.5737 11.143C27.8504 10.7772 28.2363 10.5144 28.6724 10.3949L29.8178 10.087C30.2565 10.3083 30.7387 10.4234 31.2276 10.4234C31.7165 10.4234 32.1989 10.3083 32.6376 10.087L33.7828 10.3949C34.2193 10.5138 34.6056 10.7764 34.8824 11.1423C35.1592 11.5083 35.3113 11.9573 35.3152 12.4205V12.8256C34.1755 13.8381 32.7171 14.3934 31.2094 14.3889C29.7016 14.3844 28.2464 13.8205 27.1124 12.8013C27.133 12.7304 27.1424 12.6565 27.1401 12.5825ZM6.88771 17.6585C6.87458 17.3264 6.92703 16.9949 7.04188 16.6841C7.15674 16.3733 7.33164 16.0895 7.55609 15.8497C7.78054 15.61 8.04988 15.4192 8.34799 15.2889C8.6461 15.1586 8.96683 15.0914 9.29088 15.0914C9.61494 15.0914 9.93566 15.1586 10.2338 15.2889C10.5319 15.4192 10.8012 15.61 11.0257 15.8497C11.2501 16.0895 11.425 16.3733 11.5399 16.6841C11.6547 16.9949 11.7072 17.3264 11.6941 17.6585V18.5132C11.6689 19.1497 11.4048 19.7515 10.9568 20.1928C10.5089 20.634 9.9119 20.8804 9.29088 20.8804C8.66986 20.8804 8.07287 20.634 7.62494 20.1928C7.177 19.7515 6.91287 19.1497 6.88771 18.5132V17.6585ZM14.8417 25.5782L14.7864 25.639C13.3273 27.131 11.3511 27.9688 9.29088 27.9688C7.23065 27.9688 5.25443 27.131 3.79532 25.639L3.74403 25.5782V25.4C3.74366 24.7416 3.95572 24.1016 4.34723 23.5798C4.73874 23.058 5.28767 22.6839 5.90827 22.5157L7.48802 22.1106C8.04592 22.4088 8.66573 22.5645 9.29484 22.5645C9.92395 22.5645 10.5437 22.4088 11.1017 22.1106L12.6814 22.5157C13.3024 22.6837 13.8518 23.0577 14.244 23.5794C14.6362 24.1011 14.8491 24.7412 14.8496 25.4L14.8417 25.5782ZM29.557 30.5448C29.557 30.0903 29.7331 29.6545 30.0464 29.3332C30.3597 29.0118 30.7845 28.8312 31.2276 28.8312C31.6707 28.8312 32.0957 29.0118 32.409 29.3332C32.7222 29.6545 32.8982 30.0903 32.8982 30.5448V31.1971C32.8982 31.6516 32.7222 32.0874 32.409 32.4087C32.0957 32.7301 31.6707 32.9107 31.2276 32.9107C30.7845 32.9107 30.3597 32.7301 30.0464 32.4087C29.7331 32.0874 29.557 31.6516 29.557 31.1971V30.5448ZM27.1124 36.8523C27.1315 36.7866 27.1409 36.7183 27.1401 36.6498V36.4837C27.1446 36.0207 27.2969 35.572 27.5737 35.2062C27.8504 34.8404 28.2363 34.5776 28.6724 34.4581L29.8178 34.1503C30.2565 34.3715 30.7387 34.4866 31.2276 34.4866C31.7165 34.4866 32.1989 34.3715 32.6376 34.1503L33.7828 34.4581C34.2193 34.577 34.6056 34.8396 34.8824 35.2055C35.1592 35.5715 35.3113 36.0205 35.3152 36.4837V36.8888C34.1734 37.898 32.7145 38.4501 31.2072 38.4434C29.6999 38.4367 28.2457 37.8717 27.1124 36.8523Z" fill="#A0AD98"/>
</svg>
