<svg width="30" height="30" viewBox="0 0 30 30" fill="none" xmlns="http://www.w3.org/2000/svg">
<g clip-path="url(#clip0_299_2)">
<path d="M29.5558 12.3139L26.3354 11.6657C26.0984 10.86 25.7755 10.0823 25.372 9.34574L27.1908 6.60565C27.2619 6.49854 27.2939 6.37017 27.2813 6.24222C27.2688 6.11426 27.2124 5.99456 27.1218 5.90336L24.0965 2.88115C24.006 2.78955 23.8864 2.73228 23.7583 2.71914C23.6302 2.706 23.5015 2.73781 23.3943 2.80912L20.6572 4.62785C19.9201 4.22554 19.1425 3.90262 18.3372 3.66447L17.686 0.447176C17.6604 0.321119 17.5921 0.207765 17.4926 0.126283C17.393 0.0448018 17.2684 0.000195563 17.1398 0H12.8601C12.7314 0.000195563 12.6068 0.0448018 12.5073 0.126283C12.4077 0.207765 12.3394 0.321119 12.3138 0.447176L11.6656 3.66447C10.8592 3.90205 10.0805 4.225 9.34266 4.62785L6.60553 2.80912C6.49842 2.73799 6.37005 2.70602 6.2421 2.71859C6.11414 2.73117 5.9945 2.78752 5.90329 2.87814L2.87806 5.90336C2.78744 5.99456 2.73105 6.11426 2.71847 6.24222C2.7059 6.37017 2.73791 6.49854 2.80904 6.60565L4.62778 9.34274C4.22548 10.0798 3.90255 10.8574 3.66441 11.6627L0.447056 12.3139C0.320739 12.339 0.207118 12.4072 0.125541 12.5068C0.0439636 12.6065 -0.000493092 12.7314 -0.000119738 12.8601V17.1399C7.58252e-05 17.2685 0.0447187 17.3931 0.1262 17.4926C0.207682 17.5921 0.320999 17.6605 0.447056 17.6861L3.66441 18.3343C3.90016 19.1404 4.22319 19.9183 4.62778 20.6542L2.80603 23.3943C2.73528 23.5018 2.70381 23.6304 2.71693 23.7583C2.73006 23.8863 2.78697 24.0058 2.87806 24.0967L5.90329 27.1218C5.99401 27.2122 6.11319 27.2685 6.24063 27.2811C6.36807 27.2936 6.49588 27.2618 6.60252 27.1909L9.34266 25.3722C10.0794 25.775 10.8572 26.0979 11.6626 26.3355L12.3108 29.5558C12.3366 29.6821 12.4055 29.7955 12.5057 29.8765C12.6059 29.9576 12.7312 30.0012 12.8601 30H17.1368C17.2656 30.0012 17.3909 29.9576 17.4911 29.8765C17.5913 29.7955 17.6602 29.6821 17.686 29.5558L18.3342 26.3355C19.1401 26.0992 19.918 25.7762 20.6542 25.3722L23.3943 27.1909C23.5009 27.2618 23.6287 27.2936 23.7562 27.2811C23.8836 27.2685 24.0028 27.2122 24.0935 27.1218L27.1188 24.0967C27.2096 24.0063 27.2664 23.8873 27.2795 23.7599C27.2926 23.6324 27.2613 23.5043 27.1908 23.3973L25.369 20.6572C25.7726 19.9208 26.0956 19.143 26.3324 18.3373L29.5558 17.6861C29.6815 17.6604 29.7945 17.5919 29.8755 17.4924C29.9564 17.3928 30.0005 17.2682 29.9999 17.1399V12.8601C29.9999 12.7319 29.9557 12.6076 29.8748 12.5082C29.7939 12.4087 29.6813 12.3401 29.5558 12.3139ZM28.8864 16.6807L25.7772 17.3079C25.675 17.3286 25.5806 17.3775 25.5047 17.4491C25.4289 17.5207 25.3746 17.6122 25.3481 17.7131C25.1017 18.6543 24.727 19.5571 24.2346 20.3961C24.1793 20.4871 24.1513 20.592 24.154 20.6985C24.1566 20.8049 24.1898 20.9083 24.2496 20.9964L26.0083 23.6435L23.6284 26.0234L20.9813 24.2647C20.8918 24.2072 20.7876 24.1766 20.6812 24.1766C20.5748 24.1766 20.4706 24.2072 20.3811 24.2647C19.542 24.7571 18.6392 25.1318 17.698 25.3781C17.5971 25.4047 17.5056 25.459 17.434 25.5348C17.3624 25.6107 17.3135 25.7051 17.2928 25.8073L16.6656 28.9166H13.3132L12.686 25.8073C12.6653 25.7051 12.6164 25.6107 12.5448 25.5348C12.4732 25.459 12.3817 25.4047 12.2808 25.3781C11.3406 25.1318 10.4387 24.7571 9.60072 24.2647C9.51093 24.2079 9.40685 24.1777 9.3006 24.1777C9.19434 24.1777 9.09027 24.2079 9.00048 24.2647L6.35648 26.0234L3.97647 23.6435L5.7322 20.9964C5.79244 20.9086 5.82617 20.8053 5.82936 20.6989C5.83255 20.5925 5.80509 20.4874 5.75023 20.3961C5.25809 19.5566 4.8825 18.654 4.63379 17.7131C4.60846 17.6121 4.55493 17.5204 4.47948 17.4487C4.40403 17.3769 4.3097 17.3281 4.20757 17.3079L1.09837 16.6807V13.3163L4.20757 12.6921C4.30993 12.6713 4.40434 12.6219 4.47977 12.5497C4.55521 12.4774 4.60863 12.3853 4.63379 12.2839C4.88254 11.344 5.25813 10.4424 5.75023 9.60384C5.80438 9.51236 5.83145 9.40737 5.82826 9.3011C5.82507 9.19484 5.79175 9.09167 5.7322 9.0036L3.97647 6.35954L6.35648 3.97959L9.00048 5.73529C9.08827 5.79553 9.19154 5.82926 9.29796 5.83245C9.40438 5.83564 9.50947 5.80816 9.60072 5.7533C10.4387 5.2609 11.3406 4.88624 12.2808 4.63986C12.3817 4.61333 12.4732 4.55905 12.5448 4.48319C12.6164 4.40733 12.6653 4.31292 12.686 4.21067L13.3132 1.10144H16.6776L17.3048 4.21067C17.3259 4.31278 17.3748 4.40702 17.4464 4.48282C17.518 4.55863 17.6092 4.61301 17.71 4.63986C18.6513 4.88569 19.5543 5.26037 20.3931 5.7533C20.4843 5.80816 20.5894 5.83564 20.6959 5.83245C20.8023 5.82926 20.9055 5.79553 20.9933 5.73529L23.6373 3.97959L26.0173 6.35954L24.2616 9.0036C24.2014 9.09139 24.1676 9.19466 24.1645 9.30108C24.1613 9.40751 24.1887 9.5126 24.2436 9.60384C24.7357 10.4424 25.1113 11.344 25.36 12.2839C25.3854 12.3857 25.4393 12.4781 25.5153 12.5504C25.5913 12.6227 25.6863 12.6718 25.7892 12.6921L28.8954 13.3163L28.8864 16.6807Z" fill="#A0AD98"/>
<path d="M15 7.31393C13.4791 7.31334 11.9922 7.76379 10.7273 8.60831C9.46246 9.45284 8.47648 10.6535 7.89405 12.0584C7.31163 13.4634 7.15889 15.0095 7.45523 16.5012C7.75158 17.993 8.48371 19.3633 9.55893 20.4389C10.6341 21.5146 12.0042 22.2472 13.4958 22.5441C14.9874 22.841 16.5336 22.689 17.9388 22.1071C19.3439 21.5252 20.545 20.5397 21.39 19.2751C22.235 18.0106 22.686 16.5239 22.686 15.003C22.686 12.9643 21.8763 11.009 20.435 9.56707C18.9937 8.12517 17.0387 7.31473 15 7.31393ZM15 21.5756C13.7001 21.5756 12.4293 21.1902 11.3484 20.468C10.2676 19.7458 9.42509 18.7192 8.92762 17.5182C8.43016 16.3172 8.30004 14.9957 8.55364 13.7208C8.80725 12.4458 9.43319 11.2747 10.3524 10.3555C11.2716 9.43627 12.4427 8.81028 13.7177 8.55667C14.9926 8.30307 16.3142 8.43322 17.5152 8.93069C18.7162 9.42816 19.7427 10.2706 20.4649 11.3515C21.1871 12.4323 21.5726 13.7031 21.5726 15.003C21.5726 15.866 21.4026 16.7205 21.0722 17.5178C20.7419 18.3151 20.2577 19.0394 19.6473 19.6495C19.037 20.2596 18.3124 20.7434 17.515 21.0734C16.7176 21.4034 15.863 21.573 15 21.5726V21.5756Z" fill="#A0AD98"/>
<path d="M15 9.65186C13.9423 9.65186 12.9082 9.96553 12.0287 10.5532C11.1492 11.1408 10.4638 11.9761 10.059 12.9533C9.65419 13.9306 9.54825 15.0059 9.75461 16.0434C9.96097 17.0808 10.4703 18.0338 11.2183 18.7817C11.9662 19.5297 12.9192 20.039 13.9567 20.2454C14.9941 20.4518 16.0694 20.3458 17.0467 19.941C18.0239 19.5362 18.8592 18.8508 19.4468 17.9713C20.0345 17.0918 20.3481 16.0578 20.3481 15C20.3481 14.2977 20.2098 13.6022 19.941 12.9533C19.6723 12.3045 19.2784 11.7149 18.7817 11.2183C18.2851 10.7217 17.6955 10.3277 17.0467 10.059C16.3978 9.7902 15.7024 9.65186 15 9.65186ZM15 19.2347C14.1625 19.2347 13.3438 18.9863 12.6474 18.521C11.951 18.0557 11.4082 17.3943 11.0876 16.6205C10.7671 15.8468 10.6833 14.9953 10.8467 14.1739C11.01 13.3524 11.4134 12.5978 12.0057 12.0056C12.5979 11.4134 13.3524 11.0101 14.1738 10.8467C14.9953 10.6833 15.8468 10.7672 16.6206 11.0877C17.3944 11.4082 18.0557 11.9509 18.521 12.6473C18.9863 13.3437 19.2347 14.1625 19.2347 15C19.2347 16.1231 18.7885 17.2002 17.9944 17.9944C17.2002 18.7885 16.1232 19.2347 15 19.2347Z" fill="#A0AD98"/>
</g>
<defs>
<clipPath id="clip0_299_2">
<rect width="30" height="30" fill="white"/>
</clipPath>
</defs>
</svg>
