<svg xmlns="http://www.w3.org/2000/svg" width="89" height="169" viewBox="0 0 89 169" fill="none"><path d="M0 0H88.1248V168.157H0V0Z" fill="white"></path><path d="M0 0H88.1248V88.1248H0V0Z" fill="#8D9986"></path><path d="M68.8045 32.2827C69.0823 32.0553 69.3438 31.8081 69.5872 31.543C69.7524 31.3679 69.8874 31.1658 69.9867 30.9451C70.0622 30.7666 70.1016 30.5745 70.1028 30.3802C70.1089 30.0944 70.0278 29.8136 69.8705 29.5766C69.704 29.3416 69.4764 29.1582 69.2133 29.0472C68.9075 28.9203 68.5795 28.8584 68.2494 28.8653C67.9239 28.8587 67.6011 28.9257 67.3041 29.0614C67.0397 29.1857 66.8163 29.3852 66.6608 29.6357C66.5032 29.9023 66.4227 30.2086 66.4285 30.5196V30.6685H67.8406V30.5196C67.8389 30.4381 67.8556 30.3573 67.8894 30.2833C67.9191 30.2258 67.9653 30.1788 68.0218 30.1486C68.0907 30.1165 68.1655 30.0999 68.2413 30.0999C68.317 30.0999 68.3919 30.1165 68.4608 30.1486C68.5178 30.1775 68.5654 30.2227 68.5978 30.2786C68.6343 30.344 68.652 30.4185 68.6489 30.4936C68.6495 30.5687 68.6336 30.643 68.6024 30.7111C68.5621 30.788 68.5104 30.8581 68.4491 30.9191C68.3748 30.9947 68.2866 31.0774 68.1844 31.1554L66.5098 32.5734V33.6559H70.14V32.3915H68.6698L68.8045 32.2827Z" fill="white"></path><path d="M56.3117 59.4194H30.7241V33.3818H48.2432V28.8464H26.2671V63.9524H60.7664V46.3521H56.3117V59.4194Z" fill="white"></path><path d="M58.6272 38.6617H58.518L55.645 28.9032H51.3506L55.9725 42.8638H61.1727L65.7946 28.9032H61.5002L58.6272 38.6617Z" fill="white"></path><path fill-rule="evenodd" clip-rule="evenodd" d="M31.0943 107.663C31.7148 107.114 32.6628 107.172 33.2117 107.793L54.462 131.812C55.0109 132.432 54.9529 133.38 54.3325 133.929C53.712 134.478 52.764 134.42 52.2151 133.8L30.9648 109.78C30.4159 109.16 30.4739 108.212 31.0943 107.663Z" fill="#8D9986"></path><path fill-rule="evenodd" clip-rule="evenodd" d="M55.1129 108.397C55.6987 108.983 55.6987 109.933 55.1129 110.518L32.436 133.195C31.8502 133.781 30.9004 133.781 30.3146 133.195C29.7288 132.609 29.7288 131.66 30.3146 131.074L52.9916 108.397C53.5774 107.811 54.5271 107.811 55.1129 108.397Z" fill="#8D9986"></path></svg>