<?xml version="1.0" encoding="UTF-8"?> <svg xmlns="http://www.w3.org/2000/svg" width="88" height="168" viewBox="0 0 88 168" fill="none"><path d="M0 88H88V168H0V88Z" fill="white"></path><path d="M0 0H88V88H0V0Z" fill="#8D9986"></path><path d="M68.8045 32.2827C69.0823 32.0553 69.3438 31.8081 69.5872 31.543C69.7524 31.3679 69.8874 31.1658 69.9867 30.9451C70.0622 30.7666 70.1016 30.5745 70.1028 30.3802C70.1089 30.0944 70.0278 29.8136 69.8705 29.5766C69.704 29.3416 69.4764 29.1582 69.2133 29.0472C68.9075 28.9203 68.5795 28.8584 68.2494 28.8653C67.9239 28.8587 67.6011 28.9257 67.3041 29.0614C67.0397 29.1857 66.8163 29.3852 66.6608 29.6357C66.5032 29.9023 66.4227 30.2086 66.4285 30.5196V30.6685H67.8406V30.5196C67.8389 30.4381 67.8556 30.3573 67.8894 30.2833C67.9191 30.2258 67.9653 30.1788 68.0218 30.1486C68.0907 30.1165 68.1655 30.0999 68.2413 30.0999C68.317 30.0999 68.3919 30.1165 68.4608 30.1486C68.5178 30.1775 68.5654 30.2227 68.5978 30.2786C68.6343 30.344 68.652 30.4185 68.6489 30.4936C68.6495 30.5687 68.6336 30.643 68.6024 30.7111C68.5621 30.788 68.5104 30.8581 68.4491 30.9191C68.3748 30.9947 68.2866 31.0774 68.1844 31.1554L66.5098 32.5734V33.6559H70.14V32.3915H68.6698L68.8045 32.2827Z" fill="white"></path><path d="M56.3117 59.4194H30.7241V33.3818H48.2432V28.8464H26.2671V63.9524H60.7664V46.3521H56.3117V59.4194Z" fill="white"></path><path d="M58.6272 38.6617H58.518L55.645 28.9032H51.3506L55.9725 42.8638H61.1727L65.7946 28.9032H61.5002L58.6272 38.6617Z" fill="white"></path><path d="M34.6978 143.452L34.6978 153.14L33.4238 153.14L33.4238 145.916L30.2038 153.14L29.3078 153.14L26.0738 145.902L26.0738 153.14L24.7998 153.14L24.7998 143.452L26.1718 143.452L29.7558 151.46L33.3398 143.452L34.6978 143.452Z" fill="#8D9986"></path><path d="M38.1324 144.418L38.1324 147.68L41.6884 147.68L41.6884 148.73L38.1324 148.73L38.1324 152.09L42.1084 152.09L42.1084 153.14L36.8584 153.14L36.8584 143.368L42.1084 143.368L42.1084 144.418L38.1324 144.418Z" fill="#8D9986"></path><path d="M51.7081 153.14L50.4341 153.14L45.3101 145.37L45.3101 153.14L44.0361 153.14L44.0361 143.368L45.3101 143.368L50.4341 151.124L50.4341 143.368L51.7081 143.368L51.7081 153.14Z" fill="#8D9986"></path><path d="M55.1259 143.382L55.1259 149.556C55.1259 150.424 55.3359 151.068 55.7559 151.488C56.1852 151.908 56.7779 152.118 57.5339 152.118C58.2806 152.118 58.8639 151.908 59.2839 151.488C59.7132 151.068 59.9279 150.424 59.9279 149.556L59.9279 143.382L61.2019 143.382L61.2019 149.542C61.2019 150.354 61.0386 151.04 60.7119 151.6C60.3852 152.151 59.9419 152.561 59.3819 152.832C58.8312 153.103 58.2106 153.238 57.5199 153.238C56.8292 153.238 56.2039 153.103 55.6439 152.832C55.0932 152.561 54.6546 152.151 54.3279 151.6C54.0106 151.04 53.8519 150.354 53.8519 149.542L53.8519 143.382L55.1259 143.382Z" fill="#8D9986"></path><path fill-rule="evenodd" clip-rule="evenodd" d="M25.1787 120.796C25.1787 119.967 25.8503 119.296 26.6787 119.296L58.7488 119.296C59.5772 119.296 60.2488 119.967 60.2488 120.796C60.2488 121.624 59.5772 122.296 58.7488 122.296L26.6787 122.296C25.8503 122.296 25.1787 121.624 25.1787 120.796Z" fill="#8D9986"></path><path fill-rule="evenodd" clip-rule="evenodd" d="M25.1787 110.005C25.1787 109.176 25.8503 108.505 26.6787 108.505L58.7488 108.505C59.5772 108.505 60.2488 109.176 60.2488 110.005C60.2488 110.833 59.5772 111.505 58.7488 111.505L26.6787 111.505C25.8503 111.505 25.1787 110.833 25.1787 110.005Z" fill="#8D9986"></path><path fill-rule="evenodd" clip-rule="evenodd" d="M25.0273 131.738C25.0273 130.909 25.6989 130.238 26.5273 130.238L58.8997 130.238C59.7281 130.238 60.3997 130.909 60.3997 131.738C60.3997 132.566 59.7281 133.238 58.8997 133.238L26.5273 133.238C25.6989 133.238 25.0273 132.566 25.0273 131.738Z" fill="#8D9986"></path></svg> 