<svg xmlns="http://www.w3.org/2000/svg" width="51" height="51" viewBox="0 0 51 51" fill="none"><path d="M49.3315 5.84188C48.6073 3.56448 47.6259 1.93382 47.5843 1.86529C47.4234 1.60005 47.092 1.46207 46.7919 1.5309C46.7142 1.54865 44.8608 1.98124 42.7229 3.04897C39.8367 4.48994 37.8205 6.41368 36.8917 8.61124C36.1186 10.4414 36.0076 12.6787 36.5561 15.1504C35.3877 13.8455 34.0734 12.7041 32.6407 11.7431C32.2032 10.8789 31.0465 8.75105 29.2381 6.52718C28.6424 5.79507 27.4967 6.71381 28.0984 7.45326C29.317 8.95205 30.2342 10.4261 30.8078 11.4387L24.1191 10.1348L17.7641 1.46666C18.3812 1.47522 19.0004 1.53488 19.6166 1.65573C21.57 2.03815 23.4996 3.03306 25.3526 4.61232C26.0786 5.23123 27.0215 4.10476 26.305 3.49442C24.258 1.74996 22.1027 0.646129 19.8987 0.21445C16.5343 -0.44393 12.6103 0.420347 8.54989 2.71488C5.52354 4.42508 3.49976 6.30354 3.41532 6.38247C3.14456 6.63549 3.10143 7.09501 3.32813 7.39054C3.62489 7.99936 4.74952 10.1957 6.62155 12.5603C7.72508 13.9545 8.88887 15.1476 10.0927 16.1281C9.75069 16.4148 9.41783 16.7146 9.09568 17.0301C7.37508 18.713 6.05771 20.6983 5.19282 22.8686C4.42828 24.7862 4.0171 26.8491 3.99415 28.9754C3.95622 32.4524 4.96367 35.8058 6.90822 38.6737C8.80779 41.4748 11.4633 43.6256 14.5876 44.8931C15.462 45.2471 16.0148 43.8872 15.1398 43.5323C14.0078 43.0731 12.9444 42.4847 11.9635 41.7851C12.089 41.0894 12.3799 38.5856 10.7168 35.9936C10.484 35.6311 11.18 34.2073 11.5955 33.3568C12.0244 32.4802 12.4671 31.5741 12.6739 30.7208C12.8936 29.8143 12.6464 29.0534 11.9596 28.5196C11.4554 28.1277 10.7955 27.9248 10.2139 27.7459C9.83605 27.6296 9.40774 27.498 9.25477 27.3705C8.93965 27.1064 8.42506 26.1308 8.01143 25.3473C7.55253 24.4781 7.11565 23.6509 6.66959 23.1415C7.67337 20.7576 9.28567 18.6482 11.3049 17.0343C13.1494 18.2908 15.2545 19.1579 17.4922 19.3335C14.8972 21.3441 14.0577 23.9118 15.2576 26.3783C16.6588 29.2584 19.5429 28.7983 22.0874 28.3929C22.5276 28.3225 22.9831 28.25 23.4194 28.1956C23.5831 28.1751 23.6323 28.2197 23.6654 28.2488C24.2225 28.7444 24.206 31.1115 24.194 32.84C24.1778 35.2309 24.1625 37.4894 25.0531 38.6489C25.5074 39.24 26.1472 39.5422 26.897 39.5422C27.3464 39.5422 27.8347 39.4339 28.3469 39.2143C30.5615 38.2659 32.8637 35.4114 32.5125 33.153C32.2057 31.1785 32.0025 29.874 32.4813 28.8224C32.924 27.8493 33.9942 26.9483 36.1018 25.7986C36.3542 26.9351 36.4815 28.1176 36.4683 29.3306C36.4233 33.4712 34.7682 37.3465 31.8082 40.2422C28.5001 43.4784 23.8508 45.0766 19.2516 44.5697C18.3145 44.4681 18.1527 45.9262 19.091 46.0296C24.1252 46.584 29.2151 44.834 32.835 41.2922C36.0758 38.1218 37.8876 33.8796 37.9368 29.3462C38.0023 23.3354 34.9181 18.0103 30.2232 14.9426C31.1933 14.2509 31.9159 13.6528 32.3167 13.3056C34.0284 14.5336 35.5468 16.0465 36.81 17.809C39.8425 22.041 41.0451 27.2001 40.1971 32.3368C38.4456 42.9403 28.3946 50.143 17.7892 48.3909C12.6522 47.5425 8.15339 44.745 5.12093 40.513C2.08816 36.2812 0.885514 31.1216 1.73388 25.9852C1.88624 25.0609 0.438232 24.8183 0.285262 25.7459C-0.627352 31.2697 0.666462 36.8178 3.92685 41.3687C7.18785 45.9189 12.0263 48.9275 17.55 49.8401C18.7052 50.0307 19.8617 50.1249 21.0101 50.1249C25.3514 50.1249 29.5746 48.777 33.1733 46.1982C37.7248 42.9372 40.7337 38.0997 41.6457 32.576C42.3142 28.5284 41.7968 24.4677 40.19 20.7958C40.9316 20.5771 42.1936 20.1525 43.5759 19.4623C46.4615 18.0213 48.4779 16.0975 49.4064 13.9C50.3359 11.7018 50.3099 8.91534 49.3315 5.84188ZM6.71242 26.0326C7.25882 27.0685 7.77556 28.0475 8.31248 28.4966C8.69276 28.8145 9.22203 28.9773 9.78221 29.1495C11.2174 29.5907 11.3841 29.8073 11.2464 30.3748C11.0775 31.0726 10.67 31.906 10.2763 32.7115C9.51787 34.2633 8.80167 35.7281 9.48055 36.7866C10.4433 38.287 10.6082 39.764 10.5917 40.6828C6.21802 36.7389 4.43715 30.5097 6.06628 24.848C6.28227 25.2182 6.50928 25.6483 6.71242 26.0326ZM42.2395 11.6024L40.1527 6.54523C41.1681 5.5956 42.3463 4.88093 43.3498 4.37766C44.2046 3.94873 45.0178 3.62811 45.67 3.4008L42.2395 11.6024ZM47.0238 3.97015C47.3154 4.59671 47.6534 5.4047 47.9422 6.31792C48.2589 7.32018 48.5495 8.56229 48.6073 9.85794L43.7169 11.8756L47.0238 3.97015ZM38.2443 9.18303C38.4609 8.67089 38.7408 8.19608 39.0642 7.75767L41.4398 13.5139L39.308 18.6114C39.0085 17.976 38.6558 17.1414 38.3566 16.1933C37.756 14.295 37.2494 11.5372 38.2443 9.18303ZM42.9487 18.1336C42.126 18.5466 41.341 18.8593 40.7016 19.0847L42.9138 13.796L48.5449 11.4724C48.4632 12.1032 48.3075 12.7286 48.0539 13.3282C47.0593 15.6824 44.7286 17.2411 42.9487 18.1336ZM16.4706 17.7157C16.2112 17.6649 15.9551 17.6028 15.7027 17.5321L23.8297 11.5749L30.5215 12.8791C28.0838 14.7998 22.1513 18.8287 16.4706 17.7157ZM9.04336 13.1214C7.30533 11.2481 6.0314 9.24514 5.2999 7.96265L13.8157 9.62297L9.04336 13.1214ZM10.5474 3.32431L14.1103 8.18415L5.53945 6.51342C6.6185 5.66138 8.39967 4.38225 10.5474 3.32431ZM16.2348 8.59839L11.9152 2.70632C13.2084 2.1749 14.5965 1.75669 16.0194 1.57068L21.995 9.72087L16.2348 8.59839ZM15.7777 10.0054L21.868 11.1924L14.0516 16.9217C12.5776 16.241 11.251 15.2623 10.0903 14.1744L15.7777 10.0054ZM35.7028 24.3447C33.0556 25.7551 31.7593 26.8629 31.1444 28.2142C30.4838 29.6653 30.7258 31.2228 31.0608 33.3785C31.2588 34.6497 29.7481 37.0167 27.7686 37.8645C27.0362 38.178 26.5146 38.141 26.2175 37.754C25.6341 36.9947 25.65 34.6965 25.6626 32.8501C25.68 30.2955 25.6953 28.0894 24.6413 27.1517C24.2623 26.8146 23.7774 26.672 23.2386 26.7381C22.7769 26.7956 22.3085 26.8703 21.8561 26.9425C19.1568 27.3726 17.4582 27.5448 16.5783 25.7358C15.1526 22.8059 18.0386 20.6355 19.3455 19.8386C19.6117 19.6764 19.8586 19.4852 20.088 19.2723C23.2469 18.8947 26.2316 17.5394 28.8914 15.8418C32.0805 17.7472 34.5287 20.7625 35.7028 24.3447Z" fill="#8D9986"></path></svg>