<svg xmlns="http://www.w3.org/2000/svg" width="51" height="51" viewBox="0 0 51 51" fill="none"><g clip-path="url(#clip0_133_85)"><path d="M43.5334 7.45881C39.1909 3.0863 33.4114 0.43496 27.2646 -0.00447298C21.1179 -0.443906 15.02 1.35832 10.0997 5.06864C5.17943 8.77896 1.76983 14.1461 0.502036 20.1768C-0.765757 26.2074 0.194085 32.4931 3.20391 37.8706C3.25154 37.9563 3.3156 38.0318 3.39242 38.0928C3.46925 38.1538 3.55737 38.1991 3.65169 38.226C3.74601 38.253 3.84467 38.2611 3.94212 38.2499C4.03957 38.2387 4.13388 38.2084 4.21963 38.1608C4.30537 38.1131 4.3809 38.0491 4.44189 37.9723C4.50288 37.8954 4.54812 37.8073 4.57507 37.713C4.60202 37.6187 4.6101 37.52 4.59891 37.4226C4.58771 37.3251 4.55746 37.2308 4.50982 37.1451C1.49333 31.7211 0.692639 25.3403 2.27545 19.3392C3.85827 13.3381 7.7018 8.18219 13.001 4.9515C18.3002 1.72082 24.6439 0.665946 30.7034 2.00785C36.763 3.34975 42.0682 6.98431 45.508 12.1503C48.9477 17.3162 50.2551 23.6128 49.1562 29.7211C48.0574 35.8294 44.6376 41.2755 39.6131 44.9188C34.5887 48.5621 28.3493 50.1199 22.202 49.2658C16.0547 48.4118 10.4763 45.2122 6.63528 40.3372C6.51255 40.1812 6.33289 40.0804 6.1358 40.0568C5.9387 40.0333 5.74034 40.089 5.58433 40.2118C5.42832 40.3345 5.32743 40.5142 5.3039 40.7113C5.28037 40.9084 5.33608 41.1067 5.45881 41.2627C7.61978 43.9595 10.3066 46.1888 13.3559 47.815C16.4051 49.4411 19.7532 50.4303 23.1967 50.7223C26.6401 51.0143 30.107 50.6031 33.3866 49.5137C36.6662 48.4242 39.69 46.6793 42.2742 44.3849C44.8585 42.0905 46.9492 39.2946 48.4193 36.1671C49.8895 33.0396 50.7083 29.6458 50.826 26.192C50.9438 22.7382 50.3581 19.2965 49.1044 16.0761C47.8507 12.8557 45.9553 9.92391 43.5334 7.45881Z" fill="#A0AD98"></path><path d="M40.451 12.2039C36.7098 10.7882 32.8274 10.5137 29.5215 11.4196C28.1356 11.7888 26.8368 12.4295 25.7004 13.3047C24.5641 14.1798 23.6129 15.2719 22.902 16.5176C21.6157 18.8471 21.4039 21.4235 22.3373 23.4078C22.9242 24.6336 23.8637 25.6564 25.0353 26.3451C25.0353 26.6039 25.0353 26.8706 25.0353 27.1294V33.2C24.6369 32.5851 24.1869 32.0052 23.6902 31.4667C24.198 30.187 24.2065 28.7633 23.7141 27.4777C23.2216 26.1921 22.2641 25.1384 21.0314 24.5255C19.153 23.5608 16.5529 23.451 14.251 24.2353C10.5726 25.4863 8.92549 27.9098 8.85883 28.0118C8.78841 28.117 8.74598 28.2385 8.73556 28.3647C8.72514 28.491 8.74707 28.6178 8.79927 28.7332C8.85148 28.8485 8.93221 28.9487 9.03389 29.0242C9.13557 29.0997 9.25482 29.1481 9.38038 29.1647C11.0117 29.3882 11.8666 30.4275 12.8588 31.6275C14.0039 33.0196 15.3019 34.5961 17.9568 34.9137C18.1702 34.9403 18.385 34.9534 18.6 34.9529C19.396 34.951 20.1819 34.7745 20.9021 34.4357C21.6224 34.0969 22.2596 33.6041 22.7686 32.9922C22.8118 32.9412 22.851 32.8863 22.8941 32.8314C23.8197 33.8924 24.5058 35.1403 24.9059 36.4902C24.9323 36.5756 24.972 36.6563 25.0235 36.7294V41.3412C25.0372 41.53 25.1219 41.7066 25.2605 41.8355C25.3991 41.9644 25.5813 42.036 25.7706 42.036C25.9599 42.036 26.1421 41.9644 26.2807 41.8355C26.4193 41.7066 26.504 41.53 26.5177 41.3412V27.0431C27.2315 27.2778 27.978 27.3982 28.7294 27.4C28.9294 27.4 29.1216 27.4 29.3372 27.3725C32.1725 27.1216 34.5647 25.1177 35.7373 22.0157C35.8392 21.7412 35.9372 21.451 36.0431 21.1216C36.0788 21.0262 36.0947 20.9246 36.0897 20.8229C36.0848 20.7213 36.0592 20.6217 36.0145 20.5302C35.9698 20.4388 35.9069 20.3574 35.8297 20.291C35.7525 20.2247 35.6626 20.1748 35.5655 20.1444C35.4683 20.1139 35.366 20.1036 35.2647 20.1141C35.1635 20.1245 35.0654 20.1555 34.9765 20.2051C34.8876 20.2547 34.8098 20.3219 34.7477 20.4027C34.6857 20.4834 34.6408 20.5759 34.6157 20.6745C34.5216 20.9765 34.4314 21.2431 34.3372 21.4863C33.3725 24.0392 31.4549 25.6824 29.2039 25.8824C28.3171 25.9612 27.4243 25.8268 26.6 25.4902C27.0941 20.5451 29.6785 19.1412 29.8079 19.0745C29.9852 18.9866 30.1204 18.8319 30.1836 18.6444C30.2468 18.4568 30.233 18.2518 30.1451 18.0745C30.0572 17.8972 29.9025 17.762 29.7149 17.6988C29.5274 17.6355 29.3224 17.6494 29.1451 17.7373C28.9961 17.8078 25.9569 19.3726 25.1961 24.6706C24.5563 24.1766 24.0406 23.5401 23.6902 22.8118C22.9608 21.2627 23.1569 19.1961 24.2118 17.2824C24.8255 16.2084 25.6462 15.2669 26.6263 14.5123C27.6064 13.7578 28.7264 13.2051 29.9216 12.8863C32.5608 12.1569 35.6196 12.2706 38.6588 13.1882C37.6658 14.0453 36.8344 15.0733 36.2039 16.2235C36.1573 16.31 36.1281 16.4048 36.1183 16.5025C36.1084 16.6003 36.118 16.699 36.1464 16.793C36.1749 16.8871 36.2216 16.9746 36.284 17.0505C36.3463 17.1264 36.4231 17.1892 36.5098 17.2353C36.6187 17.2923 36.7399 17.3219 36.8628 17.3216C36.9978 17.322 37.1304 17.2858 37.2465 17.2167C37.3625 17.1477 37.4576 17.0483 37.5216 16.9294C38.2819 15.5736 39.3448 14.4114 40.6275 13.5333C40.754 13.4504 40.8524 13.331 40.9098 13.191C40.9673 13.051 40.9809 12.8969 40.949 12.749C40.9142 12.629 40.8511 12.5191 40.7652 12.4283C40.6792 12.3376 40.5728 12.2687 40.4549 12.2275L40.451 12.2039ZM18.1294 33.4706C16.0588 33.2235 15.0549 32.0078 13.9961 30.7255C13.1725 29.7255 12.2588 28.6196 10.8157 28.0549C11.9288 26.9851 13.2694 26.1807 14.7373 25.702C16.6706 25.0431 18.8196 25.1255 20.353 25.9098C20.8489 26.1509 21.2891 26.4926 21.6456 26.9132C22.0021 27.3339 22.267 27.8242 22.4235 28.3529C22.6203 29.0035 22.6447 29.6941 22.4941 30.3569C21.0285 29.0469 19.2381 28.1544 17.3098 27.7726C17.116 27.7456 16.9192 27.7957 16.7618 27.912C16.6044 28.0283 16.4987 28.2016 16.4674 28.3948C16.4362 28.588 16.4818 28.7858 16.5945 28.9458C16.7073 29.1058 16.8781 29.2154 17.0706 29.251C18.7176 29.5177 20.4353 30.4784 21.8628 31.7922C21.7922 31.8941 21.7176 31.9922 21.6392 32.0863C21.2234 32.5959 20.6852 32.9917 20.0747 33.2365C19.4643 33.4814 18.8017 33.5673 18.149 33.4863L18.1294 33.4706Z" fill="#A0AD98"></path></g><defs><clipPath id="clip0_133_85"><rect width="51" height="51" fill="white"></rect></clipPath></defs></svg>