<svg xmlns="http://www.w3.org/2000/svg" width="50" height="50" viewBox="0 0 50 50" fill="none"><g clip-path="url(#clip0_133_92)"><path d="M48.3428 48.5302V32.9995H46.8766V48.5302H42.4815V15.0623H46.8766V31.5369H48.3428V13.5853H41.0188V48.5302H36.5841L36.6237 25.7151H29.3033L29.26 48.5302H24.9045V19.4827H17.5805V39.1275H19.0432V20.9453H23.4383V48.5302H19.0432V40.6045H17.5805V48.5302H13.1854V33.0896H5.86137V48.5302H1.46624V2.92889H-7.62939e-06V50H50.0036V48.5302H48.3428ZM30.7623 27.1778H35.1574L35.1178 48.5302H30.7443L30.7623 27.1778ZM7.34563 34.5522H11.7372V48.5302H7.32762L7.34563 34.5522Z" fill="#A0AD98"></path><path d="M-3.05176e-05 0H1.46622V1.46264H-3.05176e-05V0Z" fill="#A0AD98"></path><path d="M9.52159 28.6945C10.2461 28.6953 10.9546 28.4811 11.5573 28.0789C12.16 27.6768 12.6297 27.1048 12.9071 26.4355C13.1845 25.7662 13.257 25.0296 13.1154 24.319C12.9738 23.6085 12.6246 22.9559 12.1118 22.444L11.9425 22.2855L18.2794 13.5853C18.3877 13.74 18.5081 13.8858 18.6397 14.0212C19.3271 14.706 20.2578 15.0906 21.2281 15.0906C22.1984 15.0906 23.1292 14.706 23.8166 14.0212C24.0806 13.7596 24.3019 13.4581 24.4722 13.1278L29.3357 17.0906C29.2396 17.6792 29.2888 18.2825 29.479 18.8477C29.6692 19.413 29.9947 19.9233 30.4272 20.3341C30.8596 20.7449 31.3859 21.0437 31.9602 21.2047C32.5345 21.3657 33.1394 21.3839 33.7224 21.2577C34.3053 21.1315 34.8486 20.8648 35.3049 20.4807C35.7613 20.0967 36.1168 19.6069 36.3407 19.0541C36.5645 18.5012 36.6499 17.9021 36.5894 17.3087C36.5288 16.7153 36.3242 16.1458 35.9932 15.6496L42.6616 8.62816C43.4216 9.12494 44.339 9.32181 45.2359 9.18059C46.1329 9.03938 46.9454 8.57015 47.516 7.86387C48.0867 7.1576 48.3747 6.2646 48.3243 5.35802C48.2739 4.45143 47.8887 3.59586 47.2433 2.95718C46.5979 2.3185 45.7384 1.94221 44.8313 1.90128C43.9242 1.86035 43.0343 2.15768 42.334 2.73564C41.6337 3.3136 41.173 4.13099 41.0412 5.02935C40.9093 5.92771 41.1157 6.84302 41.6204 7.59782L34.9665 14.5976C34.2633 14.1412 33.4251 13.9395 32.5913 14.026C31.7575 14.1125 30.9785 14.4821 30.384 15.0731C30.2105 15.2443 30.0548 15.4326 29.9193 15.6351L24.9009 11.5679C24.9188 11.059 24.8303 10.5521 24.6411 10.0794C24.4519 9.60669 24.1661 9.17868 23.8021 8.8227C23.4381 8.46672 23.0038 8.19059 22.527 8.01198C22.0503 7.83336 21.5414 7.75618 21.0331 7.78537C20.5248 7.81456 20.0282 7.94948 19.575 8.1815C19.1218 8.41352 18.722 8.73754 18.4011 9.13286C18.0802 9.52817 17.8454 9.98608 17.7115 10.4773C17.5777 10.9685 17.5478 11.4823 17.6238 11.9857L10.6636 21.5542C10.1607 21.3903 9.62833 21.3374 9.10304 21.399C8.57776 21.4606 8.07207 21.6353 7.62079 21.9111C7.16951 22.1869 6.78337 22.5573 6.48894 22.9966C6.19451 23.436 5.9988 23.9339 5.91527 24.4562C5.83174 24.9784 5.86238 25.5126 6.00509 26.0219C6.1478 26.5311 6.39917 27.0034 6.74192 27.4062C7.08466 27.809 7.51062 28.1328 7.99048 28.3552C8.47034 28.5775 8.9927 28.6933 9.52159 28.6945ZM43.1263 3.98805C43.4335 3.68038 43.8251 3.47074 44.2514 3.38567C44.6778 3.3006 45.1198 3.34392 45.5216 3.51015C45.9233 3.67637 46.2668 3.95804 46.5084 4.3195C46.75 4.68096 46.879 5.10598 46.879 5.54076C46.879 5.97554 46.75 6.40055 46.5084 6.76202C46.2668 7.12348 45.9233 7.40514 45.5216 7.57137C45.1198 7.7376 44.6778 7.78092 44.2514 7.69585C43.8251 7.61078 43.4335 7.40114 43.1263 7.09346C42.9217 6.88993 42.7594 6.64798 42.6486 6.38152C42.5379 6.11505 42.4809 5.82933 42.4809 5.54076C42.4809 5.25219 42.5379 4.96646 42.6486 4.7C42.7594 4.43354 42.9217 4.19159 43.1263 3.98805ZM31.4072 16.1071C31.7146 15.7999 32.1061 15.5908 32.5324 15.5061C32.9586 15.4215 33.4004 15.4651 33.8018 15.6315C34.2033 15.7978 34.5464 16.0795 34.7878 16.4409C35.0292 16.8022 35.158 17.227 35.158 17.6616C35.158 18.0962 35.0292 18.521 34.7878 18.8823C34.5464 19.2437 34.2033 19.5253 33.8018 19.6917C33.4004 19.8581 32.9586 19.9017 32.5324 19.8171C32.1061 19.7324 31.7146 19.5233 31.4072 19.2161C30.9956 18.8035 30.7644 18.2444 30.7644 17.6616C30.7644 17.0788 30.9956 16.5197 31.4072 16.1071ZM19.688 9.87104C19.9954 9.56388 20.387 9.35474 20.8132 9.27009C21.2395 9.18543 21.6812 9.22905 22.0827 9.39543C22.4842 9.5618 22.8273 9.84347 23.0687 10.2048C23.3101 10.5662 23.4389 10.991 23.4389 11.4255C23.4389 11.8601 23.3101 12.2849 23.0687 12.6463C22.8273 13.0076 22.4842 13.2893 22.0827 13.4557C21.6812 13.6221 21.2395 13.6657 20.8132 13.581C20.387 13.4964 19.9954 13.2872 19.688 12.9801C19.2764 12.5674 19.0453 12.0084 19.0453 11.4255C19.0453 10.8427 19.2764 10.2837 19.688 9.87104ZM7.96889 23.4815C8.27609 23.1739 8.66763 22.9642 9.09401 22.8792C9.52039 22.7941 9.96243 22.8374 10.3642 23.0036C10.7659 23.1699 11.1094 23.4515 11.351 23.813C11.5926 24.1744 11.7216 24.5995 11.7216 25.0342C11.7216 25.469 11.5926 25.894 11.351 26.2555C11.1094 26.617 10.7659 26.8986 10.3642 27.0649C9.96243 27.2311 9.52039 27.2744 9.09401 27.1893C8.66763 27.1043 8.27609 26.8946 7.96889 26.5869C7.76433 26.3834 7.60198 26.1415 7.49121 25.875C7.38045 25.6085 7.32344 25.3228 7.32344 25.0342C7.32344 24.7457 7.38045 24.4599 7.49121 24.1935C7.60198 23.927 7.76433 23.6851 7.96889 23.4815Z" fill="#A0AD98"></path><path d="M8.79026 45.6049H10.2565V47.0891H8.79026V45.6049Z" fill="#A0AD98"></path><path d="M43.9477 23.1645H45.4139V24.6307H43.9477V23.1645Z" fill="#A0AD98"></path><path d="M43.9477 17.3067H45.4139V21.7019H43.9477V17.3067Z" fill="#A0AD98"></path><path d="M20.5094 23.1429H21.9756V27.538H20.5094V23.1429Z" fill="#A0AD98"></path><path d="M20.5094 29.0006H21.9756V30.4669H20.5094V29.0006Z" fill="#A0AD98"></path><path d="M32.2285 41.9447H33.6948V46.3362H32.2285V41.9447Z" fill="#A0AD98"></path><path d="M32.2285 39.0122H33.6948V40.4784H32.2285V39.0122Z" fill="#A0AD98"></path></g><defs><clipPath id="clip0_133_92"><rect width="50" height="50" fill="white"></rect></clipPath></defs></svg>