<svg xmlns="http://www.w3.org/2000/svg" width="60" height="39" viewBox="0 0 60 39" fill="none"><g clip-path="url(#clip0_118_7)"><path d="M58.4205 32.8437H55.0204V31.6011C55.0167 26.7083 53.614 21.9211 50.9815 17.8169C48.349 13.7127 44.5992 10.4668 40.1843 8.47064C40.079 8.42315 39.9655 8.39711 39.8503 8.394C39.7351 8.39089 39.6204 8.41078 39.5128 8.45252C39.4052 8.49426 39.3067 8.55704 39.2231 8.63727C39.1394 8.71751 39.0722 8.81363 39.0253 8.92014C38.9784 9.02666 38.9526 9.14148 38.9495 9.25806C38.9464 9.37464 38.9661 9.49069 39.0074 9.59959C39.0486 9.70849 39.1107 9.80809 39.19 9.89273C39.2693 9.97736 39.3643 10.0454 39.4696 10.0928C43.5747 11.9489 47.0614 14.9672 49.5089 18.7836C51.9565 22.6001 53.2603 27.0516 53.2631 31.6011V32.8437H44.5755C45.4161 31.9706 45.8901 30.8022 45.8984 29.5833C45.8984 27.1061 43.9239 25.0403 41.3058 24.6208C41.4322 24.1729 41.6623 23.762 41.9771 23.4221C42.0712 23.3401 42.147 23.2388 42.1997 23.125C42.2523 23.0112 42.2806 22.8874 42.2826 22.7617C42.2846 22.636 42.2604 22.5114 42.2114 22.3959C42.1624 22.2804 42.0898 22.1767 41.9984 22.0916C41.907 22.0065 41.7989 21.9419 41.6811 21.9021C41.5633 21.8623 41.4385 21.8482 41.3149 21.8606C41.1913 21.8731 41.0717 21.9118 40.9639 21.9744C40.8562 22.0369 40.7628 22.1218 40.6898 22.2234C40.076 22.8817 39.6644 23.7063 39.5051 24.5968C36.8238 24.9564 34.7664 27.0541 34.7664 29.5793C34.774 30.7991 35.2498 31.9682 36.0932 32.8397H27.0422L26.9949 32.7918C27.8806 31.7552 28.5511 30.5489 28.9663 29.2446C29.3815 27.9404 29.5329 26.5649 29.4116 25.2002C29.1312 21.9278 27.3897 18.5875 24.3688 15.5308C22.5547 13.7697 20.4445 12.3503 18.1374 11.3395C21.7309 9.17421 25.8373 8.03503 30.0197 8.04311C32.0318 8.04896 34.0346 8.31755 35.9787 8.84223C36.2038 8.90263 36.4435 8.87005 36.645 8.75166C36.8464 8.63327 36.9931 8.43876 37.0528 8.21093C37.1125 7.98309 37.0803 7.7406 36.9633 7.53678C36.8463 7.33297 36.654 7.18453 36.4289 7.12413C35.2463 6.80851 34.0427 6.58016 32.8274 6.44088C32.9083 6.07276 33.1001 5.7391 33.3763 5.48594C33.7332 5.16439 34.0119 4.76381 34.1907 4.31541C34.3694 3.86701 34.4435 3.38289 34.407 2.90079C34.334 2.10528 33.9692 1.36628 33.3844 0.829368C32.7997 0.29246 32.0375 -0.00342574 31.2479 -1.11901e-06H28.7245C28.3176 -0.00109731 27.9145 0.0791729 27.5384 0.236197C27.1623 0.393222 26.8206 0.623902 26.5329 0.914985C26.2347 1.21593 26.0001 1.57505 25.8433 1.97053C25.6866 2.36602 25.6109 2.78961 25.6208 3.2156C25.6308 3.64159 25.7262 4.06109 25.9013 4.44862C26.0764 4.83615 26.3276 5.18363 26.6394 5.46995C26.9196 5.72965 27.1175 6.06751 27.2081 6.44088C23.2429 6.88755 19.4422 8.29367 16.1274 10.5404C14.9094 10.0967 13.6642 9.73364 12.3996 9.45355C9.07859 8.71837 4.65972 8.40272 3.14728 9.92903C2.50755 10.5803 2.14822 11.799 2.08504 13.561C2.07398 13.6817 2.08737 13.8035 2.12443 13.9188C2.16148 14.0341 2.22139 14.1406 2.30052 14.2316C2.37964 14.3227 2.47631 14.3964 2.58459 14.4484C2.69286 14.5003 2.81051 14.5294 2.93026 14.5337C3.05002 14.5381 3.16936 14.5177 3.28105 14.4737C3.39273 14.4298 3.49439 14.3632 3.57977 14.2782C3.66516 14.1931 3.73246 14.0913 3.7776 13.9789C3.82275 13.8666 3.84476 13.7462 3.8423 13.6249C3.89363 12.1825 4.17006 11.4114 4.3912 11.1876C4.94405 10.6283 7.75177 10.2447 12.0245 11.1876C16.5381 12.1865 20.5858 14.2363 23.1249 16.8054C25.8457 19.5584 27.4135 22.5191 27.6543 25.368C27.7582 26.472 27.6426 27.5859 27.3143 28.6441C26.9861 29.7022 26.4518 30.6832 25.7431 31.5292L23.3737 29.1118L24.8427 24.3171C24.8948 24.0972 24.8622 23.8655 24.7517 23.669C24.6412 23.4724 24.461 23.3258 24.2475 23.2587C24.0341 23.1916 23.8034 23.2092 23.6023 23.3078C23.4012 23.4064 23.2447 23.5787 23.1644 23.7897L21.9797 27.6774L18.7337 24.393L20.2027 19.5983C20.246 19.4845 20.2657 19.3629 20.2607 19.241C20.2556 19.1192 20.2258 18.9997 20.1733 18.8899C20.1207 18.7802 20.0464 18.6825 19.955 18.603C19.8637 18.5234 19.7571 18.4637 19.642 18.4275C19.5269 18.3914 19.4057 18.3795 19.2858 18.3926C19.166 18.4058 19.0501 18.4437 18.9453 18.504C18.8405 18.5643 18.7492 18.6458 18.6768 18.7433C18.6044 18.8408 18.5525 18.9523 18.5244 19.0709L17.3398 22.9586L14.2201 19.8021L15.3376 16.1701C15.3809 16.0563 15.4006 15.9347 15.3956 15.8128C15.3905 15.691 15.3608 15.5715 15.3082 15.4617C15.2556 15.3519 15.1814 15.2543 15.09 15.1747C14.9986 15.0952 14.8921 15.0355 14.7769 14.9993C14.6618 14.9632 14.5406 14.9513 14.4208 14.9644C14.3009 14.9776 14.185 15.0155 14.0802 15.0758C13.9755 15.1361 13.8841 15.2176 13.8116 15.3151C13.7392 15.4126 13.6874 15.5241 13.6593 15.6427L12.8143 18.3797L10.7885 16.33C10.7084 16.2406 10.6111 16.1687 10.5027 16.1185C10.3943 16.0683 10.2769 16.0409 10.1577 16.038C10.0385 16.0351 9.91996 16.0567 9.80926 16.1015C9.69856 16.1463 9.59798 16.2134 9.51367 16.2987C9.42936 16.384 9.36307 16.4858 9.31878 16.5978C9.27449 16.7098 9.25313 16.8297 9.25602 16.9503C9.2589 17.0709 9.28596 17.1897 9.33556 17.2994C9.38515 17.4091 9.45628 17.5075 9.54457 17.5886L11.5743 19.6383L8.86537 20.4894C8.66412 20.5525 8.49191 20.6865 8.37999 20.8671C8.26808 21.0478 8.22385 21.263 8.25539 21.4738C8.28692 21.6846 8.39211 21.8769 8.55184 22.0159C8.71158 22.1549 8.91527 22.2314 9.12596 22.2314C9.21456 22.2305 9.3025 22.2157 9.3866 22.1875L12.9762 21.0607L16.0958 24.2172L12.2535 25.4159C12.0552 25.4813 11.8863 25.6158 11.7769 25.7954C11.6674 25.975 11.6245 26.1881 11.6558 26.3967C11.6871 26.6054 11.7905 26.796 11.9477 26.9347C12.1049 27.0733 12.3056 27.1511 12.5142 27.154C12.6024 27.1525 12.69 27.139 12.7748 27.114L17.5135 25.6237L20.7595 28.9121L16.9172 30.1107C16.7189 30.1761 16.55 30.3106 16.4405 30.4902C16.3311 30.6698 16.2882 30.8829 16.3195 31.0915C16.3507 31.3002 16.4542 31.4908 16.6114 31.6295C16.7686 31.7681 16.9693 31.8459 17.1778 31.8488C17.2662 31.8492 17.3542 31.8358 17.4385 31.8089L22.1772 30.3225L24.5465 32.7199L24.4833 32.7718H13.2921C12.097 31.9969 10.9911 31.0896 9.99475 30.0668C7.11204 27.154 4.9243 22.3353 4.13846 17.181C4.09114 16.9589 3.96175 16.7635 3.77674 16.6347C3.59172 16.5059 3.36506 16.4535 3.14313 16.4882C2.92121 16.5229 2.72076 16.6421 2.5828 16.8214C2.44484 17.0007 2.37978 17.2265 2.40093 17.4527C2.89196 20.7227 3.93239 23.8835 5.47716 26.7984C5.16632 28.3803 5.0037 29.9883 4.99145 31.6011V32.8437H1.59538C1.17645 32.8437 0.774655 33.0121 0.478428 33.3118C0.182201 33.6116 0.0158081 34.0181 0.0158081 34.4419C0.0168534 35.4324 0.406185 36.3821 1.09839 37.0824C1.79059 37.7828 2.72912 38.1768 3.70805 38.1778H48.7772C49 38.1627 49.2088 38.0625 49.3614 37.8974C49.514 37.7323 49.5988 37.5148 49.5988 37.2888C49.5988 37.0628 49.514 36.8453 49.3614 36.6802C49.2088 36.5152 49 36.4149 48.7772 36.3998H3.69223C3.2094 36.3989 2.74427 36.2157 2.38786 35.8861C2.03145 35.5565 1.80941 35.1042 1.76516 34.6178H58.2348C58.19 35.1001 57.9704 35.5486 57.6182 35.8769C57.2661 36.2052 56.8063 36.39 56.3275 36.3958H52.5128C52.3925 36.3876 52.2718 36.4046 52.1582 36.4455C52.0446 36.4865 51.9405 36.5507 51.8524 36.634C51.7643 36.7174 51.6941 36.8181 51.6461 36.9301C51.598 37.042 51.5733 37.1628 51.5733 37.2848C51.5733 37.4068 51.598 37.5276 51.6461 37.6395C51.6941 37.7515 51.7643 37.8522 51.8524 37.9356C51.9405 38.0189 52.0446 38.0831 52.1582 38.1241C52.2718 38.1651 52.3925 38.182 52.5128 38.1738H56.3275C57.3064 38.1728 58.245 37.7788 58.9372 37.0784C59.6294 36.3781 60.0187 35.4284 60.0197 34.438C60.0197 34.0141 59.8533 33.6076 59.5571 33.3078C59.2609 33.0081 58.8591 32.8397 58.4402 32.8397L58.4205 32.8437ZM27.8005 4.14742C27.6689 4.02447 27.5636 3.87565 27.491 3.71007C27.4183 3.54449 27.3798 3.36563 27.3779 3.18448C27.3727 3.00247 27.4051 2.82138 27.4731 2.6528C27.5411 2.48422 27.6432 2.33188 27.7728 2.20556C27.8982 2.07853 28.0472 1.97784 28.2112 1.90927C28.3752 1.8407 28.551 1.80561 28.7284 1.806H31.2518C31.5988 1.80015 31.9353 1.9262 32.1948 2.15924C32.4544 2.39227 32.6182 2.71535 32.6537 3.06461C32.6687 3.27415 32.6359 3.48438 32.5579 3.67906C32.4798 3.87374 32.3586 4.04766 32.2035 4.18737C31.5913 4.74909 31.1884 5.50658 31.0623 6.333C30.7148 6.333 30.3673 6.333 30.0197 6.333C29.6722 6.333 29.3247 6.333 28.9772 6.333C28.8445 5.50184 28.4366 4.74101 27.8202 4.17538L27.8005 4.14742ZM36.4881 29.5833C36.4881 27.7893 38.194 26.3269 40.2909 26.3229C42.3878 26.3229 44.0937 27.7893 44.0937 29.5833C44.0937 31.3773 42.3838 32.8437 40.287 32.8437C38.1901 32.8437 36.5039 31.3813 36.5039 29.6033L36.4881 29.5833ZM6.73689 31.6011C6.73822 30.8004 6.77905 30.0003 6.85928 29.2037C7.40897 29.9851 8.02043 30.72 8.68764 31.4013C9.21416 31.9207 9.74068 32.4029 10.2672 32.8477H6.75265L6.73689 31.6011Z" fill="#A0AD98"></path></g><defs><clipPath id="clip0_118_7"><rect width="60" height="38.1818" fill="white"></rect></clipPath></defs></svg>