<svg xmlns="http://www.w3.org/2000/svg" width="47" height="47" viewBox="0 0 47 47" fill="none"><path d="M5.27698 26.2623C4.83723 26.2623 4.54407 25.9769 4.54407 25.5487V14.7012C4.54407 14.273 4.83723 13.9875 5.27698 13.9875C5.71673 13.9875 6.0099 14.273 6.0099 14.7012V25.5487C6.0099 25.9055 5.64344 26.2623 5.27698 26.2623Z" fill="#8D9986"></path><path d="M41.0432 26.2623C40.6035 26.2623 40.3103 25.9769 40.3103 25.5487V14.7012C40.3103 14.273 40.6035 13.9875 41.0432 13.9875C41.483 13.9875 41.7761 14.273 41.7761 14.7012V25.5487C41.7761 25.9055 41.483 26.2623 41.0432 26.2623Z" fill="#8D9986"></path><path d="M40.0171 43.5326H6.30306C4.2509 43.5326 2.63849 41.9626 2.63849 39.9644V29.7592C2.63849 29.331 2.93165 29.0455 3.3714 29.0455C3.81115 29.0455 4.10432 29.331 4.10432 29.7592V39.9644C4.10432 41.1776 5.05711 42.1053 6.30306 42.1053H40.0171C41.2631 42.1053 42.2159 41.1776 42.2159 39.9644V29.7592C42.2159 29.331 42.509 29.0455 42.9488 29.0455C43.3885 29.0455 43.6817 29.331 43.6817 29.7592V39.9644C43.6817 41.8912 41.996 43.5326 40.0171 43.5326Z" fill="#8D9986"></path><path d="M43.3885 30.4729H2.93166C1.31925 30.4729 0 29.1883 0 27.6183C0 26.0482 1.31925 24.7637 2.93166 24.7637H43.3152C44.9276 24.7637 46.2469 26.0482 46.2469 27.6183C46.2469 29.1883 44.9276 30.4729 43.3885 30.4729ZM2.93166 26.2623C2.12545 26.2623 1.46583 26.9046 1.46583 27.6896C1.46583 28.4746 2.12545 29.1169 2.93166 29.1169H43.3152C44.1214 29.1169 44.7811 28.4746 44.7811 27.6896C44.7811 26.9046 44.1214 26.2623 43.3152 26.2623H2.93166Z" fill="#8D9986"></path><path d="M14.2185 15.4148C11.3602 15.4148 9.01483 13.1311 9.01483 10.3479V9.1347C9.01483 8.70651 9.308 8.42105 9.74775 8.42105H18.6893C19.129 8.42105 19.4222 8.70651 19.4222 9.1347V10.3479C19.4222 13.1311 17.0769 15.4148 14.2185 15.4148ZM10.4807 9.84835V10.3479C10.4807 12.3461 12.1664 13.9875 14.2185 13.9875C16.2707 13.9875 17.9564 12.3461 17.9564 10.3479V9.84835H10.4807Z" fill="#8D9986"></path><path d="M32.1016 15.4148C29.2433 15.4148 26.8979 13.1311 26.8979 10.3479V9.1347C26.8979 8.70651 27.1911 8.42105 27.6309 8.42105H36.5724C37.0122 8.42105 37.3053 8.70651 37.3053 9.1347V10.3479C37.3053 13.1311 34.96 15.4148 32.1016 15.4148ZM28.3638 9.84835V10.3479C28.3638 12.3461 30.0495 13.9875 32.1016 13.9875C34.1538 13.9875 35.8395 12.3461 35.8395 10.3479V9.84835H28.3638Z" fill="#8D9986"></path><path d="M18.6893 9.84837H9.74774C9.52787 9.84837 9.30799 9.70564 9.16141 9.56291C9.01483 9.34881 9.01483 9.13472 9.08812 8.92062L12.3129 0.499555C12.3862 0.214095 12.6794 0.0713654 12.9726 0.0713654H19.7887C20.0085 0.0713654 20.2284 0.14273 20.3017 0.28546C20.4483 0.42819 20.5216 0.642285 20.4483 0.85638L19.3489 9.27745C19.3489 9.56291 19.0558 9.84837 18.6893 9.84837ZM10.7738 8.42107H18.0297L18.9092 1.4273H13.4856L10.7738 8.42107Z" fill="#8D9986"></path><path d="M36.5724 9.84838H27.6309C27.2644 9.84838 26.9712 9.56292 26.898 9.2061L25.7986 0.78503C25.7986 0.570935 25.8719 0.35684 25.9452 0.21411C26.0918 0.0713803 26.3116 1.52588e-05 26.5315 1.52588e-05H33.3476C33.6408 1.52588e-05 33.9339 0.21411 34.0072 0.428205L37.232 8.84927C37.3053 9.06337 37.3053 9.34883 37.1588 9.49156C37.0122 9.70565 36.7923 9.84838 36.5724 9.84838ZM28.2905 8.42108H35.5463L32.8346 1.42731H27.411L28.2905 8.42108Z" fill="#8D9986"></path><path d="M23.1601 15.4148C20.3017 15.4148 17.9564 13.1311 17.9564 10.3479V9.1347C17.9564 8.70651 18.2496 8.42105 18.6893 8.42105H27.6309C28.0706 8.42105 28.3638 8.70651 28.3638 9.1347V10.3479C28.3638 13.1311 26.0184 15.4148 23.1601 15.4148ZM19.4222 9.84835V10.3479C19.4222 12.3461 21.1079 13.9875 23.1601 13.9875C25.2122 13.9875 26.8979 12.3461 26.8979 10.3479V9.84835H19.4222Z" fill="#8D9986"></path><path d="M41.0432 15.4148C38.1848 15.4148 35.8395 13.1311 35.8395 10.3479V9.1347C35.8395 8.70651 36.1327 8.42105 36.5724 8.42105H45.514C45.9537 8.42105 46.2469 8.70651 46.2469 9.1347V10.3479C46.2469 13.1311 43.9016 15.4148 41.0432 15.4148ZM37.3053 9.84835V10.3479C37.3053 12.3461 38.991 13.9875 41.0432 13.9875C43.0954 13.9875 44.7811 12.3461 44.7811 10.3479V9.84835H37.3053Z" fill="#8D9986"></path><path d="M27.6309 9.84838H18.6893C18.4694 9.84838 18.2496 9.77702 18.1763 9.63429C18.0297 9.49156 17.9564 9.27746 18.0297 9.06337L19.1291 0.6423C19.2024 0.285475 19.4955 1.52588e-05 19.862 1.52588e-05H26.6781C27.0445 1.52588e-05 27.3377 0.285475 27.411 0.6423L28.3638 9.06337C28.3638 9.27746 28.2905 9.49156 28.2172 9.63429C28.0706 9.77702 27.8507 9.84838 27.6309 9.84838ZM19.4955 8.42108H26.8247L25.9452 1.42731H20.4483L19.4955 8.42108Z" fill="#8D9986"></path><path d="M45.514 9.84838H36.5724C36.2793 9.84838 35.9861 9.63429 35.9128 9.42019L32.6147 0.92776C32.5414 0.713665 32.5414 0.428205 32.688 0.285475C32.8346 0.0713802 33.0544 1.52588e-05 33.2743 1.52588e-05H38.3314C39.6507 1.52588e-05 40.8966 0.713665 41.5563 1.8555L46.027 8.63518C46.1736 8.77791 46.2469 8.92064 46.2469 9.13473C46.2469 9.49156 45.9537 9.84838 45.514 9.84838ZM37.0855 8.42108H44.1947L40.3103 2.56915C39.8706 1.8555 39.2109 1.42731 38.4047 1.42731H34.447L37.0855 8.42108Z" fill="#8D9986"></path><path d="M5.27699 15.4148C2.41863 15.4148 0.0733032 13.1311 0.0733032 10.3479V9.1347C0.0733032 8.70651 0.366469 8.42105 0.806217 8.42105H9.74777C10.1875 8.42105 10.4807 8.70651 10.4807 9.1347V10.3479C10.4807 13.1311 8.13536 15.4148 5.27699 15.4148ZM1.53913 9.84835V10.3479C1.53913 12.3461 3.22483 13.9875 5.27699 13.9875C7.32915 13.9875 9.01486 12.3461 9.01486 10.3479V9.84835H1.53913Z" fill="#8D9986"></path><path d="M9.74777 9.84837H0.806212C0.513046 9.84837 0.293172 9.70564 0.146589 9.49154C5.90086e-06 9.27745 5.90086e-06 8.99199 0.146589 8.77789L4.76395 1.85549C5.35028 0.785015 6.59623 0.0713654 7.91548 0.0713654H12.9726C13.1925 0.0713654 13.4123 0.214095 13.5589 0.356825C13.7055 0.57092 13.7055 0.785015 13.6322 0.99911L10.4074 9.42018C10.3341 9.63427 10.0409 9.84837 9.74777 9.84837ZM2.12546 8.42107H9.23473L11.9465 1.4273H7.98877C7.18257 1.4273 6.44965 1.85549 6.08319 2.56914L2.12546 8.42107Z" fill="#8D9986"></path><path d="M13.9254 46.6727H7.76889C7.32915 46.6727 7.03598 46.3872 7.03598 45.959V42.819C7.03598 42.3908 7.32915 42.1053 7.76889 42.1053H13.9987C14.4384 42.1053 14.7316 42.3908 14.7316 42.819V45.959C14.6583 46.3872 14.3651 46.6727 13.9254 46.6727ZM8.50181 45.2454H13.2658V43.5326H8.50181V45.2454Z" fill="#8D9986"></path><path d="M38.5513 46.6727H32.3215C31.8818 46.6727 31.5886 46.3872 31.5886 45.959V42.819C31.5886 42.3908 31.8818 42.1053 32.3215 42.1053H38.5513C38.9911 42.1053 39.2842 42.3908 39.2842 42.819V45.959C39.2842 46.3872 38.9911 46.6727 38.5513 46.6727ZM33.1277 45.2454H37.8184V43.5326H33.0545V45.2454H33.1277Z" fill="#8D9986"></path></svg>