<svg width="23" height="26" viewBox="0 0 23 26" fill="none" xmlns="http://www.w3.org/2000/svg">
<path d="M6.09687 19.8245L6.09687 25.9381L5.31213 25.9381L5.31213 21.3794L3.3287 25.9381L2.77679 25.9381L0.784746 21.3706L0.784746 25.9381L-9.43729e-10 25.9381L0 19.8245L0.845111 19.8245L3.05275 24.878L5.26039 19.8245L6.09687 19.8245Z" fill="#8D9986"/>
<path d="M8.21248 20.4341L8.21248 22.4926L10.4029 22.4926L10.4029 23.1552L8.21248 23.1552L8.21248 25.2755L10.6616 25.2755L10.6616 25.9381L7.42774 25.9381L7.42774 19.7715L10.6616 19.7715L10.6616 20.4341L8.21248 20.4341Z" fill="#8D9986"/>
<path d="M16.5747 25.9381L15.79 25.9381L12.6338 21.0349L12.6338 25.9381L11.849 25.9381L11.849 19.7715L12.6338 19.7715L15.79 24.6659L15.79 19.7715L16.5747 19.7715L16.5747 25.9381Z" fill="#8D9986"/>
<path d="M18.68 19.7803L18.68 23.6764C18.68 24.2242 18.8093 24.6306 19.068 24.8956C19.3325 25.1607 19.6976 25.2932 20.1632 25.2932C20.6231 25.2932 20.9825 25.1607 21.2412 24.8956C21.5056 24.6306 21.6379 24.2242 21.6379 23.6764L21.6379 19.7803L22.4226 19.7803L22.4226 23.6676C22.4226 24.18 22.322 24.6129 22.1208 24.9663C21.9196 25.3138 21.6465 25.573 21.3015 25.7438C20.9623 25.9146 20.58 26 20.1546 26C19.7292 26 19.344 25.9146 18.999 25.7438C18.6598 25.573 18.3896 25.3138 18.1884 24.9663C17.993 24.6129 17.8952 24.18 17.8952 23.6676L17.8952 19.7803L18.68 19.7803Z" fill="#8D9986"/>
<path fill-rule="evenodd" clip-rule="evenodd" d="M-9.203e-08 7.78559C-4.12032e-08 7.26961 0.417453 6.85132 0.932408 6.85132L20.8673 6.85132C21.3823 6.85132 21.7998 7.26961 21.7998 7.78559C21.7998 8.30158 21.3823 8.71987 20.8673 8.71987L0.932408 8.71987C0.417453 8.71987 -1.42857e-07 8.30158 -9.203e-08 7.78559Z" fill="#8D9986"/>
<path fill-rule="evenodd" clip-rule="evenodd" d="M-9.203e-08 0.934274C-4.12032e-08 0.418289 0.417453 3.23894e-08 0.932408 7.23437e-08L20.8673 1.61905e-06C21.3823 1.65901e-06 21.7998 0.418291 21.7998 0.934276C21.7998 1.45026 21.3823 1.86855 20.8673 1.86855L0.932408 1.86855C0.417453 1.86855 -1.42857e-07 1.45026 -9.203e-08 0.934274Z" fill="#8D9986"/>
<path fill-rule="evenodd" clip-rule="evenodd" d="M-9.203e-08 14.0141C-4.12032e-08 13.4981 0.413886 13.0798 0.92444 13.0798L20.8753 13.0798C21.3859 13.0798 21.7998 13.4981 21.7998 14.0141C21.7998 14.5301 21.3859 14.9484 20.8753 14.9484L0.924439 14.9484C0.413886 14.9484 -1.42857e-07 14.5301 -9.203e-08 14.0141Z" fill="#8D9986"/>
</svg>
