<svg xmlns="http://www.w3.org/2000/svg" width="51" height="51" viewBox="0 0 51 51" fill="none"><g clip-path="url(#clip0_133_104)"><path d="M4.01916 49.5042H0.751553C0.649197 49.497 0.546453 49.511 0.449736 49.5453C0.35302 49.5795 0.264395 49.6333 0.189358 49.7033C0.114322 49.7733 0.0544972 49.858 0.0135864 49.9521C-0.0273245 50.0462 -0.048439 50.1477 -0.048439 50.2503C-0.048439 50.3529 -0.0273245 50.4544 0.0135864 50.5485C0.0544972 50.6426 0.114322 50.7272 0.189358 50.7972C0.264395 50.8672 0.35302 50.921 0.449736 50.9553C0.546453 50.9895 0.649197 51.0035 0.751553 50.9964H4.01916C4.12151 51.0035 4.22423 50.9895 4.32095 50.9553C4.41767 50.921 4.50631 50.8672 4.58135 50.7972C4.65639 50.7272 4.71621 50.6426 4.75712 50.5485C4.79803 50.4544 4.81915 50.3529 4.81915 50.2503C4.81915 50.1477 4.79803 50.0462 4.75712 49.9521C4.71621 49.858 4.65639 49.7733 4.58135 49.7033C4.50631 49.6333 4.41767 49.5795 4.32095 49.5453C4.22423 49.511 4.12151 49.497 4.01916 49.5042Z" fill="#A0AD98"></path><path d="M42.3735 42.0649C42.5098 41.9205 42.5831 41.7278 42.5773 41.5294C42.5715 41.3309 42.4871 41.1428 42.3427 41.0066C42.1982 40.8703 42.0056 40.797 41.8071 40.8028C41.6086 40.8086 41.4206 40.893 41.2843 41.0375C40.4752 41.8884 39.5999 42.6739 38.6666 43.3865C35.9981 43.3175 35.1449 42.0976 34.2445 40.8124C33.3913 39.5961 32.4291 38.2164 30.0293 38.2164C27.9925 38.2164 26.4204 38.8917 25.0335 39.4908C23.436 40.177 22.2814 40.6708 20.949 39.9846C20.0086 39.4981 19.4422 37.8062 18.8396 36.009C17.8556 33.0609 16.6285 29.3903 12.7945 29.3903C10.4418 29.3903 10.282 31.0931 10.1768 32.2186C10.0315 33.787 9.89358 35.272 5.72558 35.37C5.01557 33.8789 4.47953 32.311 4.12807 30.6973C5.18758 30.4436 6.17681 29.9559 7.0231 29.2698C7.86939 28.5837 8.55124 27.7168 9.01857 26.7326H11.8069C11.9958 26.7194 12.1727 26.6351 12.3018 26.4966C12.431 26.3582 12.5028 26.1759 12.5028 25.9865C12.5028 25.7972 12.431 25.6149 12.3018 25.4764C12.1727 25.3379 11.9958 25.2536 11.8069 25.2404H0.747922C0.645566 25.2333 0.542844 25.2473 0.446127 25.2815C0.34941 25.3158 0.260763 25.3696 0.185727 25.4396C0.11069 25.5095 0.0508656 25.5942 0.00995478 25.6883C-0.0309561 25.7824 -0.0520706 25.8839 -0.0520706 25.9865C-0.0520706 26.0891 -0.0309561 26.1906 0.00995478 26.2847C0.0508656 26.3788 0.11069 26.4635 0.185727 26.5335C0.260763 26.6035 0.34941 26.6573 0.446127 26.6915C0.542844 26.7258 0.645566 26.7398 0.747922 26.7326H2.14572C2.28713 31.3341 3.78734 35.7907 6.45729 39.541C9.12725 43.2913 12.8475 46.1674 17.1493 47.807C21.451 49.4466 26.1418 49.7762 30.6306 48.7544C35.1194 47.7325 39.2053 45.405 42.3735 42.0649ZM3.64155 26.7326H7.31581C6.52087 27.9685 5.28709 28.8572 3.86304 29.2196C3.74149 28.3956 3.66753 27.5652 3.64155 26.7326ZM25.4655 47.8341C22.5962 47.8419 19.7539 47.2802 17.1033 46.1814C14.4527 45.0827 12.0465 43.4687 10.0243 41.4332C8.64905 40.0619 7.46232 38.5137 6.49528 36.8295C8.40138 36.6915 9.73745 36.2123 10.5616 35.3772C11.4765 34.4442 11.5855 33.2896 11.6726 32.3602C11.7888 31.1221 11.8396 30.8897 12.8017 30.8897C15.365 30.8897 16.3017 33.1044 17.4308 36.4882C18.1279 38.5759 18.7887 40.5509 20.27 41.3134C22.2306 42.3263 23.8825 41.6184 25.6289 40.8668C26.9468 40.3004 28.3083 39.7123 30.0365 39.7123C31.6558 39.7123 32.2149 40.5364 33.0282 41.6728C33.8415 42.8092 34.7382 44.1163 36.8295 44.65C33.407 46.738 29.4747 47.8411 25.4655 47.8377V47.8341Z" fill="#A0AD98"></path><path d="M48.4803 34.1174C48.3455 33.1385 47.8931 32.231 47.1926 31.534C46.4921 30.8371 45.5823 30.3894 44.6027 30.2595C43.6232 30.1296 42.6281 30.3249 41.7702 30.8152C40.9124 31.3055 40.2391 32.0638 39.8539 32.9737C39.4119 32.8221 38.9422 32.7685 38.4775 32.8166C38.0127 32.8647 37.564 33.0133 37.1624 33.2522C36.7609 33.4911 36.4161 33.8145 36.152 34.1999C35.888 34.5854 35.711 35.0237 35.6333 35.4845C35.5556 35.9452 35.5791 36.4173 35.7022 36.8681C35.8253 37.3188 36.0449 37.7374 36.346 38.0947C36.647 38.4521 37.0222 38.7396 37.4455 38.9374C37.8688 39.1353 38.3301 39.2386 38.7973 39.2403H42.5805C42.7788 39.2403 42.9691 39.1615 43.1093 39.0212C43.2496 38.8809 43.3284 38.6907 43.3284 38.4923C43.3284 38.294 43.2496 38.1037 43.1093 37.9635C42.9691 37.8232 42.7788 37.7444 42.5805 37.7444H38.7973C38.3532 37.7241 37.9339 37.5333 37.6268 37.2117C37.3197 36.8902 37.1483 36.4627 37.1483 36.018C37.1483 35.5734 37.3197 35.1459 37.6268 34.8243C37.9339 34.5028 38.3532 34.312 38.7973 34.2917C39.1792 34.2907 39.5502 34.4186 39.8502 34.6547C39.9521 34.7325 40.0722 34.783 40.1991 34.8012C40.3259 34.8195 40.4554 34.8051 40.5751 34.7592C40.6948 34.7134 40.8008 34.6377 40.883 34.5393C40.9652 34.441 41.0209 34.3232 41.0447 34.1973C41.1819 33.4591 41.5893 32.7987 42.1874 32.3449C42.7855 31.8911 43.5313 31.6766 44.2791 31.7433C45.0269 31.81 45.7229 32.1531 46.2313 32.7056C46.7396 33.2581 47.0237 33.9802 47.028 34.731C47.028 34.8036 47.028 34.8726 47.028 34.9452C47.0228 35.0698 47.0489 35.1938 47.1039 35.3058C47.1588 35.4178 47.2409 35.5143 47.3427 35.5865C47.4444 35.6587 47.5626 35.7042 47.6865 35.719C47.8104 35.7339 47.936 35.7175 48.0519 35.6713C48.1764 35.6207 48.3096 35.5948 48.444 35.5951C48.5842 35.5951 48.723 35.6227 48.8525 35.6763C48.982 35.73 49.0997 35.8086 49.1988 35.9077C49.2979 36.0068 49.3765 36.1245 49.4302 36.254C49.4838 36.3835 49.5114 36.5223 49.5114 36.6625C49.5114 36.8027 49.4838 36.9415 49.4302 37.071C49.3765 37.2005 49.2979 37.3181 49.1988 37.4173C49.0997 37.5164 48.982 37.595 48.8525 37.6487C48.723 37.7023 48.5842 37.7299 48.444 37.7299H46.0296C45.8313 37.7299 45.641 37.8087 45.5008 37.949C45.3605 38.0892 45.2817 38.2795 45.2817 38.4778C45.2817 38.6762 45.3605 38.8664 45.5008 39.0067C45.641 39.1469 45.8313 39.2257 46.0296 39.2257H48.4222C49.0855 39.2071 49.7157 38.9319 50.1803 38.4581C50.6449 37.9843 50.9076 37.3488 50.9132 36.6853C50.9189 36.0218 50.667 35.3819 50.2105 34.9003C49.7541 34.4187 49.1287 34.1328 48.4658 34.1029L48.4803 34.1174Z" fill="#A0AD98"></path><path d="M14.2939 49.4969H7.52273C7.42038 49.4898 7.31765 49.5037 7.22094 49.538C7.12422 49.5723 7.0356 49.6261 6.96056 49.696C6.88552 49.766 6.82568 49.8507 6.78477 49.9448C6.74385 50.0389 6.72274 50.1404 6.72274 50.243C6.72274 50.3456 6.74385 50.4471 6.78477 50.5412C6.82568 50.6353 6.88552 50.72 6.96056 50.79C7.0356 50.8599 7.12422 50.9137 7.22094 50.948C7.31765 50.9822 7.42038 50.9962 7.52273 50.9891H14.2939C14.3963 50.9962 14.499 50.9822 14.5957 50.948C14.6924 50.9137 14.7811 50.8599 14.8561 50.79C14.9312 50.72 14.991 50.6353 15.0319 50.5412C15.0728 50.4471 15.0939 50.3456 15.0939 50.243C15.0939 50.1404 15.0728 50.0389 15.0319 49.9448C14.991 49.8507 14.9312 49.766 14.8561 49.696C14.7811 49.6261 14.6924 49.5723 14.5957 49.538C14.499 49.5037 14.3963 49.4898 14.2939 49.4969Z" fill="#A0AD98"></path><path d="M9.00042 47.8014C9.19878 47.8014 9.38902 47.7226 9.52929 47.5823C9.66955 47.4421 9.74834 47.2518 9.74834 47.0535C9.74834 46.8551 9.66955 46.6649 9.52929 46.5246C9.38902 46.3844 9.19878 46.3056 9.00042 46.3056H2.74115C2.54279 46.3056 2.35257 46.3844 2.2123 46.5246C2.07204 46.6649 1.99323 46.8551 1.99323 47.0535C1.99323 47.2518 2.07204 47.4421 2.2123 47.5823C2.35257 47.7226 2.54279 47.8014 2.74115 47.8014H9.00042Z" fill="#A0AD98"></path><path d="M41.3388 49.4969H35.0759C34.9735 49.4898 34.8708 49.5037 34.7741 49.538C34.6774 49.5723 34.5887 49.6261 34.5137 49.696C34.4387 49.766 34.3788 49.8507 34.3379 49.9448C34.297 50.0389 34.2759 50.1404 34.2759 50.243C34.2759 50.3456 34.297 50.4471 34.3379 50.5412C34.3788 50.6353 34.4387 50.72 34.5137 50.79C34.5887 50.8599 34.6774 50.9137 34.7741 50.948C34.8708 50.9822 34.9735 50.9962 35.0759 50.9891H41.3388C41.4411 50.9962 41.5439 50.9822 41.6406 50.948C41.7373 50.9137 41.8259 50.8599 41.901 50.79C41.976 50.72 42.0358 50.6353 42.0768 50.5412C42.1177 50.4471 42.1388 50.3456 42.1388 50.243C42.1388 50.1404 42.1177 50.0389 42.0768 49.9448C42.0358 49.8507 41.976 49.766 41.901 49.696C41.8259 49.6261 41.7373 49.5723 41.6406 49.538C41.5439 49.5037 41.4411 49.4898 41.3388 49.4969Z" fill="#A0AD98"></path><path d="M50.2376 46.3056H40.9975C40.7991 46.3056 40.6089 46.3844 40.4687 46.5246C40.3284 46.6649 40.2496 46.8551 40.2496 47.0535C40.2496 47.2518 40.3284 47.4421 40.4687 47.5823C40.6089 47.7226 40.7991 47.8014 40.9975 47.8014H50.2376C50.4359 47.8014 50.6262 47.7226 50.7664 47.5823C50.9067 47.4421 50.9855 47.2518 50.9855 47.0535C50.9855 46.8551 50.9067 46.6649 50.7664 46.5246C50.6262 46.3844 50.4359 46.3056 50.2376 46.3056Z" fill="#A0AD98"></path><path d="M14.5336 25.9883C14.5383 26.1826 14.6188 26.3672 14.7579 26.5029C14.897 26.6386 15.0836 26.7145 15.2779 26.7145H20.6004C20.4261 28.6278 20.8691 31.1511 21.8712 32.1605C22.7244 33.0173 24.6886 33.4675 26.4422 33.4675C26.9534 33.4707 27.4638 33.427 27.967 33.3368C29.4193 33.0609 29.9748 32.4219 30.189 31.9317C30.8534 30.4141 29.5791 28.3011 28.105 26.7217H47.2858C47.264 27.4479 47.2023 28.174 47.1116 28.8674C47.0983 28.9648 47.1044 29.0638 47.1296 29.1587C47.1548 29.2536 47.1985 29.3426 47.2582 29.4206C47.318 29.4986 47.3925 29.5639 47.4777 29.6129C47.5628 29.6619 47.6568 29.6936 47.7542 29.7061C47.7868 29.7097 47.8196 29.7097 47.8522 29.7061C48.0307 29.7017 48.2018 29.6339 48.3349 29.5148C48.4679 29.3957 48.5542 29.2332 48.5783 29.0562C48.68 28.2865 48.7417 27.5023 48.7671 26.7145H50.2194C50.4083 26.7013 50.5851 26.6169 50.7143 26.4785C50.8434 26.34 50.9153 26.1577 50.9153 25.9684C50.9153 25.779 50.8434 25.5967 50.7143 25.4582C50.5851 25.3198 50.4083 25.2354 50.2194 25.2223H15.2779C15.1798 25.2223 15.0827 25.2416 14.9922 25.2793C14.9016 25.3169 14.8194 25.372 14.7503 25.4415C14.6811 25.511 14.6264 25.5935 14.5892 25.6842C14.552 25.775 14.5331 25.8721 14.5336 25.9702V25.9883ZM22.0963 26.7145H25.9593C26.8403 27.4597 27.6051 28.3322 28.2285 29.3031C28.8638 30.3379 28.9546 31.0241 28.8203 31.3254C28.7513 31.4888 28.41 31.7248 27.6875 31.8591C25.9557 32.1859 23.5376 31.7066 22.9277 31.0967C22.3177 30.4867 21.9075 28.3809 22.0963 26.7145Z" fill="#A0AD98"></path><path d="M4.5819 23.7518C4.77682 23.7528 4.96436 23.6773 5.10421 23.5416C5.24406 23.4058 5.32507 23.2206 5.32982 23.0257V17.9537C5.32982 17.3595 5.56582 16.7898 5.98593 16.3697C6.40603 15.9496 6.97582 15.7135 7.56993 15.7135C8.16405 15.7135 8.73384 15.9496 9.15394 16.3697C9.57405 16.7898 9.81007 17.3595 9.81007 17.9537V23.0076C9.81007 23.2059 9.88886 23.3961 10.0291 23.5364C10.1694 23.6767 10.3596 23.7555 10.558 23.7555C10.7564 23.7555 10.9466 23.6767 11.0868 23.5364C11.2271 23.3961 11.3059 23.2059 11.3059 23.0076V17.9537C11.3059 17.3595 11.5419 16.7898 11.962 16.3697C12.3821 15.9496 12.9519 15.7135 13.546 15.7135C14.1401 15.7135 14.7099 15.9496 15.13 16.3697C15.5501 16.7898 15.7861 17.3595 15.7861 17.9537V23.0076C15.7861 23.2059 15.865 23.3961 16.0052 23.5364C16.1455 23.6767 16.3357 23.7555 16.5341 23.7555C16.7324 23.7555 16.9227 23.6767 17.0629 23.5364C17.2032 23.3961 17.282 23.2059 17.282 23.0076V17.9537C17.282 17.3595 17.518 16.7898 17.9381 16.3697C18.3582 15.9496 18.928 15.7135 19.5221 15.7135C20.1162 15.7135 20.686 15.9496 21.1061 16.3697C21.5262 16.7898 21.7622 17.3595 21.7622 17.9537V23.0076C21.7622 23.2059 21.841 23.3961 21.9813 23.5364C22.1215 23.6767 22.3118 23.7555 22.5101 23.7555C22.7085 23.7555 22.8988 23.6767 23.039 23.5364C23.1793 23.3961 23.2581 23.2059 23.2581 23.0076V17.9537C23.2581 17.3595 23.4941 16.7898 23.9142 16.3697C24.3343 15.9496 24.9041 15.7135 25.4982 15.7135C26.0923 15.7135 26.6621 15.9496 27.0822 16.3697C27.5023 16.7898 27.7383 17.3595 27.7383 17.9537V23.0076C27.7383 23.2059 27.8171 23.3961 27.9574 23.5364C28.0976 23.6767 28.2879 23.7555 28.4862 23.7555C28.6846 23.7555 28.8748 23.6767 29.0151 23.5364C29.1553 23.3961 29.2342 23.2059 29.2342 23.0076V17.9537C29.2575 17.3747 29.5039 16.8271 29.9217 16.4257C30.3396 16.0243 30.8966 15.8001 31.4761 15.8001C32.0555 15.8001 32.6125 16.0243 33.0304 16.4257C33.4483 16.8271 33.6947 17.3747 33.718 17.9537V23.0076C33.7312 23.1964 33.8155 23.3733 33.954 23.5024C34.0925 23.6316 34.2748 23.7034 34.4641 23.7034C34.6535 23.7034 34.8358 23.6316 34.9742 23.5024C35.1127 23.3733 35.197 23.1964 35.2102 23.0076V17.9537C35.2335 17.3747 35.4799 16.8271 35.8978 16.4257C36.3157 16.0243 36.8727 15.8001 37.4522 15.8001C38.0316 15.8001 38.5886 16.0243 39.0065 16.4257C39.4244 16.8271 39.6708 17.3747 39.6941 17.9537V23.0076C39.7073 23.1964 39.7916 23.3733 39.9301 23.5024C40.0686 23.6316 40.2509 23.7034 40.4402 23.7034C40.6296 23.7034 40.8118 23.6316 40.9503 23.5024C41.0888 23.3733 41.1731 23.1964 41.1863 23.0076V17.9537C41.2096 17.3747 41.456 16.8271 41.8739 16.4257C42.2918 16.0243 42.8488 15.8001 43.4282 15.8001C44.0077 15.8001 44.5647 16.0243 44.9826 16.4257C45.4005 16.8271 45.6469 17.3747 45.6702 17.9537V23.0076C45.6834 23.1964 45.7677 23.3733 45.9062 23.5024C46.0446 23.6316 46.2269 23.7034 46.4163 23.7034C46.6056 23.7034 46.7879 23.6316 46.9264 23.5024C47.0649 23.3733 47.1492 23.1964 47.1624 23.0076V17.9537C47.1623 17.3148 46.9984 16.6866 46.6863 16.1292C46.3742 15.5717 45.9243 15.1036 45.3797 14.7696C45.6707 14.4027 45.8523 13.9612 45.9038 13.4958C45.9553 13.0304 45.8745 12.5599 45.6707 12.1383C45.467 11.7167 45.1486 11.3611 44.7519 11.1122C44.3553 10.8634 43.8965 10.7314 43.4282 10.7314C42.96 10.7314 42.5012 10.8634 42.1046 11.1122C41.7079 11.3611 41.3895 11.7167 41.1857 12.1383C40.982 12.5599 40.9012 13.0304 40.9527 13.4958C41.0042 13.9612 41.1858 14.4027 41.4768 14.7696C41.0749 15.0168 40.7227 15.337 40.4384 15.7135C40.154 15.337 39.8019 15.0168 39.4 14.7696C39.7519 14.3311 39.9429 13.7852 39.941 13.2229C39.9415 12.8252 39.8467 12.4331 39.6647 12.0795C39.4826 11.7258 39.2184 11.421 38.8944 11.1904C38.5703 10.9598 38.1957 10.8102 37.8019 10.754C37.4082 10.6979 37.0067 10.7368 36.6311 10.8677C36.2555 10.9985 35.9166 11.2174 35.643 11.506C35.3693 11.7946 35.1687 12.1446 35.0581 12.5267C34.9474 12.9087 34.9298 13.3117 35.0068 13.7019C35.0838 14.0921 35.2532 14.4582 35.5007 14.7696C35.0988 15.0168 34.7467 15.337 34.4623 15.7135C34.1779 15.337 33.8258 15.0168 33.4239 14.7696C33.7155 14.4028 33.8977 13.9613 33.9496 13.4957C34.0015 13.0301 33.921 12.5593 33.7174 12.1373C33.5138 11.7154 33.1953 11.3594 32.7985 11.1103C32.4018 10.8612 31.9428 10.7291 31.4743 10.7291C31.0058 10.7291 30.5468 10.8612 30.15 11.1103C29.7532 11.3594 29.4347 11.7154 29.2311 12.1373C29.0275 12.5593 28.9471 13.0301 28.999 13.4957C29.0509 13.9613 29.2331 14.4028 29.5246 14.7696C29.1227 15.0168 28.7706 15.337 28.4862 15.7135C28.2019 15.337 27.8497 15.0168 27.4478 14.7696C27.7394 14.4028 27.9216 13.9613 27.9735 13.4957C28.0254 13.0301 27.9449 12.5593 27.7413 12.1373C27.5377 11.7154 27.2193 11.3594 26.8225 11.1103C26.4257 10.8612 25.9667 10.7291 25.4982 10.7291C25.0297 10.7291 24.5707 10.8612 24.1739 11.1103C23.7771 11.3594 23.4586 11.7154 23.255 12.1373C23.0514 12.5593 22.971 13.0301 23.0229 13.4957C23.0748 13.9613 23.257 14.4028 23.5485 14.7696C23.1467 15.0168 22.7945 15.337 22.5101 15.7135C22.2258 15.337 21.8736 15.0168 21.4718 14.7696C21.7633 14.4028 21.9455 13.9613 21.9974 13.4957C22.0493 13.0301 21.9688 12.5593 21.7652 12.1373C21.5616 11.7154 21.2432 11.3594 20.8464 11.1103C20.4496 10.8612 19.9906 10.7291 19.5221 10.7291C19.0536 10.7291 18.5946 10.8612 18.1978 11.1103C17.801 11.3594 17.4826 11.7154 17.279 12.1373C17.0754 12.5593 16.9949 13.0301 17.0468 13.4957C17.0987 13.9613 17.2809 14.4028 17.5724 14.7696C17.1706 15.0168 16.8184 15.337 16.5341 15.7135C16.2497 15.337 15.8976 15.0168 15.4957 14.7696C15.7872 14.4028 15.9694 13.9613 16.0213 13.4957C16.0732 13.0301 15.9928 12.5593 15.7892 12.1373C15.5856 11.7154 15.2671 11.3594 14.8703 11.1103C14.4735 10.8612 14.0145 10.7291 13.546 10.7291C13.0775 10.7291 12.6185 10.8612 12.2218 11.1103C11.825 11.3594 11.5065 11.7154 11.3029 12.1373C11.0993 12.5593 11.0188 13.0301 11.0707 13.4957C11.1226 13.9613 11.3048 14.4028 11.5964 14.7696C11.1945 15.0168 10.8423 15.337 10.558 15.7135C10.2736 15.337 9.92146 15.0168 9.5196 14.7696C9.81114 14.4028 9.99332 13.9613 10.0452 13.4957C10.0971 13.0301 10.0167 12.5593 9.81309 12.1373C9.60949 11.7154 9.29101 11.3594 8.89423 11.1103C8.49744 10.8612 8.03843 10.7291 7.56993 10.7291C7.10144 10.7291 6.64245 10.8612 6.24566 11.1103C5.84888 11.3594 5.53041 11.7154 5.3268 12.1373C5.1232 12.5593 5.04272 13.0301 5.09464 13.4957C5.14655 13.9613 5.32873 14.4028 5.62027 14.7696C5.07476 15.1029 4.624 15.5707 4.31122 16.1283C3.99843 16.6858 3.83411 17.3144 3.83398 17.9537V23.0076C3.83398 23.1056 3.85335 23.2027 3.89098 23.2932C3.92861 23.3838 3.98376 23.466 4.05326 23.5351C4.12275 23.6043 4.20523 23.659 4.29595 23.6962C4.38667 23.7334 4.48386 23.7523 4.5819 23.7518ZM43.4301 12.2245C43.6277 12.2237 43.8211 12.2817 43.9857 12.391C44.1504 12.5002 44.2789 12.6559 44.3551 12.8383C44.4312 13.0207 44.4515 13.2215 44.4134 13.4154C44.3753 13.6094 44.2805 13.7876 44.141 13.9276C44.0015 14.0676 43.8236 14.1631 43.6298 14.2019C43.436 14.2407 43.2351 14.2211 43.0525 14.1457C42.8698 14.0702 42.7137 13.9422 42.6038 13.778C42.4939 13.6137 42.4353 13.4205 42.4353 13.2229C42.4352 12.9594 42.5394 12.7065 42.7251 12.5195C42.9108 12.3324 43.1629 12.2264 43.4264 12.2245H43.4301ZM37.454 12.2245C37.6508 12.2273 37.8424 12.2883 38.0047 12.3997C38.1669 12.5112 38.2926 12.6681 38.366 12.8508C38.4393 13.0334 38.4571 13.2337 38.4169 13.4264C38.3768 13.6191 38.2805 13.7957 38.1403 13.9339C38.0002 14.0721 37.8222 14.1657 37.629 14.2031C37.4357 14.2404 37.2357 14.2198 37.0541 14.1439C36.8725 14.0679 36.7174 13.9399 36.6083 13.7761C36.4992 13.6122 36.441 13.4197 36.441 13.2229C36.441 13.0909 36.4672 12.9601 36.518 12.8383C36.5689 12.7164 36.6434 12.6059 36.7373 12.513C36.8312 12.4202 36.9425 12.3469 37.0649 12.2973C37.1873 12.2478 37.3183 12.223 37.4504 12.2245H37.454ZM31.4779 12.2245C31.6755 12.2237 31.8689 12.2817 32.0336 12.391C32.1983 12.5002 32.3268 12.6559 32.4029 12.8383C32.479 13.0207 32.4993 13.2215 32.4612 13.4154C32.4231 13.6094 32.3283 13.7876 32.1888 13.9276C32.0493 14.0676 31.8714 14.1631 31.6777 14.2019C31.4839 14.2407 31.2829 14.2211 31.1003 14.1457C30.9176 14.0702 30.7615 13.9422 30.6516 13.778C30.5417 13.6137 30.4831 13.4205 30.4831 13.2229C30.4831 12.9594 30.5873 12.7065 30.773 12.5195C30.9586 12.3324 31.2107 12.2264 31.4743 12.2245H31.4779ZM25.5018 12.2245C25.6994 12.2237 25.8928 12.2817 26.0575 12.391C26.2222 12.5002 26.3507 12.6559 26.4268 12.8383C26.503 13.0207 26.5232 13.2215 26.4851 13.4154C26.447 13.6094 26.3522 13.7876 26.2127 13.9276C26.0732 14.0676 25.8953 14.1631 25.7016 14.2019C25.5078 14.2407 25.3069 14.2211 25.1242 14.1457C24.9416 14.0702 24.7854 13.9422 24.6755 13.778C24.5657 13.6137 24.507 13.4205 24.507 13.2229C24.507 12.9594 24.6112 12.7065 24.7969 12.5195C24.9825 12.3324 25.2346 12.2264 25.4982 12.2245H25.5018ZM19.5257 12.2245C19.7233 12.2237 19.9168 12.2817 20.0814 12.391C20.2461 12.5002 20.3746 12.6559 20.4507 12.8383C20.5269 13.0207 20.5472 13.2215 20.509 13.4154C20.4709 13.6094 20.3761 13.7876 20.2367 13.9276C20.0972 14.0676 19.9193 14.1631 19.7255 14.2019C19.5317 14.2407 19.3308 14.2211 19.1481 14.1457C18.9655 14.0702 18.8093 13.9422 18.6995 13.778C18.5896 13.6137 18.5309 13.4205 18.5309 13.2229C18.5309 12.9594 18.6351 12.7065 18.8208 12.5195C19.0065 12.3324 19.2586 12.2264 19.5221 12.2245H19.5257ZM13.5497 12.2245C13.7473 12.2237 13.9407 12.2817 14.1053 12.391C14.27 12.5002 14.3986 12.6559 14.4747 12.8383C14.5508 13.0207 14.5711 13.2215 14.533 13.4154C14.4949 13.6094 14.4001 13.7876 14.2606 13.9276C14.1211 14.0676 13.9432 14.1631 13.7494 14.2019C13.5556 14.2407 13.3547 14.2211 13.1721 14.1457C12.9894 14.0702 12.8332 13.9422 12.7234 13.778C12.6135 13.6137 12.5549 13.4205 12.5549 13.2229C12.5549 12.9594 12.659 12.7065 12.8447 12.5195C13.0304 12.3324 13.2825 12.2264 13.546 12.2245H13.5497ZM7.57357 12.2245C7.77119 12.2237 7.96458 12.2817 8.12925 12.391C8.29392 12.5002 8.42246 12.6559 8.49859 12.8383C8.57471 13.0207 8.595 13.2215 8.55689 13.4154C8.51878 13.6094 8.42397 13.7876 8.28448 13.9276C8.14499 14.0676 7.96709 14.1631 7.77332 14.2019C7.57954 14.2407 7.37862 14.2211 7.19597 14.1457C7.01331 14.0702 6.85717 13.9422 6.74729 13.778C6.63742 13.6137 6.57877 13.4205 6.57877 13.2229C6.57876 12.9594 6.68297 12.7065 6.86864 12.5195C7.05432 12.3324 7.30639 12.2264 7.56993 12.2245H7.57357Z" fill="#A0AD98"></path><path d="M7.56994 9.23641C7.7683 9.23641 7.95854 9.15761 8.0988 9.01735C8.23907 8.87709 8.31785 8.68686 8.31785 8.4885V7.22139C8.31785 6.62727 8.55388 6.05749 8.97399 5.63739C9.39409 5.21728 9.96388 4.98127 10.558 4.98127C11.1521 4.98127 11.7219 5.21728 12.142 5.63739C12.5621 6.05749 12.7981 6.62727 12.7981 7.22139V8.4885C12.7981 8.68686 12.8769 8.87709 13.0172 9.01735C13.1574 9.15761 13.3477 9.23641 13.546 9.23641C13.7444 9.23641 13.9346 9.15761 14.0749 9.01735C14.2152 8.87709 14.2939 8.68686 14.2939 8.4885V7.22139C14.2939 6.62727 14.5299 6.05749 14.9501 5.63739C15.3702 5.21728 15.9399 4.98127 16.5341 4.98127C17.1282 4.98127 17.698 5.21728 18.1181 5.63739C18.5382 6.05749 18.7742 6.62727 18.7742 7.22139V8.4885C18.7742 8.68686 18.853 8.87709 18.9932 9.01735C19.1335 9.15761 19.3238 9.23641 19.5221 9.23641C19.7205 9.23641 19.9107 9.15761 20.051 9.01735C20.1912 8.87709 20.27 8.68686 20.27 8.4885V7.22139C20.27 6.62727 20.506 6.05749 20.9261 5.63739C21.3462 5.21728 21.916 4.98127 22.5101 4.98127C23.1043 4.98127 23.674 5.21728 24.0942 5.63739C24.5143 6.05749 24.7503 6.62727 24.7503 7.22139V8.4885C24.7503 8.68686 24.8291 8.87709 24.9693 9.01735C25.1096 9.15761 25.2998 9.23641 25.4982 9.23641C25.6965 9.23641 25.8868 9.15761 26.027 9.01735C26.1673 8.87709 26.2461 8.68686 26.2461 8.4885V7.22139C26.2461 6.62727 26.4821 6.05749 26.9022 5.63739C27.3223 5.21728 27.8921 4.98127 28.4862 4.98127C29.0803 4.98127 29.6501 5.21728 30.0702 5.63739C30.4903 6.05749 30.7263 6.62727 30.7263 7.22139V8.4885C30.7263 8.68686 30.8051 8.87709 30.9454 9.01735C31.0857 9.15761 31.2759 9.23641 31.4743 9.23641C31.6726 9.23641 31.8628 9.15761 32.0031 9.01735C32.1434 8.87709 32.2222 8.68686 32.2222 8.4885V7.22139C32.2455 6.6424 32.4919 6.09488 32.9098 5.69347C33.3277 5.29205 33.8847 5.06788 34.4641 5.06788C35.0436 5.06788 35.6006 5.29205 36.0184 5.69347C36.4363 6.09488 36.6827 6.6424 36.706 7.22139V8.4885C36.6989 8.59085 36.7129 8.69358 36.7472 8.7903C36.7814 8.88702 36.8352 8.97565 36.9052 9.05069C36.9752 9.12572 37.0598 9.18556 37.1539 9.22647C37.248 9.26738 37.3495 9.28849 37.4521 9.28849C37.5548 9.28849 37.6563 9.26738 37.7504 9.22647C37.8445 9.18556 37.9291 9.12572 37.9991 9.05069C38.0691 8.97565 38.1229 8.88702 38.1572 8.7903C38.1914 8.69358 38.2054 8.59085 38.1983 8.4885V7.22139C38.2216 6.6424 38.4679 6.09488 38.8858 5.69347C39.3037 5.29205 39.8607 5.06788 40.4402 5.06788C41.0197 5.06788 41.5766 5.29205 41.9945 5.69347C42.4124 6.09488 42.6588 6.6424 42.6821 7.22139V8.4885C42.675 8.59085 42.689 8.69358 42.7232 8.7903C42.7575 8.88702 42.8113 8.97565 42.8813 9.05069C42.9513 9.12572 43.0359 9.18556 43.13 9.22647C43.2241 9.26738 43.3256 9.28849 43.4282 9.28849C43.5308 9.28849 43.6323 9.26738 43.7264 9.22647C43.8205 9.18556 43.9052 9.12572 43.9752 9.05069C44.0452 8.97565 44.099 8.88702 44.1332 8.7903C44.1675 8.69358 44.1815 8.59085 44.1743 8.4885V7.22139C44.1742 6.5821 44.0099 5.95357 43.6971 5.39602C43.3843 4.83848 42.9336 4.37062 42.3881 4.0373C42.7394 3.5985 42.9303 3.05279 42.929 2.49063C42.9295 2.09289 42.8348 1.70081 42.6527 1.34719C42.4706 0.993579 42.2065 0.688718 41.8824 0.458118C41.5583 0.227517 41.1837 0.0778838 40.79 0.0217379C40.3962 -0.034408 39.9947 0.00456621 39.6191 0.1354C39.2435 0.266234 38.9047 0.485121 38.631 0.773749C38.3574 1.06238 38.1568 1.41235 38.0461 1.79438C37.9354 2.17642 37.9179 2.5794 37.9949 2.96962C38.0719 3.35984 38.2412 3.72594 38.4887 4.0373C38.0861 4.28354 37.7337 4.60385 37.4503 4.98127C37.167 4.60385 36.8146 4.28354 36.412 4.0373C36.7035 3.67056 36.8857 3.22903 36.9376 2.76341C36.9895 2.2978 36.909 1.82699 36.7054 1.40504C36.5018 0.9831 36.1834 0.627138 35.7866 0.378036C35.3898 0.128935 34.9308 -0.00320435 34.4623 -0.00320435C33.9938 -0.00320435 33.5348 0.128935 33.138 0.378036C32.7412 0.627138 32.4227 0.9831 32.2191 1.40504C32.0155 1.82699 31.9351 2.2978 31.987 2.76341C32.0389 3.22903 32.2211 3.67056 32.5126 4.0373C32.11 4.28354 31.7577 4.60385 31.4743 4.98127C31.1909 4.60385 30.8385 4.28354 30.4359 4.0373C30.7274 3.67056 30.9096 3.22903 30.9615 2.76341C31.0134 2.2978 30.933 1.82699 30.7294 1.40504C30.5258 0.9831 30.2073 0.627138 29.8105 0.378036C29.4137 0.128935 28.9547 -0.00320435 28.4862 -0.00320435C28.0177 -0.00320435 27.5587 0.128935 27.1619 0.378036C26.7652 0.627138 26.4467 0.9831 26.2431 1.40504C26.0395 1.82699 25.959 2.2978 26.0109 2.76341C26.0628 3.22903 26.245 3.67056 26.5365 4.0373C26.1339 4.28354 25.7816 4.60385 25.4982 4.98127C25.2148 4.60385 24.8625 4.28354 24.4598 4.0373C24.7513 3.67056 24.9335 3.22903 24.9854 2.76341C25.0374 2.2978 24.9569 1.82699 24.7533 1.40504C24.5497 0.9831 24.2312 0.627138 23.8344 0.378036C23.4376 0.128935 22.9786 -0.00320435 22.5101 -0.00320435C22.0416 -0.00320435 21.5827 0.128935 21.1859 0.378036C20.7891 0.627138 20.4706 0.9831 20.267 1.40504C20.0634 1.82699 19.9829 2.2978 20.0348 2.76341C20.0868 3.22903 20.2689 3.67056 20.5605 4.0373C20.1578 4.28354 19.8055 4.60385 19.5221 4.98127C19.2387 4.60385 18.8864 4.28354 18.4837 4.0373C18.7753 3.67056 18.9574 3.22903 19.0094 2.76341C19.0613 2.2978 18.9808 1.82699 18.7772 1.40504C18.5736 0.9831 18.2551 0.627138 17.8584 0.378036C17.4616 0.128935 17.0026 -0.00320435 16.5341 -0.00320435C16.0656 -0.00320435 15.6066 0.128935 15.2098 0.378036C14.813 0.627138 14.4945 0.9831 14.2909 1.40504C14.0873 1.82699 14.0068 2.2978 14.0588 2.76341C14.1107 3.22903 14.2929 3.67056 14.5844 4.0373C14.1817 4.28354 13.8294 4.60385 13.546 4.98127C13.2626 4.60385 12.9103 4.28354 12.5077 4.0373C12.7992 3.67056 12.9814 3.22903 13.0333 2.76341C13.0852 2.2978 13.0047 1.82699 12.8011 1.40504C12.5975 0.9831 12.279 0.627138 11.8823 0.378036C11.4855 0.128935 11.0265 -0.00320435 10.558 -0.00320435C10.0895 -0.00320435 9.63048 0.128935 9.2337 0.378036C8.83691 0.627138 8.51844 0.9831 8.31484 1.40504C8.11124 1.82699 8.03078 2.2978 8.08269 2.76341C8.13461 3.22903 8.31679 3.67056 8.60833 4.0373C8.06281 4.37062 7.61206 4.83848 7.29928 5.39602C6.98649 5.95357 6.82215 6.5821 6.82202 7.22139V8.4885C6.82202 8.68686 6.90083 8.87709 7.04109 9.01735C7.18136 9.15761 7.37158 9.23641 7.56994 9.23641ZM40.4347 1.4922C40.6324 1.49148 40.8258 1.54942 40.9904 1.6587C41.1551 1.76797 41.2836 1.92365 41.3598 2.10602C41.4359 2.2884 41.4562 2.48926 41.4181 2.68318C41.38 2.8771 41.2851 3.05534 41.1457 3.19534C41.0062 3.33533 40.8283 3.43079 40.6345 3.46961C40.4407 3.50843 40.2398 3.48887 40.0571 3.41341C39.8745 3.33794 39.7183 3.20998 39.6085 3.04571C39.4986 2.88144 39.4399 2.68826 39.4399 2.49063C39.4399 2.22646 39.5446 1.97305 39.7311 1.78591C39.9175 1.59877 40.1706 1.49316 40.4347 1.4922ZM34.4587 1.4922C34.6563 1.49148 34.8497 1.54942 35.0144 1.6587C35.179 1.76797 35.3076 1.92365 35.3837 2.10602C35.4598 2.2884 35.4801 2.48926 35.442 2.68318C35.4039 2.8771 35.3091 3.05534 35.1696 3.19534C35.0301 3.33533 34.8522 3.43079 34.6584 3.46961C34.4647 3.50843 34.2637 3.48887 34.0811 3.41341C33.8984 3.33794 33.7423 3.20998 33.6324 3.04571C33.5225 2.88144 33.4639 2.68826 33.4639 2.49063C33.4639 2.22583 33.5691 1.97187 33.7563 1.78463C33.9435 1.59739 34.1975 1.4922 34.4623 1.4922H34.4587ZM28.4826 1.4922C28.6802 1.49148 28.8736 1.54942 29.0383 1.6587C29.2029 1.76797 29.3315 1.92365 29.4076 2.10602C29.4837 2.2884 29.504 2.48926 29.4659 2.68318C29.4278 2.8771 29.333 3.05534 29.1935 3.19534C29.054 3.33533 28.8761 3.43079 28.6823 3.46961C28.4886 3.50843 28.2876 3.48887 28.105 3.41341C27.9223 3.33794 27.7662 3.20998 27.6563 3.04571C27.5464 2.88144 27.4878 2.68826 27.4878 2.49063C27.4878 2.22583 27.593 1.97187 27.7802 1.78463C27.9675 1.59739 28.2214 1.4922 28.4862 1.4922H28.4826ZM22.5065 1.4922C22.7041 1.49148 22.8975 1.54942 23.0622 1.6587C23.2269 1.76797 23.3554 1.92365 23.4315 2.10602C23.5077 2.2884 23.5279 2.48926 23.4898 2.68318C23.4517 2.8771 23.3569 3.05534 23.2174 3.19534C23.0779 3.33533 22.9 3.43079 22.7063 3.46961C22.5125 3.50843 22.3116 3.48887 22.1289 3.41341C21.9463 3.33794 21.7901 3.20998 21.6802 3.04571C21.5704 2.88144 21.5117 2.68826 21.5117 2.49063C21.5117 2.22583 21.6169 1.97187 21.8042 1.78463C21.9914 1.59739 22.2453 1.4922 22.5101 1.4922H22.5065ZM16.5304 1.4922C16.728 1.49148 16.9215 1.54942 17.0861 1.6587C17.2508 1.76797 17.3793 1.92365 17.4554 2.10602C17.5316 2.2884 17.5519 2.48926 17.5137 2.68318C17.4756 2.8771 17.3808 3.05534 17.2414 3.19534C17.1019 3.33533 16.924 3.43079 16.7302 3.46961C16.5364 3.50843 16.3355 3.48887 16.1528 3.41341C15.9702 3.33794 15.814 3.20998 15.7041 3.04571C15.5943 2.88144 15.5356 2.68826 15.5356 2.49063C15.5356 2.22583 15.6408 1.97187 15.8281 1.78463C16.0153 1.59739 16.2693 1.4922 16.5341 1.4922H16.5304ZM10.5544 1.4922C10.7526 1.48859 10.9474 1.54407 11.1139 1.65157C11.2805 1.75906 11.4113 1.91371 11.4896 2.0958C11.568 2.27789 11.5904 2.47919 11.5539 2.67405C11.5175 2.86891 11.4238 3.0485 11.2849 3.18996C11.1461 3.33141 10.9682 3.42832 10.7741 3.46834C10.5799 3.50836 10.3782 3.48968 10.1947 3.41467C10.0112 3.33967 9.85422 3.21173 9.74369 3.04717C9.63315 2.88261 9.57411 2.68887 9.57407 2.49063C9.57405 2.22833 9.67724 1.97655 9.86135 1.78972C10.0455 1.60289 10.2957 1.49601 10.558 1.4922H10.5544Z" fill="#A0AD98"></path></g><defs><clipPath id="clip0_133_104"><rect width="51" height="51" fill="white"></rect></clipPath></defs></svg>